<?xml version="1.0" standalone="no"?>
<!DOCTYPE svg PUBLIC "-//W3C//DTD SVG 20010904//EN"
 "http://www.w3.org/TR/2001/REC-SVG-20010904/DTD/svg10.dtd">
<svg version="1.0" xmlns="http://www.w3.org/2000/svg"
 width="104.000000pt" height="104.000000pt" viewBox="0 0 104.000000 104.000000"
 preserveAspectRatio="xMidYMid meet">

<g transform="translate(0.000000,104.000000) scale(0.100000,-0.100000)"
fill="#000000" stroke="none">
<path d="M0 520 l0 -520 520 0 520 0 0 520 0 520 -520 0 -520 0 0 -520z m110
-260 l0 -170 50 0 c38 0 50 -4 50 -15 0 -12 -15 -15 -75 -15 l-75 0 0 185 0
185 25 0 25 0 0 -170z m260 163 c0 -5 11 -68 23 -140 l23 -133 23 128 c13 70
26 133 28 140 3 8 26 12 64 12 l59 0 0 -185 0 -185 -35 0 -35 0 -1 158 -1 157
-31 -155 -32 -155 -40 -3 -41 -3 -31 153 -31 153 -1 -152 -1 -153 -35 0 -35 0
0 185 0 185 65 0 c36 0 65 -3 65 -7z m390 -107 c0 -139 9 -169 48 -164 l27 3
3 138 3 137 70 0 71 0 -4 -137 c-3 -107 -8 -146 -22 -171 -48 -91 -236 -96
-299 -8 -20 28 -22 45 -25 174 l-4 142 66 0 66 0 0 -114z"/>
</g>
</svg>
