<?xml version="1.0" encoding="UTF-8"?>
<svg id="Layer_1" xmlns="http://www.w3.org/2000/svg" viewBox="0 0 450 68">
  <defs>
    <style>
      .cls-1 {
        fill: #fff;
      }
    </style>
  </defs>
  <g>
    <g>
      <g>
        <path class="cls-1" d="M138.91,6.67l-.8.65c-.64-1.77-1.81-2.52-3.83-2.52-2.22,0-3.53,1.12-3.53,2.56,0,1.36.92,2.06,3.9,2.56,3.25.56,4.43,1.53,4.43,3.36,0,2-1.87,3.36-4.63,3.36-2.6,0-4.45-1.08-5.1-2.95l.82-.64c.5,1.78,2.09,2.73,4.3,2.73s3.64-.88,3.64-2.45c0-1.29-.93-2.02-3.72-2.5-3.46-.58-4.63-1.53-4.63-3.38s1.7-3.51,4.5-3.51c2.3,0,3.87.9,4.65,2.73Z"/>
        <path class="cls-1" d="M146.46,16.65c-3.4,0-5.61-2.45-5.61-6.35s2.22-6.35,5.59-6.35c2.48,0,4.07,1.05,4.78,3.05l-.92.43c-.58-1.74-1.79-2.62-3.81-2.62-2.78,0-4.65,2.09-4.65,5.49s1.81,5.49,4.62,5.49c1.98,0,3.44-.99,4-2.8l.93.36c-.71,2.09-2.52,3.31-4.93,3.31Z"/>
        <path class="cls-1" d="M163.25,4.13v12.33h-.93v-5.83h-7.62v5.83h-.93V4.13h.93v5.62h7.62v-5.62h.93Z"/>
        <path class="cls-1" d="M177.34,10.29c0,3.9-2.19,6.35-5.68,6.35s-5.68-2.45-5.68-6.35,2.19-6.35,5.68-6.35,5.68,2.45,5.68,6.35ZM166.97,10.29c0,3.4,1.79,5.49,4.69,5.49s4.71-2.09,4.71-5.49-1.81-5.49-4.71-5.49-4.69,2.09-4.69,5.49Z"/>
        <path class="cls-1" d="M190.64,10.29c0,3.9-2.19,6.35-5.68,6.35s-5.68-2.45-5.68-6.35,2.19-6.35,5.68-6.35,5.68,2.45,5.68,6.35ZM180.27,10.29c0,3.4,1.79,5.49,4.69,5.49s4.71-2.09,4.71-5.49-1.81-5.49-4.71-5.49-4.69,2.09-4.69,5.49Z"/>
        <path class="cls-1" d="M201.7,15.6v.86h-8.33V4.13h.93v11.47h7.4Z"/>
        <path class="cls-1" d="M219.23,10.29c0,3.9-2.19,6.35-5.68,6.35s-5.68-2.45-5.68-6.35,2.19-6.35,5.68-6.35,5.68,2.45,5.68,6.35ZM208.86,10.29c0,3.4,1.79,5.49,4.69,5.49s4.71-2.09,4.71-5.49-1.81-5.49-4.71-5.49-4.69,2.09-4.69,5.49Z"/>
        <path class="cls-1" d="M222.89,4.99v4.76h5.92v.88h-5.92v5.83h-.93V4.13h8.41v.86h-7.47Z"/>
        <path class="cls-1" d="M135.45,34.4c-3.57,0-5.81-2.43-5.81-6.35s2.26-6.35,5.79-6.35c2.45,0,4.19,1.03,4.93,3.03l-1.89.84c-.49-1.46-1.4-2.13-2.93-2.13-2.3,0-3.81,1.68-3.81,4.61s1.4,4.61,3.74,4.61c1.57,0,2.71-.78,3.18-2.35l1.91.64c-.77,2.26-2.69,3.46-5.1,3.46Z"/>
        <path class="cls-1" d="M153.69,28.04c0,3.92-2.24,6.35-5.83,6.35s-5.81-2.43-5.81-6.35,2.24-6.35,5.81-6.35,5.83,2.43,5.83,6.35ZM144.14,28.04c0,2.93,1.4,4.61,3.72,4.61s3.74-1.68,3.74-4.61-1.4-4.61-3.74-4.61-3.72,1.68-3.72,4.61Z"/>
        <path class="cls-1" d="M168.89,34.21h-1.83v-7.14l.13-3.4h-.02l-3.76,10.54h-1.66l-3.76-10.54h-.02l.15,3.4v7.14h-1.85v-12.33h2.97l2.48,7.14.86,2.93h.04l.88-2.93,2.47-7.14h2.91v12.33Z"/>
        <path class="cls-1" d="M181.26,25.73c0,2.39-1.68,3.83-4.33,3.83h-2.75v4.65h-2v-12.33h4.75c2.65,0,4.33,1.44,4.33,3.85ZM179.19,25.73c0-1.4-.8-2.15-2.58-2.15h-2.43v4.28h2.43c1.77,0,2.58-.73,2.58-2.13Z"/>
        <path class="cls-1" d="M193.44,29.48c0,3.27-1.78,4.91-5.04,4.91s-5.05-1.64-5.05-4.91v-7.6h2.02v7.36c0,2.34.95,3.42,3.03,3.42s3.03-1.08,3.03-3.42v-7.36h2.02v7.6Z"/>
        <path class="cls-1" d="M205.74,23.6h-4.22v10.61h-2v-10.61h-4.22v-1.72h10.44v1.72Z"/>
        <path class="cls-1" d="M209.75,34.21h-2v-12.33h2v12.33Z"/>
        <path class="cls-1" d="M223.15,34.21h-2.37l-4.76-7.77-1.2-2.28h-.02l.07,2.09v7.96h-1.83v-12.33h2.35l4.75,7.75,1.21,2.3h.02l-.07-2.09v-7.96h1.85v12.33Z"/>
        <path class="cls-1" d="M236.75,27.84v6.37h-1.48l-.07-1.57c-.69,1.1-1.94,1.76-3.76,1.76-3.46,0-5.72-2.39-5.72-6.35s2.32-6.35,5.87-6.35c2.56,0,4.13.92,5.08,2.91l-1.83.88c-.49-1.36-1.66-2.06-3.21-2.06-2.32,0-3.81,1.68-3.81,4.61s1.33,4.63,3.85,4.63c1.87,0,3.31-.93,3.31-2.84v-.36h-3.77v-1.64h5.55Z"/>
        <path class="cls-1" d="M254.52,33.69l-.22.71c-.9,0-1.57-.32-2.75-1.59-.88.97-2.11,1.59-3.72,1.59-2.17,0-3.74-1.21-3.74-3.01,0-1.7,1.03-2.77,3.12-3.9-1.14-1.5-1.53-2.19-1.53-3.14,0-1.42,1.01-2.62,2.77-2.62,1.48,0,2.69.77,2.69,2.37,0,1.33-.49,2.32-2.71,3.59.36.47.77,1.01,1.27,1.64.73.93,1.33,1.68,1.81,2.26.69-1.07,1.03-2.5.97-4.11l.77.07c.06,1.63-.34,3.33-1.21,4.63,1.1,1.21,1.66,1.49,2.48,1.49ZM251.02,32.23c-.52-.62-1.16-1.38-1.94-2.37-.54-.67-.99-1.25-1.38-1.76-1.92,1.1-2.73,1.91-2.73,3.23,0,1.4,1.27,2.3,2.8,2.3,1.36,0,2.47-.5,3.25-1.4ZM246.56,24.33c0,.77.21,1.2,1.38,2.75,2-1.08,2.35-1.94,2.35-2.95s-.71-1.59-1.87-1.59-1.87.77-1.87,1.79Z"/>
        <path class="cls-1" d="M140.81,45.79c0,3.96-2.26,6.17-6.13,6.17h-4.35v-12.33h4.35c3.87,0,6.13,2.2,6.13,6.17ZM138.72,45.79c0-2.84-1.44-4.47-4.04-4.47h-2.35v8.93h2.35c2.6,0,4.04-1.63,4.04-4.47Z"/>
        <path class="cls-1" d="M149.95,48.73h-5.19l-1.18,3.23h-2.06l4.65-12.33h2.39l4.65,12.33h-2.11l-1.16-3.23ZM149.35,47.1l-1.42-3.96-.56-1.78h-.06l-.52,1.74-1.46,4h4.02Z"/>
        <path class="cls-1" d="M162.52,41.35h-4.22v10.61h-2v-10.61h-4.22v-1.72h10.44v1.72Z"/>
        <path class="cls-1" d="M169.83,48.73h-5.19l-1.18,3.23h-2.06l4.65-12.33h2.39l4.65,12.33h-2.11l-1.16-3.23ZM169.23,47.1l-1.42-3.96-.56-1.78h-.06l-.52,1.74-1.46,4h4.02Z"/>
        <path class="cls-1" d="M189.09,41.94l-1.51,1.36c-.69-1.48-1.64-2.13-3.4-2.13s-2.71.78-2.71,1.83c0,.99.77,1.51,3.16,1.94,3.31.58,4.52,1.61,4.52,3.59,0,2.2-2,3.61-4.91,3.61-2.69,0-4.35-.97-5.31-2.5l1.4-1.4c.8,1.49,2.04,2.17,3.89,2.17s2.84-.62,2.84-1.76c0-.88-.75-1.38-3.06-1.81-3.38-.64-4.63-1.66-4.63-3.62,0-2.09,1.79-3.77,4.8-3.77,2.28,0,3.85.82,4.93,2.5Z"/>
        <path class="cls-1" d="M196.7,52.14c-3.57,0-5.81-2.43-5.81-6.35s2.26-6.35,5.79-6.35c2.45,0,4.19,1.03,4.93,3.03l-1.89.84c-.49-1.46-1.4-2.13-2.93-2.13-2.3,0-3.81,1.68-3.81,4.61s1.4,4.61,3.74,4.61c1.57,0,2.71-.78,3.18-2.35l1.91.64c-.77,2.26-2.69,3.46-5.1,3.46Z"/>
        <path class="cls-1" d="M205.98,51.96h-2v-12.33h2v12.33Z"/>
        <path class="cls-1" d="M218.46,50.24v1.72h-9.19v-12.33h8.93v1.72h-6.93v3.55h5.42v1.68h-5.42v3.66h7.19Z"/>
        <path class="cls-1" d="M230.88,51.96h-2.37l-4.76-7.77-1.2-2.28h-.02l.07,2.09v7.96h-1.83v-12.33h2.35l4.75,7.75,1.21,2.3h.02l-.07-2.09v-7.96h1.85v12.33Z"/>
        <path class="cls-1" d="M239.27,52.14c-3.57,0-5.81-2.43-5.81-6.35s2.26-6.35,5.79-6.35c2.45,0,4.19,1.03,4.93,3.03l-1.89.84c-.49-1.46-1.4-2.13-2.93-2.13-2.3,0-3.81,1.68-3.81,4.61s1.4,4.61,3.74,4.61c1.57,0,2.71-.78,3.18-2.35l1.91.64c-.77,2.26-2.69,3.46-5.1,3.46Z"/>
        <path class="cls-1" d="M255.75,50.24v1.72h-9.19v-12.33h8.93v1.72h-6.93v3.55h5.42v1.68h-5.42v3.66h7.19Z"/>
      </g>
      <g>
        <path class="cls-1" d="M135.21,58.74h-1.97v4.96h-.93v-4.96h-1.97v-.8h4.88v.8Z"/>
        <path class="cls-1" d="M139.88,60.87v2.83h-.93v-2.53c0-.86-.4-1.15-.93-1.15-.58,0-1.19.38-1.19,1.38v2.31h-.93v-6.33h.93v2.66c.29-.54.8-.79,1.41-.79.93,0,1.64.53,1.64,1.62Z"/>
        <path class="cls-1" d="M145,61.87h-3.2c.11.77.56,1.18,1.27,1.18.58,0,.96-.21,1.1-.59l.78.32c-.31.65-.92,1.01-1.88,1.01-1.38,0-2.19-.85-2.19-2.27s.77-2.27,2.13-2.27,2.03.87,2.03,2.14c0,.17-.02.37-.03.48ZM141.81,61.15h2.35c-.09-.73-.5-1.16-1.15-1.16-.69,0-1.1.41-1.2,1.16Z"/>
        <path class="cls-1" d="M153.47,61.49c0,1.53-.83,2.3-2.36,2.3s-2.36-.77-2.36-2.3v-3.55h.94v3.44c0,1.09.45,1.6,1.41,1.6s1.41-.51,1.41-1.6v-3.44h.94v3.55Z"/>
        <path class="cls-1" d="M158.76,60.87v2.83h-.93v-2.53c0-.86-.4-1.15-.93-1.15-.58,0-1.19.37-1.19,1.37v2.31h-.93v-4.37h.83l.04.73c.3-.58.85-.82,1.48-.82.93,0,1.64.53,1.64,1.62Z"/>
        <path class="cls-1" d="M159.84,58.02c0-.37.23-.58.63-.58s.62.21.62.58-.22.59-.62.59-.63-.22-.63-.59ZM160.94,63.7h-.93v-4.37h.93v4.37Z"/>
        <path class="cls-1" d="M166.07,59.34l-1.74,4.37h-1.02l-1.75-4.37h1.03l1.23,3.61,1.27-3.61h.98Z"/>
        <path class="cls-1" d="M170.54,61.87h-3.2c.11.77.56,1.18,1.27,1.18.58,0,.96-.21,1.1-.59l.78.32c-.31.65-.92,1.01-1.88,1.01-1.38,0-2.19-.85-2.19-2.27s.77-2.27,2.13-2.27,2.03.87,2.03,2.14c0,.17-.02.37-.03.48ZM167.35,61.15h2.35c-.09-.73-.5-1.16-1.15-1.16-.69,0-1.1.41-1.2,1.16Z"/>
        <path class="cls-1" d="M174.31,59.34l-.15.86c-.12-.07-.31-.11-.55-.11-.52,0-1.1.42-1.1,1.31v2.31h-.93v-4.37h.79l.09.78c.24-.57.7-.86,1.37-.86.17,0,.36.03.48.09Z"/>
        <path class="cls-1" d="M174.5,62.87l.63-.54c.23.52.74.72,1.35.72s.93-.23.93-.52c0-.27-.25-.43-1.01-.58-1.3-.24-1.76-.62-1.76-1.35s.66-1.35,1.83-1.35c.97,0,1.52.31,1.83.99l-.66.49c-.22-.52-.59-.74-1.16-.74s-.91.26-.91.53c0,.31.25.48,1.07.63,1.25.23,1.69.6,1.69,1.33,0,.77-.7,1.32-1.9,1.32-.85,0-1.58-.28-1.95-.92Z"/>
        <path class="cls-1" d="M179.16,58.02c0-.37.23-.58.63-.58s.62.21.62.58-.22.59-.62.59-.63-.22-.63-.59ZM180.25,63.7h-.93v-4.37h.93v4.37Z"/>
        <path class="cls-1" d="M184.37,63.41c-.28.24-.69.38-1.16.38-.75,0-1.33-.34-1.34-1.24v-2.48h-.83v-.73h.83v-1.02l.93-.26v1.28h1.53v.73h-1.53v2.32c0,.43.25.62.64.62.3,0,.52-.1.71-.28l.22.68Z"/>
        <path class="cls-1" d="M187.09,64.22c-.38,1.01-.83,1.36-1.62,1.36-.45,0-.77-.11-1.03-.35l.27-.72c.2.24.45.31.72.31.32,0,.57-.12.76-.63l.19-.47-.45-1.08-1.36-3.31h1.05l.96,2.74.25.82.3-.9.91-2.66h.97l-1.91,4.88Z"/>
        <path class="cls-1" d="M196.22,61.52c0,1.42-.81,2.27-2.17,2.27s-2.17-.85-2.17-2.27.81-2.27,2.17-2.27,2.17.85,2.17,2.27ZM192.82,61.52c0,.99.45,1.54,1.23,1.54s1.24-.55,1.24-1.54-.45-1.54-1.24-1.54-1.23.55-1.23,1.54Z"/>
        <path class="cls-1" d="M198.43,59.34h1.41v.73h-1.39v3.63h-.93v-3.63h-.82v-.73h.82v-.63c0-.88.56-1.4,1.53-1.4.35,0,.65.08.82.21l-.18.68c-.13-.09-.29-.13-.5-.13-.49,0-.77.21-.77.71v.56Z"/>
        <path class="cls-1" d="M207.74,57.94v5.76h-.94v-2.52h-2.85v2.52h-.93v-5.76h.93v2.45h2.85v-2.45h.94Z"/>
        <path class="cls-1" d="M213.18,61.52c0,1.42-.81,2.27-2.17,2.27s-2.17-.85-2.17-2.27.81-2.27,2.17-2.27,2.17.85,2.17,2.27ZM209.77,61.52c0,.99.45,1.54,1.23,1.54s1.24-.55,1.24-1.54-.45-1.54-1.24-1.54-1.23.55-1.23,1.54Z"/>
        <path class="cls-1" d="M218.2,60.87v2.83h-.93v-2.53c0-.86-.4-1.15-.93-1.15-.58,0-1.19.37-1.19,1.37v2.31h-.93v-4.37h.83l.04.73c.3-.58.85-.82,1.48-.82.93,0,1.64.53,1.64,1.62Z"/>
        <path class="cls-1" d="M223.38,64.14c0,.91-.98,1.44-2.24,1.44-1.44,0-2.08-.47-2.08-1.12,0-.39.28-.71.78-.84-.34-.16-.61-.43-.61-.83,0-.45.27-.73.68-.87-.44-.25-.67-.67-.67-1.2,0-.89.76-1.48,1.89-1.48.33,0,.63.05.88.14.16-.62.57-.99,1.28-.97l.16.72c-.57-.02-.9.15-1.03.45.38.26.6.66.6,1.14,0,.89-.75,1.48-1.9,1.48-.27,0-.51-.03-.72-.08-.3.07-.42.23-.42.48,0,.27.21.42.54.42h1.46c.88,0,1.4.42,1.4,1.12ZM222.58,64.24c0-.28-.18-.45-.76-.45h-1.18c-.53,0-.79.17-.79.46,0,.38.45.62,1.37.62s1.35-.3,1.35-.64ZM220.19,60.72c0,.5.4.83.93.83s.94-.33.94-.83-.4-.82-.94-.82-.93.33-.93.82Z"/>
        <path class="cls-1" d="M228.78,60.92l-.93,1v1.77h-.93v-5.76h.93v2.87l2.65-2.87h1.14l-2.18,2.36,2.24,3.41h-1.1l-1.81-2.78Z"/>
        <path class="cls-1" d="M236.16,61.52c0,1.42-.81,2.27-2.17,2.27s-2.17-.85-2.17-2.27.81-2.27,2.17-2.27,2.17.85,2.17,2.27ZM232.76,61.52c0,.99.45,1.54,1.23,1.54s1.24-.55,1.24-1.54-.45-1.54-1.24-1.54-1.23.55-1.23,1.54Z"/>
        <path class="cls-1" d="M241.18,60.87v2.83h-.93v-2.53c0-.86-.4-1.15-.93-1.15-.58,0-1.19.37-1.19,1.37v2.31h-.93v-4.37h.83l.04.73c.3-.58.85-.82,1.48-.82.93,0,1.64.53,1.64,1.62Z"/>
        <path class="cls-1" d="M246.36,64.14c0,.91-.98,1.44-2.24,1.44-1.44,0-2.08-.47-2.08-1.12,0-.39.28-.71.78-.84-.34-.16-.61-.43-.61-.83,0-.45.27-.73.68-.87-.44-.25-.67-.67-.67-1.2,0-.89.76-1.48,1.89-1.48.33,0,.63.05.88.14.16-.62.57-.99,1.28-.97l.16.72c-.57-.02-.9.15-1.03.45.38.26.6.66.6,1.14,0,.89-.75,1.48-1.9,1.48-.27,0-.51-.03-.72-.08-.3.07-.42.23-.42.48,0,.27.21.42.54.42h1.46c.88,0,1.4.42,1.4,1.12ZM245.56,64.24c0-.28-.18-.45-.76-.45h-1.18c-.53,0-.79.17-.79.46,0,.38.45.62,1.37.62s1.35-.3,1.35-.64ZM243.17,60.72c0,.5.4.83.93.83s.94-.33.94-.83-.4-.82-.94-.82-.93.33-.93.82Z"/>
      </g>
    </g>
    <g>
      <path class="cls-1" d="M105.35,3.18c-9.93-4.01-23.45-2.85-30.01,6.42-.12,0-.24.01-.36.03-10.92,1.14-14.12,11.59-9.06,20.44,3.01,5.26,8.2,9.84,16.62,14.18,0,0-14.35-14.42-8.61-30.52l-.56-.21c-3.58,8.47-1.43,17.64,3.03,25.31-6.18-3.82-11.64-9.79-11.72-17.28-.03-5.98,4.62-10.16,10.43-10.45,8.51-.42,16.36,4.37,22.83,9.49l.72.59,16.68-11.04c-2.79-3.02-6.19-5.47-9.99-6.96ZM92.09,13.71c-4.85-2.43-10.19-4.33-15.68-4.16,8.6-10.55,26.93-8.95,36.1.26l-13.65,7.85c-2.19-1.42-4.43-2.77-6.77-3.94Z"/>
      <path class="cls-1" d="M77.72,64.65c9.93,4.01,23.45,2.85,30.01-6.42.12,0,.24-.01.36-.03,10.92-1.14,14.12-11.59,9.06-20.44-3.01-5.26-8.2-9.84-16.62-14.18,0,0,14.35,14.42,8.61,30.52l.56.21c3.58-8.47,1.43-17.64-3.03-25.31,6.18,3.82,11.64,9.79,11.72,17.28.03,5.98-4.62,10.16-10.43,10.45-8.51.42-16.36-4.37-22.83-9.49l-.72-.59-16.68,11.04c2.79,3.02,6.19,5.47,9.99,6.96ZM90.98,54.12c4.85,2.43,10.19,4.33,15.68,4.16-8.6,10.55-26.93,8.95-36.1-.26l13.65-7.85c2.19,1.42,4.43,2.77,6.77,3.94Z"/>
    </g>
    <g>
      <path class="cls-1" d="M30.67,37.44v.38s.47-.66.81-.93c-.37.06-.81.55-.81.55Z"/>
      <path class="cls-1" d="M30.67,36.46v.4s.33-.57.84-.81c-.3-.04-.84.41-.84.41Z"/>
      <path class="cls-1" d="M30.67,35.55v.31s.51-.55.81-.79c-.38.04-.81.48-.81.48Z"/>
      <path class="cls-1" d="M30.7,34.59v.37s.28-.56.85-.79c-.41-.06-.85.42-.85.42Z"/>
      <path class="cls-1" d="M30.71,33.64c0,.24,0,.29,0,.29,0,0,.46-.48.88-.75-.06-.04-.76.18-.88.46Z"/>
      <path class="cls-1" d="M30.72,33.04s.39-.53.78-.72c-.27-.06-.77.33-.77.33v.39Z"/>
      <path class="cls-1" d="M30.76,31.81v.31s.49-.57.76-.71c-.5.13-.76.4-.76.4Z"/>
      <path class="cls-1" d="M30.72,31.06v.34s.34-.62.87-.87c-.5.09-.87.53-.87.53Z"/>
      <path class="cls-1" d="M30.7,30.19v.33s.36-.54.87-.86c-.47.04-.87.53-.87.53Z"/>
      <path class="cls-1" d="M30.67,29.63s.42-.63.88-.88c-.32-.01-.88.56-.88.56v.32Z"/>
      <path class="cls-1" d="M30.7,28.4v.35s.35-.53.87-.79c-.51.02-.87.44-.87.44Z"/>
      <path class="cls-1" d="M30.67,27.55v.39s.34-.59.93-.88c-.53.12-.93.49-.93.49Z"/>
      <path class="cls-1" d="M31.6,26.14c-.59.12-.93.53-.93.53v.34s.29-.4.93-.87Z"/>
      <path class="cls-1" d="M31.61,25.35c-.49.09-.96.5-.96.5l.02.31s.63-.64.93-.81Z"/>
      <path class="cls-1" d="M28.76,42.64c.22.21.66.63.66.63v-.35s-.18-.26-.66-.28Z"/>
      <path class="cls-1" d="M29.43,42.15v-.41s-.33-.28-.69-.28c.31.28.69.69.69.69Z"/>
      <path class="cls-1" d="M28.78,40.61c.32.29.65.63.65.63v-.34s-.19-.24-.65-.29Z"/>
      <path class="cls-1" d="M29.45,40.4v-.31s-.3-.26-.73-.26c.36.28.73.58.73.58Z"/>
      <path class="cls-1" d="M29.45,39.12s-.26-.33-.78-.29c.44.3.78.6.78.6v-.31Z"/>
      <path class="cls-1" d="M28.62,37.92c.44.2.7.43.82.63,0,0,.01-.29-.01-.36-.02-.07-.37-.39-.81-.27Z"/>
      <path class="cls-1" d="M29.42,37.72v-.29s-.37-.42-.8-.36c.39.25.8.65.8.65Z"/>
      <path class="cls-1" d="M28.62,36.02c.59.39.79.72.79.72v-.37s-.23-.37-.79-.35Z"/>
      <path class="cls-1" d="M29.38,35.28s-.25-.27-.69-.26c.39.24.69.55.69.55v-.29Z"/>
      <path class="cls-1" d="M29.38,34.68v-.27s-.14-.27-.73-.31c.37.25.73.59.73.59Z"/>
      <path class="cls-1" d="M28.68,33.19c.43.29.67.59.67.59v-.29s-.17-.21-.67-.3Z"/>
      <path class="cls-1" d="M29.34,32.89v-.24s-.32-.3-.69-.3c.37.25.69.54.69.54Z"/>
      <path class="cls-1" d="M29.38,32.2v-.37s-.42-.25-.76-.29c.56.37.76.66.76.66Z"/>
      <path class="cls-1" d="M29.3,30.92s-.25-.27-.8-.24c.51.23.8.49.8.49v-.25Z"/>
      <path class="cls-1" d="M29.31,30.31v-.32s-.19-.21-.8-.2c.3.14.71.35.8.53Z"/>
      <path class="cls-1" d="M29.34,29.43v-.36s-.25-.24-.79-.22c.5.35.79.57.79.57Z"/>
      <path class="cls-1" d="M29.29,28.52v-.33s-.44-.2-.78-.19c.44.29.78.53.78.53Z"/>
      <path class="cls-1" d="M29.29,27.24s-.38-.36-.76-.21c.41.18.76.47.76.47v-.25Z"/>
      <path class="cls-1" d="M29.3,26.57v-.33s-.44-.23-.76-.18c.41.14.76.51.76.51Z"/>
      <path class="cls-1" d="M29.24,25.72v-.32s-.18-.27-.74-.26c.43.25.74.59.74.59Z"/>
      <path class="cls-1" d="M21.64,31.94c.16-.21.2-.12.2.11s.07,1.5-.05,1.77c-.12.28.08.38.24.09.16-.29.25-.88.25-2.23,0-.14.3.21.67.35s.5.07.18-.16c-.32-.22-.62-.5-.79-.67v-.59s.51,0,.78-.07c.26-.07.43-.28.09-.28s-.85-.01-.85-.01v-1.01c0-.33-.13-.39-.25-.39s-.29.07-.29.49v.92h-1.27s-.39.71-.46.83.25-.08.47-.17,1.09-.25,1.26-.25c0,0,.07.61-.39,1-.46.38-.76.78-2.12,1.1-.13.03.08.32.54.38.46.07,1.04-.2,1.8-1.21Z"/>
      <path class="cls-1" d="M26.48,29.18h-1.04c.03-.16-.23-.46-.31-.46s-.05.03-.2.47c-.15.44-.83.99-.83.99,0,0-.06.09.09.09.53.01,1.06-.69,1.06-.69h1.1c.14,0,.2.05.14.18-.06.14-.63,1.12-.63,1.12-.29,0-1.19,0-1.48-.01-.28-.02-.35-.12-.43.07-.08.18-.15.44-.15.44.1.16.46-.1.61-.1h.95c.21,0,.23.02.23.02-.19.32-1.01,1.44-2.08,1.95-.51.24-1.12-.19-1.12-.07-.04.3.38.57.96.67.5.08,1.21-.62,1.49-.91.28-.29.35-.15.39-.01.29,1.01.38,1.22.57,1.22h1.23c.16,0,.24-.16.39-.89.15-.73.25-1.05.07-1.14s-1.59-.05-1.59-.05c-.18,0-.24-.04-.17-.12.28-.34.47-.67.47-.67,0,0,1.62,0,1.75-.05.12-.1.28-.55.22-.61s-.31.26-.46.26h-1.29s.65-1.24.74-1.4c.12-.03.18-.1.17-.22-.01-.12-.42-.33-.5-.28-.08.06-.37.21-.37.21ZM25.81,32.5c.07-.08.83-.04.95-.02.12.01.27.1.21.4-.06.3-.14.67-.23.71-.09.05-.62.06-.69.02-.07-.04-.48-.83-.23-1.12Z"/>
      <path class="cls-1" d="M22.87,38.5c-.08-.07-.48.34-.48.34,0,0,.04-.56.04-.69.24-.04.88-.13.89-.28.01-.25-.93-.17-.93-.17,0,0,.04-.63.03-.93,0-.15-.28-.27-.37-.27,0,0-.25.04-.25.25v.96h-.79s.04-.15.03-.3c-.01-.14-.24-.34-.34-.18,0,0-.14.41-.23.72-.08.31-.38.75-.51.94-.13.2-.01.42.27.25s.68-.66.68-.86c.21,0,.93-.06.93-.06l-.03.94s-.79.7-1.74.93c-.25.06-.44.27-.07.49.17.07.72.03,1.36-.51,0,0,.31-.24.37-.24s.01.83.01,1.07.25.18.34-.2c.08-.38.21-1.31.21-1.31,0,0,.77-.68.58-.91Z"/>
      <path class="cls-1" d="M27.48,37.35c-.38.11-1.51.3-2.94.27-.14,0-.04-.25,0-.48.04-.23.06-.68-.24-.68s-.2.25-.2.25c0,0,.06,1.04-.89,1.91-.08.08-.11.32.28.11.43-.23.68-.65.68-.65h.61c.07,0-.49,2.09-2.01,2.39,0,0-.2.08.07.2s1.09-.16,1.53-.7c.44-.53.84-1.43.98-1.91.38-.03.8-.03.8-.03,0,0-.64,2.11-2.05,3.07-.09.06.11.13.56-.03.45-.16,1.27-.91,2.01-3.1,0,0,.73-.13.82-.08.08.04.01.23-.08.52-.1.3-.7,1.76-1.08,2.03-.16.12-.69-.17-.69-.1s.38.55.65.55.61-.25.94-.96c.34-.7.83-1.81.89-2.17s-.24-.55-.62-.44Z"/>
      <path class="cls-1" d="M32.1,29.85s.29.81.01,3.3c-.02.17-.05.37.09.36.24-.01.4-.36.69-.37.29-.01,1.76-.13,1.93-.13s.14.06.16-.66c.02-.72-.01-2.37.08-2.84.09-.46.08-.52-.1-.54-.19-.02-1.74.21-2.24.26s-1.01-.14-1.09.12c-.08.27.21.46.46.5ZM32.7,30.84s1.01-.22,1.78-.21c.07,0,.1.14.09.42s.03.38-.19.41-1.47.16-1.61.18c-.14.02-.12-.13-.1-.4.01-.28-.01-.31.02-.39ZM34.58,32.08c-.01.19.03.49-.13.49s-1.43.07-1.67.14c-.23.07-.01-.08-.05-.66,0,0,.68-.14,1.34-.16.66-.02.51.01.5.2ZM32.88,29.61c.18-.02,1.16-.15,1.48-.15s.23.13.23.49c0,.17-.01.24-.16.24s-1.34.14-1.45.17c-.1.03-.3.07-.3-.08s-.08-.5-.08-.5c.09-.03.09-.15.28-.17Z"/>
      <path class="cls-1" d="M33.75,33.77c-.15-.02-.35-.03-.18.25.17.28.78.6,1.65.21.88-.38,1.65-1.83,1.69-2.12.23,0,1.69-.02,1.69-.02,0,0-.1,1.57.53,2.1.14.12.35.1.28-.17-.07-.26-.33-1.52-.33-2.08s.1-2.68.25-3.06c.15-.38.17-.48-.28-.48s-2.76.33-3.01.33-.33.3-.16.41c0,0-.02.16.12.2.1.1.99,2.08-.18,3.51-.13.16-.88,1.06-2.07.91ZM38.58,31.61c-.28.02-1.57.02-1.57.02,0,0,.03-.73.02-1.04,0,0,1.46-.1,1.57-.18.12-.08-.02.96-.02,1.21ZM38.12,29.06c.53-.03.71-.15.66.18-.05.33,0,.63-.17.68-.16.05-1.44.21-1.72.21-.04-.22-.11-.46-.2-.63-.1-.23-.21-.36-.14-.36,0,0,1.02-.05,1.55-.08Z"/>
      <path class="cls-1" d="M33.36,36.64c-.55.18-.96.05-.96.05-.29,0-.15.44.68.44.26,0,.86-.14.89-.33.03-.19-.01-.36-.61-.17Z"/>
      <path class="cls-1" d="M33.11,38.07c-.57.11-1.19.1-1.19.1,0,0-.49-.01-.39.35.29.55.65.04,1.31-.07.85-.14.87-.11.86-.01-.1.42-.36.75-.88,1.32-.51.57-1.11.47-1.35.37s-.42-.3-.38-.08c.17.9,1.11.74,1.28.71,1.21-.26,1.83-2.39,1.89-2.71.06-.32-.58-.08-1.15.03Z"/>
      <path class="cls-1" d="M39.12,37.39c-.01-.15-.49-.29-1.64-.31-.08,0-.17,0-.25,0,0-.03.02-.25.04-.48.79-.02,1.63-.05,1.72-.07.18-.03.53-.33.25-.33-.13,0-1.03.02-1.92.03,0-.03.01-.06.02-.09.07-.24.22-.47.06-.54-.17-.07-.35.07-.35.07-.09.03-.15.28-.19.57-.76.01-1.41.03-1.41.03-.07.03-.4.4-.24.53.17.13.24-.14.58-.15.12,0,.54-.02,1.02-.03-.01.17-.01.33-.01.45,0,.02.01.03.02.05-.99.1-1.96.4-1.96.4-.15.18.03.53.12.86.08.27.25.61.4.63.37.05,1.67-.06,2.39-.11.72-.06.9-.1,1.06-.28.15-.18.29-1.07.28-1.22ZM36.32,38.53c-.06.18-.5.13-.71.1-.09-.01-.36-.81-.22-.86,0,0,.76-.24.83-.1.07.14.15.68.1.86ZM37.44,38.53c-.1.06-.54.08-.67.08s-.13-.04-.13-.24-.07-.81.11-.86c0,0,.64-.06.71-.04.07.01.03.32.03.58s.04.42-.06.47ZM38.4,38.4c-.14.04-.59.11-.59.06s.03-.97.03-.97c0,0,.34,0,.52,0s.21,0,.21.12-.04.76-.18.8Z"/>
      <path class="cls-1" d="M38.59,40.56c-.92.06-2.73-.89-2.87-.94-.14-.06-.36-.24-.51-.11-.15.13-1.24.95-1.24.95-.1.07-.07.17.06.25.13.08.17.13.32,0,.15-.12.79-.68.9-.78.11-.1.17-.09.28-.04.42.21,2.1,1.15,2.7,1.24.86.13,1.41-.48,1.53-.69.13-.21.04-.39.04-.39,0,0-.59.48-1.21.51Z"/>
      <path class="cls-1" d="M36.86,39.51c-.11.15.1.28.21.21,0,0,.17-.08.35-.06.18.02.28.11.39-.02.11-.13.02-.26-.21-.33-.23-.07-.55-.04-.74.2Z"/>
      <path class="cls-1" d="M39.25,39.69c.17,0,.25-.06.1-.27-.15-.21-.39-.35-.69-.34-.19,0-.16.25-.1.29,0,0,.52.31.69.32Z"/>
      <path class="cls-1" d="M56.98,50.81c-.36-.42-.85-1-1.55-2.01-.53-.75-.83-1.4-1.1-1.98-.49-1.05-.85-1.82-2.1-2.03-1.37-.23-2.54.21-3.56.92,2.42-4.13,4.07-9.3,4.07-15.67V4.13H7v25.91c0,6.52,1.73,11.69,4.06,15.69,0,0,0,0,0-.01-.79-.45-1.72-.68-2.91-.48-1.26.21-1.62.99-2.13,2.06-.27.58-.58,1.24-1.11,1.98-.82,1.16-1.47,1.77-1.94,2.22-.44.42-.76.72-.91,1.19-.32,1.03.55,1.89,2.28,3.62l.09.09c1.83,1.83,7.38,7.4,17.92,9.79,2.61.59,7.31.79,7.51.8.22,0,4.92-.2,7.53-.8,7.14-1.63,13.38-5.07,18.55-10.24,1.69-1.69,2.22-2.76,1.9-3.82-.16-.52-.4-.81-.85-1.34ZM52.24,30.04c0,11.3-5.4,18.83-10.93,23.37-4.56,3.75-9.35,5.37-10.96,5.64l-.06-8c1.43-.21,2.56-1.29,2.69-2.62h12.48v-22.92h-2.56l-1.16-1.09-.13.11s-.91.71-1.72.71c-.69,0-1.5-.33-2.37-.68-1.14-.46-2.43-.98-3.86-.94-1.5.04-2.8.81-3.42,1.26v-2.23h21.99v7.38ZM10.55,49.01c.32.55.98,1.73,1.31,2.67.38,1.09,1.1,1.37,1.6,1.28.58-.1.97-.65.96-1.34-.01-.51-.15-1.12-.46-1.76.22.27.45.52.67.78,0,0,0,0,0,0,.32.86.27,1.62-.17,2.1-.47.5-1.5,1.44-1.83,1.74-1.56-1.09-2.85-2.24-3.74-3.34.18-.23,1.34-1.7,1.67-2.12ZM8.57,50.72c-.69-.93-1.08-1.81-1.08-2.57,0-.04,0-.07,0-.11.03-.65.24-1.07.64-1.27.9-.45,2.57.32,2.91.56,2.08,1.43,2.85,3.16,2.87,4.29.01.51-.27.79-.55.84-.31.06-.78-.16-1.05-.95-.45-1.31-1.49-3-1.54-3.07l-.19-.3s-1.72,2.18-2.03,2.58ZM14.82,53.07c.41-.44.56-1.03.49-1.71,0,0,0,0,0,0,.55.58,1.1,1.11,1.64,1.6,5.26,4.74,11.08,6.74,12.99,6.74,1.1,0,6.56-2.06,10-4.52,1.57-1.12,3.17-2.48,4.68-4.08-.04.65.16,1.25.61,1.73.47.51,1.49,1.32,1.89,1.64-1.9,1.33-4.16,2.6-6.6,3.63-2.31.98-6.71,1.97-10.65,1.97-3.69,0-7.16-.66-10.61-2.03-2.27-.9-4.4-2.04-6.21-3.27.4-.36,1.32-1.21,1.77-1.69ZM27.05,21.18c-.64-.06-.66-.7-.26-.97.39-.26,1.07-.33,1.32-.62,0,0-1.16.17-1.59.49-.14.1-.72-.13-.58-.67.13-.54.18-.57.25-.63.07-.06.56-.17,1.64.1,1.08.26,3.24-.05,4.39-.37.93-.26,1.24-.33,1.24-.33,0,0-1.34-.66-1.51-1.61-.18-.95-.1-1.49-.1-1.49,0,0,1.35-.81,3.4-.36.32.13.43.21.43.21,0,0-.15,1.04.02,1.41.18.37.92,1.04,1.43,1.48.48.41.67.82-.01,1.51,0,0-.18.72-.7,1.11-.06-.84-.63-.61-1.08-1.22,0,0,.31.91-.67,1.7-.13-1.03-.69-.76-.91-1.62,0,0-.04,1-.18,1.16s-.55.51-.82.63c-.44-.8-.68-.8-.93-1.33,0,.75-.15,1.14-.98,1.47-.24-.82-.51-.46-.62-1.31,0,0-.23.47-.08.97.06.21-.17.51-.35.51,0,0-.33-.79-.89-.13-.2.04-.3-.68.14-1.31-.38.36-1.36,1.29-2,1.23ZM26.58,21.26c-.31.34-.32.38-.32.39,0,0-.22-.49.01-.77,0,0,.19.33.31.38ZM26.92,18.3c-.2-.38-.69-.43-.69-.43.47-.36,1.13-.06,1.13-.06,0,0-.18.1-.44.49ZM27.86,18.01c.48,0,1,.68,1,.68,0,0-.44-.01-.79-.06-.35-.05-.87-.14-.87-.14-.1-.16.18-.48.65-.48ZM22.61,18.55c.18.67-.31,1.07-.74,1.12.03.7-.5.83-.5.83,0,0-.03-.64-.26-.76.21.87-.72,1.45-1.13,1.54.16-1.29-.37-1.4-.37-1.4,0,0,.18.38.04.72-.23.55-1.19.95-1.19.95,0,0-.21.07-.04-.29.17-.35-.01-.86-.31-1.02.13.85-.66,1.13-.86,1.16-.2.03-.44.12-.44.12,0,0-.03-.1.08-.26.1-.16.14-.73-.03-1.04-.07.78-.52,1.07-.81,1.23s-.7.14-.7.14c0,0,.12-.25.26-.57.14-.33-.13-.74-.25-.95-.14,1.11-1.45,1.25-1.45,1.25,0,0,.12-.22.13-.42.03-.43.26-.77.26-.77,0,0-.29-.04-.52-.16.18.35-.05.86-.3.96-.17-.38-.73-.39-.94-.27-.26-.42.17-.87.47-1.04-.4-.09-.68.2-.93.5-.25.3-1.11.55-1.36.5-.25-.05-.4-.34-.51-.68-.1-.34-.13-.4.36-.6.5-.2,1.5-.33,1.5-.33-.62-.18-1.64.06-1.86.1-.22.04-.3-.09-.57-.4-.27-.31-.06-.61.31-.93.64.46,2.23.78,2.37.82,3.34.87,5.28-.41,5.57-.68.16.1.57.88.37,1.56.48-.55,1.09-1.15,1.05-2.38.51.61.03,1.64.12,1.56,1.62-1.31,1.12-2.68,1.17-2.68.63.3.35,1.02.35,1.02,0,0,.51-.38.61-.91.59-.45.61-.87.62-1.39.32-.33.3-.58.2-1.23.46-.51.3-1.2.4-1.18,3.97.82,6.08.3,6.3.25,4.2-.94,6.44-1.05,7.75-1.03.23,0,1.84.27,3.42.5,1.29.18,2.6.33,2.7.33,1.96.11,3.6-.43,3.15-1.66-.14-.38-.5-.64-.84-.83-.92-.51-2.24-.47-2.7-.47-1.7-.01-4.11.63-5.03.64.33-.17.88-.59.88-.59,0,0-.41.06-.52.06s-.25-.1-.57-.32c-.32-.22-.97-.89-.97-.89,0,0,.53.11.91.11.25.09.81.5,1.19.64-.2-.25-.38-.79-.38-.79,0,0,.25-.09.57-.26.27-.01,1.22.6,1.64.91-.17-.38-.29-1.3.06-1.76.21.37.71.72,1.25.95.55.24.63.55.61.36-.03-.19-.12-.94.22-1.12.2.69.92,1.13,1.34,1.3-.16-1.24.52-1.6.52-1.6,0,0-.11.36-.09.56.1.91.64,1.32,1.33,1.57-.16-.56.13-1.43.46-1.65.71-.46.97-.32.97-.32-.02.03-.59.55-.72,1.25-.07.4.04.86.51,1.64-.06-.91.55-1.25.83-1.45s1.69-.45,1.93-.6c-.09.4-.27.38-.81.69-.53.31-.99.41-1.05,1.43-.07,1.16.23.9-.76,1.98,1.29-1.32,2.45-1.06,2.64-.98,1.19.48,1.43.34,1.76.25-.51.98-.91.74-1.85.68-.94-.06-1.12.12-2.47.94-1.35.82-3.27.67-4.4.6s-2.19-.38-2.12-.29c1.18,1.42,3.34,1.72,3.72,1.72.97,0,2.85-.7,2.99-.76,1.22-.5,1.69-.14,1.97.29.69-.39,1.41.6,1.41.6,0,0-.16.02-.3.09-.14.07-.07.2-.6.23.98.32,1.17,1.27,1.36,1.52.2.25.17.23-.07.24-.25,0-.89-.55-.89-.55,0,0,.7.83.89.97.19.14.07.48,0,.79-.5-.57-.87-.46-.87-.46.93.67.56,1.28.56,1.28-.41.06-.63.5-.63.5,0,0-.08.03-.36-.17s-.21-.68-.21-.68c-.12.18-.13.41-.14.86,0,.27-.02,1.17-.68,1.11-.66-.06-.55-.59-.55-.59,0-.23.27-.94.21-.89-.09.09-.57.53-.48,1.32-.16.22-.45.33-.45.33-.59.08-.73-.37-.86-.71-.13-.34-.33-.21-.38-.34-.05-.13.37-.3.52-.38,1.04-.52,1.36-1.12,1.4-1.36.04-.23.14-.89-.77-1.45-.91-.56-2.34-.34-3.6-.18-1.88.24-2.92.33-4.36.2-1.43-.13-2.19-.65-2.71-1.11-.52-.46-.61-1.6-.73-1.79-.2-.21-1.25-.18-1.25-.18,0,0,.42.12.68.23.26.12.31.01.33.29.01.27-.13.17-.34.09-.84-.31-1.89-.32-3.25.09-.82.25-3.33,1.5-5,2.31-1.65.8-1.96,1.04-3.55,1.09-.95.03-1.24-.57-1.51-1.13-.04.68.44,1.13.63,1.8ZM12.64,20.83c.51-.05.57.26.57.26,0,0-.17.38-.68.47.14-.17.11-.73.11-.73ZM10.47,16.96c-.17-.07-.57-.09-.57-.09.42-.37.94-.21.94-.21,0,0-.22.13-.37.3ZM11,16.87c.34-.17.52.21.77.6.25.39.6.85.39.78s-1.4-.4-1.4-.4c-.3-.52-.1-.81.23-.98ZM14.89,17.28c-.61.58-1.47.36-1.47.36,0,0,.1-.09.23-.54.13-.45.47-.7.47-.7-.48.12-.47.39-.76.39-.59,0-.84-.26-.84-.26l.25-.41c.25-.41.47-.48.47-.48-.25-.1-.54.14-.9.19-.68.09-.99-.33-.99-.33,0,0,.26-.19.44-.47.17-.28.55-.28.55-.28,0,0-.17-.06-.74-.06s-.81-.22-1.03-.57c.16-.23,1-.2.92-.25-.09-.04-1.42-.55-1.57-.93.6-.31,1.34-.16,1.34-.16-.15-.22-.48-.3-.35-.7.47-.41.33-.73.33-.73,0,0-.19.36-.51.48s-.61-.08-.51-.17c.41-.38.01-.84-.03-.9s-.38-.1-.09-.29c.29-.19.99.23.99.23,0,0-.25-.33-.67-.49-.42-.16-.62-.84-.65-1.09s.48-.6.74-.55c.33.06.32.44.54.84.17.32.41.64.41.64.15.19.28.12,0-.36-.59-1.03-.39-2.17-.06-2.4.52-.36,1.01.11.93.89-.1,1.03.26,2.5.33,2.72.94,2.95,2.63,3.58,3.33,3.84,0,.19.15.48.15.48.09.15-.38-.19-.58-.15.25.31.28.65.13.83-.15.17-.57.33-.84.19-.28-.15-.5-.15-.39-.07,1.66,1.18,2.91,1.28,3.05,1.31s.26.32.26.32c0,0-.12.17-.6.42-1.09-.68-2.09-.13-2.41,0-.03-.16.17-.44.22-.6.04-.16.1-.41.1-.41l-.17.2ZM10.03,11.41c-.18.3-.91-.39-.86-.61,0,0,.43.18.59.12.16-.07.45.18.26.49ZM9.66,8.59s-.37-.3-.66-.45c0,0,.59-.18.96.21-.14.13-.3.24-.3.24ZM10.86,6.06c1,.2,1.04.96,1.04.96-.19-.05-.47.01-.47.01,0,0-.24-.68-.56-.97ZM13.05,7.57c.54.27.33.93.04,1.47-.29.54-.29.91-.29.91-.24-.07-.23-2.04-.23-2.04,0-.16.33-.42.49-.34ZM12.72,6.58c.54.32.64.94.55.87-.09-.07-.36-.14-.36-.14.02-.22-.13-.57-.19-.74ZM15.72,13.04c-.2-1.13.64-1.78.9-2.04-.43.05-.88.41-.88.41,0,0-.03-.85.68-1.08.11.36.5.79.97.85-.11.24-.31.81-.33,1.16-.08,1.79,1.41,1.79,1.41,1.79,0,0,.22.24.06,1.17.73-.22,1.03-1.03,1.03-1.03,2.12-.23,1.74-2.34,1.74-2.34,0,0,.36.11.81-.18.66.59.1,1.61.1,1.61,0,0-.11-.24-.7-.24,1.15.4.6,1.42.6,1.42,0,0-.1-.35-.72-.58.71.55.59,1.35.25,1.66-.02-.2-.23-.85-.94-.93.83.4.76,1.36.49,1.56-.02-.26-.49-.61-.81-.74s-.6-.56-.6-.56c0,0,0,.34.45.75.31.55.18,1.67-.32,2.08.04-.41-.25-1.05-.93-1.65-.68-.6-.95-1.2-.95-1.2,0,0,.13.52.25.68,1.24,1.69.62,2.66.27,2.95-.04-.56-.72-1.4-1.61-2.25-.89-.85-.21-2.04-.21-2.04,0,0-.25.09-.44.76-.15-.21-.09-.72-.02-.99.25-.37.5-.9.49-1.14-.16.34-.51.77-.64.85-.02-.07-.05-.24.02-.59.06-.35.65-.9.5-1.37-.04.55-.43.76-.92,1.23ZM16.71,7.41c.22-.02.67.1,1.04.34-.14-.24.02-.8.27-1.14.29.34.31.58.53.82-.08-.77.29-1.04.56-1.57,0,.14.24.63.43,1.31,0-.53.34-.83.6-1.24,0,.29.24.55.34,1.45.09-.48.31-.44.55-.94.43.43.27.97.32,1.47.15-.36.63-.6.63-.6,0,0-.05.41.07.92.72-.56,1.19-.17,1.19-.17,0,0-.02.26-.2,1.11-.19.85-.27.8-.75.99.43.26.2,1.14-.14,1.41-.34.27-.94.09-1.18-.02.73,2.44-1.36,2.52-1.36,2.52l.05-.27c1.93-.44.94-2.39.94-2.39.23.58.11,1.06-.49,1.12s-.67-.38-.72-.61c-.05-.22.95-.53.95-.53v-1.1s.35.19.73.15c.38-.04.99-.58.99-.99.15,0,.38-.29.51-.62.12-.33.33-.43.33-.43,0,0-.15-.05-.36.07-.21.12-.35.77-.56.74-.46-.11-1.08-.05-1.25.06s-.3.07-.46-.04c-.16-.11-.3-.98-.3-.98,0,0-.06.48.02,1.2.09.72.1,1.53.1,1.53,0,0-.51-.29-.83-.09.26.01.71.14.74.33-.14.06-.64.35-.64.35,0-.19-.52-.64-.52-.64.42-1.91.58-2.28.55-2.78-.05.25-.35.72-.35.72,0,0-.07.01-.28,0-.19-.19-.79-.38-1.07-.37-.17,0-.32.05-.34-.26-.02-.31-.1-.37-.27-.58-.02.12.17.22.12.37-.07.36-.02.51.29.67-.09,1.29,1.33,1.33,1.33,1.33,0,0-.1.2-.27.94.38.24.68.78.68.78,0,0-.29.51-.68.43-1.07-.22-.68-1.01-.44-1.36-1.67.51-1.67-1.19-1.12-1.62-.77-.19-.17-1.19-.29-1.81ZM19.42,13.61c.04.46-.26,1.14-.62,1.4-.02-.68-.3-1.71-.24-2.16.04-.32.05-.38.05-.38l.35-.24s-.04.46-.04.83.09.52.06.78c.09-.31.08-.96.12-1.26.03-.16.06-.35.06-.35l.25.29s-.04.63,0,1.09ZM20.9,9.98c.56.05.52-.62.52-.62,0,0,.3-.04.5.07-.05.37-.52.63-.88.73-.36.1-.77-.16-.77-.16l-.07-.52.3.04c.03.15.15.44.41.46ZM20.74,9.59c0-.07.05-.12.12-.12s.12.05.12.12-.05.12-.12.12-.12-.05-.12-.12ZM18.19,9.37c.41.22.58-.27.58-.27l.35-.02-.24.79c-1.3-.14-1.15-1.16-1.15-1.16l.23.04s-.17.4.24.62ZM18.05,9.03c0-.06.04-.1.1-.1s.1.04.1.1-.04.1-.1.1-.1-.04-.1-.1ZM18.28,13.51s0,.05.1.39c-1.79-.39-.8-2.59-.8-2.59.12-.17.05.31.15.68-.29,1.24.55,1.52.55,1.52ZM32.41,9.11c-.23-.17-.91-.07-2.22.12.6.18.93.64.93.64-3.01.66-4.78.55-4.98-.38-.2-.93,1.21-1.3,1.47-1.36,3.51-.79,5.41.41,5.41.41-.45.03-.76-.17-.76-.17,0,0-.1.21.15.73ZM33.02,8.18c-1.1-.63-2.49-.72-3.35-.68-.86.04-1.59.18-2.24.34-1.4.33-1.68,1.2-1.61,1.66.18,1.17,2.18,1.14,2.65,1.1,1.84-.17,3.14-.48,3.34-.57-.19-.13-.81-.6-.81-.6,0,0,.73-.1,1.23-.07.5.03.84.38.84.38.02-.3-.45-.63-.45-.9,1.25.06,1.46.4,2.38.9.92.51,2.21.37,2.21.37-.55.16-6.24,1.19-7.4,1.38-1.16.18-2.89.25-4.25-.68-1.36-.93-.56-2.38-.46-2.51,1.19-1.74,3.87-1.69,4.43-1.72,2.99-.18,3.11-.93,3.44-1.3.39.6-.64,1.61-.64,1.61,1.46-1.1,3.75-.43,3.84-.42,1.72.25,2.84-.23,3.1-.32,1.07-.39,1.87-.29,1.95-.03-.46.06-.89.43-1.3.74-.4.3-1.25.97-2.28,1.14-1.02.17-1.26.07-2.49-.18.68.29,1.73,1.36,2.37,1.91-.67.24-1.61.1-2.18-.14-.57-.24-1.22-.79-2.32-1.42ZM39.85,8.3l-.71-.4.86-.58-.08.3-.07.23-.03.23.03.21ZM37.86,8.38v.07l-.04.03-.07-.02-.02-.07.04-.03h.06s.03.03.03.03ZM50.72,19.68c.01.32-.2.83-.25.7-.08-.22-.32-.45-.32-.45-.06-.09.07-.14.19-.26.19-.21.37-.15.38.02ZM48.55,21.37c-.07.13-.09.62-.09.62-.32-.11-.5-.64-.52-.84-.02-.21.12-.1.26-.05.29.1.46.07.35.28ZM46.34,20.86c-.35.15-.67.5-.67.5-.09-.3.02-.68.26-1.03.25-.35.5.49.4.53ZM45.97,18.86c.19-.11.85.36.79.39-.3.1-.81.5-.81.5-.45-.27-.16-.79.02-.9ZM29.55,21.41c-.01.25-.24.56-.24.56,0,0-.36-.31-.29-.57.07-.26.54-.24.52.01ZM29.78,21.65c.88-.4.38-1.07.46-.99.63.58.15,1.14.15,1.14.2,0,.32-.18.53-.26.5-.2.78-.56,1.16-.98.38.23.35,1.11.35,1.11,0,0,.12-.2.43-.31.91-.45,1.06-.76,1.07-1.27.33.31.58.71.33,1.36,1.24-.48,1.41-1.54,1.41-1.54.24-.04.52.25.38,1.07,1.06-.61,1.15-1.36,1.29-1.49,1.01-.89.35-1.69-.43-2.23-.78-.55-1.31-1.37-.93-1.98.53,1.26,2.2,1.72,2.2,1.72,2,.88,5.71-.18,7.67-.08,2.88.15,1.74,2.07,1.29,2.07s-.66-.5-1.22-.31c-1.11-.03-1.6.76-1.75,1.37,1.01-.66,1.89-.23,1.57.05-.55.89-.3,1.41,0,1.77-.05-.31.41-.64.84-.73.55.43.79.21,1.11.05.1.49.41.81.65,1h-18.91c.05-.1.18-.35.36-.52ZM45.61,18.96c-.14.16-.04.49-.18.46-.14-.03-.81.11-.81.11.28-.57,1.12-.73.98-.57ZM42.34,25.52c.6.56,1.43,1.34,1.5,1.41,0,.15.08,16.24.1,19.52-.65-.84-1.87-2.44-1.94-2.53v-18.72c.1.09.22.2.34.32h0,0ZM43.75,47.02h-11.67s0-.02,0-.03h-.02c-.04-.18-.12-.48-.33-.81-.29-.45-.87-1.04-1.13-1.17.67-.51,1.96-1.33,3.36-1.33,1.11,0,2.22.42,3.2.8.84.32,1.56.59,2.19.59,1.06,0,1.96-.49,2.35-.74l2.06,2.68ZM41.5,43.87c-.28.19-1.15.71-2.16.71-.54,0-1.26-.27-2.01-.56-1.02-.39-2.17-.83-3.38-.83-1.59,0-2.99.9-3.69,1.45v-19.26c.44-.34,1.84-1.31,3.43-1.36,1.34-.04,2.59.47,3.7.92.9.36,1.74.7,2.51.7.61,0,1.22-.31,1.6-.54v18.77ZM31.47,46.98s-.01.03-.02.04h-.4l.21.4c.07.13.17.31.17.48,0,.71-.4,1.2-1.21,1.2s-1.42-.49-1.42-1.2c0-.26.12-.8.28-.88,0,0-.2-1.1,1.09-1.27.76-.1,1.44.93,1.28,1.23ZM29.76,44.75c-.63-.5-2.01-1.46-3.25-1.46-.85,0-2.03.35-3.18.7-1.01.3-2.05.61-2.79.66-1.22.07-1.88-.34-2.08-.5v-19.04c.48.26,1.46.72,2.42.77.65.03,1.57-.32,2.64-.73,1.12-.43,2.39-.92,3.35-.92,1.52,0,2.6.92,2.89,1.19v19.34ZM20.57,45.14c.8-.05,1.87-.37,2.9-.68,1.11-.33,2.26-.68,3.03-.68,1.06,0,2.33.88,2.93,1.34-.1.05-.2.11-.28.19-.42.4-.99,1.55-1.06,1.7h-11.81s.02-.02.03-.03h-.06c.5-.49,1.49-1.45,2.04-2.35.36.23,1.1.58,2.29.51ZM17.96,44.2c-.49.9-1.56,2-2.06,2.5-.01-2.52-.1-18.89-.1-19.03.08-.09,1.5-1.61,2.16-2.32v18.85ZM15.4,27.51l.1,19.91h12.7c-.07.14-.23.38-.23.57,0,.93.97,1.6,2,1.6s1.87-.76,1.87-1.69c0-.18-.06-.35-.13-.49h12.63l-.1-20.66-.9-.84h1.66v21.97h-12.48s.09.24.1.35c-.05,1.41-1.3,2.38-2.82,2.38s-2.79-1.02-2.82-2.38v-.35h-12.02v-21.97h1.93l-1.48,1.59ZM45.59,52.48c-.51-.55-.61-1.29-.31-2.12.12-.14.25-.28.37-.42-.14.41-.2.82-.15,1.2.09.79.51,1.31,1.13,1.4.82.13,1.79-.5,2.2-1.42.5-1.1,1.25-1.86,1.59-2.17.23.27,1,1.19,1.17,1.39-.91,1.23-2.32,2.54-4.05,3.81-.23-.18-1.45-1.13-1.95-1.67ZM50.49,48.27l-.19.14s-1.21.95-1.92,2.52c-.32.7-1.08,1.22-1.68,1.13-.51-.08-.67-.57-.72-.97-.14-1.19.91-2.68,2.8-3.99.43-.29,2.44-1.27,3.41-.79.36.18.55.55.58,1.13,0,.04,0,.07,0,.11,0,.71-.32,1.52-.89,2.38-.29-.34-1.4-1.66-1.4-1.66ZM7.5,4.62h44.74v17.54h-3.59c0-.24,0-.62.15-.8.73-.61.56-1.06.74-1.55.38.31.53.35.94.99.41-.58.43-1.06.41-1.21-.02-.15.03-.17.03-.41s-.03-.45.25-.31c-.08-.3.2-.86,0-1.26-.07-.15.08-.15.41-.28-.43-.25-.69-1.09-.81-1.36-.12-.26-.43-.41-.43-.41,0,0,.07-.15.64-.25-.33-.38-.76-1.12-1.79-1.14-.45-1.31-3.51.53-4.99.51-1.49-.02-2.92-.91-2.73-.89,3.13.36,4.88.05,5.74-.55,1.76-1.22,2.15-.71,3.01-.76,1.32-.08,1.45-1.65,1.45-1.65,0,0-.08.12-.58.35-.5.23-1.27-.41-2.27-.36-.48.02-.93.38-.89.18.15-1.06-.31-1.4.94-2.07,1.26-.66.99-1.77.99-1.77,0,0-.2.78-1.49.94-1.29.16-1.79,1.09-1.79,1.09-.35-1.32.5-1.72.94-2.18-1.41-.16-2.15.36-2.4,1.64-.91-.56-.74-1.37-.4-2.02-1.11.18-1.39,1.55-1.39,1.55-.86-.55-.78-1.49-.78-1.49-.15.15-.52.5-.73,1.21-.63-.23-1.17-.61-1.37-1.03.18-.36.96-.84,1.54-.28-1.22-1.82-2.98-.66-3.95-.45s-2-.05-2.81-.15c-.81-.1-1.44-.1-2.07.17.02-.15.38-.58-.28-1.44-.42.96-1.16,1.26-2.66,1.46-.61.08-1.24.06-2.2.18-3.31.41-3.71,2.43-3.67,2.79.17,1.74,1.19,2.35,2.98,2.7,1.79.35,4.35-.4,6.1-.73,1.75-.33,6.32-1.2,7.62-1.34,2.91-.31,4.63.25,4.7,1.26.07,1.01-1.44.99-2.89.94-1.45-.05-6.12-.93-7.52-.86-1.41.07-5.85,1.14-7.84,1.27-1.98.13-4.61-.44-4.91-.48-.07-.06-.16-.2-.19-.26.51-.63.34-1.02.28-1.37.68-.39.6-1.13.64-1.49.04-.35.33-.68.33-.68,0,0-.08-.14-.42-.37-.34-.24-1.05.03-1.05.03,0,0-.05-.53-.04-.85-.09.08-.42.24-.6.32,0-.28-.25-.64-.38-.84s-.03-.36-.11-.28c-.09.08-.35.39-.48.58-.03-.12-.18-.56-.26-.77-.08-.2-.11-.63-.11-.63,0,0,.02.15-.18.43-.21.28-.52.53-.52.53-.13-.12-.2-.52-.2-.73-.51.24-.84.71-.97,1.22-.25-.17-.36-.57-.36-.57,0,0-.08.14-.13.28-.08.2-.32.23-.35.79-.17-.13-.53-.2-.68-.17s-.73.24-.5.39c.23.15.18.21.09.7-.1.49-.08.84.16,1.19-.08.14-.13.29-.2.69-.63.26-.81.95-.87,1.37-.06.42.23.26.12.48-.11.22-.22,1.28.03,1.67-.04-.11.15-.34.27-.44-.01.19-.06.51-.05.79.02.28.29-.06.22.1-.07.17-.07.38-.07.38-2-.84-2.75-2.56-2.93-3.01-.18-.45-.45-1.08.05-1.97.5-.89.63-1.36.45-1.82-.31-1.44-1.37-1.49-1.37-1.49,0,0,.23.33.35.66.12.33.03.5-.1.61,0-.08-.1-.38-.28-.4-.43-1.32-1.44-1.27-1.93-1.12.43.33.59.46.89,1.21-.51.46-.45,1.24-.45,1.24,0,0-.1,0-.48-.1-.71-.69-1.44-.33-1.93-.07.66.05.78.33,1.19.58-.21.99.45,1.46.45,1.46,0,0-.21.13-.3.36-.23.05-.43.1-.91-.3.1.93.53,1.14,1.04,1.46.45.55.74.43.74.43,0,0,0,.03-.03.17-.25.1-.89.5-1.39.61.63.21,1.01.64,1.36.84-.09,0-.61.09-.66.1.01,0,.07.02.28.25.53.69.86.86,1.27.91-.05.3-.3.36-.43.58.12.18.84.5,1.42.56.02.26-.31.45-.31.45,0,0,.07.02.21.05.56.46,1.06.38,1.06.38,0,0-.03.48-.25.71.53.36,1.47.15,1.47.15,0,0-.02.05-.12.43.46-.08,1.72-.6,2.41-.1-.55.26-1.27.35-2.51.35s-1.74-.33-1.74-.33c-.35-.33-.79-1.65-1.41-1.67-1.03-.55-1.6.2-1.75.68.3-.43.94-.12.94-.12l.03.55c-1.32-.31-2.05.38-2.13,1.32.36-.36.66-.5,1.03-.46.2.78.76.84.74.93-.99.68-.83,1.34-.63,1.95.12-.56.58-.74.83-.91.71.76,1.72.08,1.9-.12-.03.17.18.35.18.35.05.18.18.48-.07,1.06.74-.08,1.52-.79,1.52-.79,0,0-.03.15-.26.55,1.04.15,1.8-.65,1.8-.65,0,0,0,.33-.38.73,1.03.41,1.74-.36,1.74-.36,0,0,0,.08-.18.43.98.21,1.72-.55,1.72-.55,0,0-.13.31-.28.68,1.24,0,1.79-.78,1.79-.78,0,0,.15.18-.17.64.74-.15,1.36-.69,1.47-.78.12-.08.08.22.08.22.6-.6.94-.62,1.06-1.19,1.02-.46.79-1.27.51-1.84.08.02,1.32.07,1.59.07.68,0,2.18-.72,3.69-1.44,1.48-.71,2.97-1.43,3.16-1.52.38-.18.59-.26.5-.12-.15.61.05,1.79.36,2.26.31.48.73.66.6.69-.68.26-2.27.55-3.11.61-.28-.12-1.31-1.06-1.82-.96-.99-.6-1.97.17-2.1.43.74-.2,1.22.07,1.29.28-.41-.08-.91.18-.91.18-.88.13-1.17.99-1.26,1.57.25-.46.58-.43,1.04-.41.25.61.64.56.64.56,0,0,.08.05-.05.16-.43.41-.45,1.12.02,1.59-.07-.2.33-.6.48-.71.76.35,1.75-.66,1.75-.66,0,0,0,.33.12.56.23.45.58.77.71.88H7.5V4.62ZM9.29,18.29c.03.14-.09-.09-.64.09,0,0,.29-.56.76-.48.05.09-.14.25-.12.39ZM10.16,20.32s-.55.34-.73.42c.04-.47.47-.93.47-.93.08-.03.26.51.26.51ZM25.7,19.52s-.21-.07-.68.06c0,0,.21-.58.75-.72-.1.39-.07.66-.07.66ZM7.5,30.04v-7.38h22.26v2.23c-.5-.41-1.52-1.06-2.89-1.06-1.04,0-2.34.5-3.5.95-.99.38-1.92.74-2.48.71-1.22-.06-2.54-.89-2.55-.9l-.14-.09-.24.26h-.01s-.7.77-.7.77h-2.83v22.92h12.19c.15,1.48,1.53,2.66,3.19,2.66v8.09c-4.27-.31-22.3-8.37-22.3-29.13ZM55.58,55.62c-5.1,5.1-11.26,8.5-18.31,10.1-2.56.58-7.37.78-7.42.78-.03,0-4.84-.2-7.4-.78-10.39-2.37-15.88-7.86-17.68-9.66l-.09-.09c-1.69-1.69-2.37-2.41-2.15-3.12.11-.35.36-.58.77-.97.49-.46,1.16-1.09,2-2.3.55-.78.88-1.48,1.15-2.05.48-1.01.76-1.61,1.76-1.78,1.55-.26,2.59.26,3.51,1.11.19.3.38.59.58.87-.29-.27-.62-.53-.99-.78-.3-.21-2.2-1.19-3.41-.6-.57.28-.88.85-.92,1.69-.16,3.08,5.26,7.77,12.08,10.47,3.51,1.39,7.04,2.07,10.8,2.07,4,0,8.48-1.01,10.84-2.01,6.31-2.67,12.73-7.56,12.56-11.12-.04-.77-.32-1.29-.85-1.55-1.29-.64-3.55.57-3.91.82-.33.23-.63.46-.92.7.08-.12.16-.24.24-.36,1.18-1.14,2.58-2.05,4.3-1.75.99.17,1.26.73,1.73,1.75.27.57.6,1.27,1.15,2.06.72,1.02,1.22,1.61,1.58,2.04.43.51.62.74.75,1.16.19.62.11,1.44-1.77,3.32Z"/>
      <path class="cls-1" d="M21.55,18.19s.38.08.42.27c.04.2.11.39-.51.74,0,0,.46.06.6-.19.14-.25.16-.5-.01-.69-.17-.19-.49-.13-.49-.13Z"/>
      <path class="cls-1" d="M48.29,14.98c.23.08.34.45.29.55,0,0,.24-.29.08-.52-.17-.23-.29-.42-.85-.31-.3.16-.42.57-.42.57,0,0,.41-.46.9-.28Z"/>
      <path class="cls-1" d="M36.11,18.83c.55.2.95-.35.77-.71-.18-.36-.68-.52-.68-.52,0,0,1.08.62-.09,1.23Z"/>
      <path class="cls-1" d="M30.73,43.03v.38c.09-.16.66-.7.87-.84-.48-.06-.87.45-.87.45Z"/>
      <path class="cls-1" d="M31.57,41.54c-.48-.06-.87.45-.87.45v.38c.09-.16.66-.7.87-.84Z"/>
      <path class="cls-1" d="M31.43,40.9c-.48-.06-.74.31-.74.31v.38c.09-.16.53-.56.74-.7Z"/>
      <polygon class="cls-1" points="30.72 40.6 30.96 40.3 30.81 40.14 30.72 40.19 30.72 40.6"/>
      <path class="cls-1" d="M31.3,39.87l.19-.21s-.21.04-.39.22h.19Z"/>
      <path class="cls-1" d="M31.47,38.87c-.35-.08-.81.46-.81.46v.51s.49-.84.81-.98Z"/>
      <path class="cls-1" d="M6.61,52.42c-.02-.3.17-.81.67-.55.5.26.54,1.02.54,1.02h.73s.07-.15-.29-.14c-.05-.36-.31-.83-1.08-1.11-.15-.05-.97-.18-1.08.52-.02.12-.02,1.6-.08,2.02-.04.24-.19.84-.51.86-.32.02-.74-.27-.77-1.46l-.95.06s.04.12.38.12c0,0-.01,1.05.93,1.41.15.06.87.12,1.17-.21.3-.33.43-.98.35-2.55Z"/>
      <path class="cls-1" d="M9.83,54.02l-.42-.33s-2.88,1.85-3.17,2.04c-.07.04-.26.03-.4-.02-.1-.04-.1.02-.06.06.05.05.61.6.68.65.06.05.09,0,.06-.05-.03-.04-.18-.21-.04-.32.06-.05.51-.34,1.06-.7l.83.75-.48,1.22c-.05.1-.33-.03-.33-.03,0,0-.1,0-.03.07.22.21.74.64.78.68.06.05.12-.02.06-.07-.07-.07-.12-.19.11-.71.24-.55,1.36-3.23,1.36-3.23ZM7.75,55.2c.69-.46,1.4-.92,1.4-.92l-.67,1.55-.73-.63Z"/>
      <path class="cls-1" d="M26.67,64.8c-.23-.72-.88-3.47-.88-3.47l-.4-.04s-1.54,2.99-1.71,3.31c-.04.07-.21.15-.35.18-.11.02-.08.07-.02.08.07.02.89.12.97.13.08.01.08-.05.03-.07-.05-.02-.25-.18-.18-.35.03-.07.3-.53.46-.79l1.24.05.36,1.25c.02.1-.28.18-.28.18,0,0-.08.07.02.07.3.03,1,.07,1.06.08.08,0,.08-.09,0-.09-.1,0-.13.03-.3-.51ZM24.7,63.46c.31-.64.66-1.28.66-1.28l.35,1.35-1.02-.07Z"/>
      <path class="cls-1" d="M12.44,57.23c.45-.76-.11-1.51-.89-1.93-.78-.42-.85-.5-.85-.5,0,0-.1.02,0,.12.1.09.15.2.06.33-.09.13-1.76,2.58-1.88,2.74-.12.15-.33.02-.32.14,0,0,.67.46.73.5.05.04.11,0,.06-.06s-.22-.2.12-.65c.09-.12.25-.34.43-.6.15.11.45.32.72.41.38.12,1.36.29,1.81-.48ZM10.02,57.15c.53-.76,1.21-1.76,1.21-1.76,0,0,1.27.71.7,1.71-.5.87-1.57.33-1.91.04Z"/>
      <path class="cls-1" d="M11.82,59.86c.15-.22,1.65-2.5,1.82-2.69.16-.19.27-.14.37-.09.1.05.12-.02.05-.06-.07-.04-.82-.51-.88-.54-.05-.03-.04.05-.04.05l.02.04s.21.2-.01.54c-.23.34-1.74,2.53-1.74,2.53,0,0-.14.18-.42.08-.04-.01-.11.02-.02.08.21.13.61.4.78.52.12.08.05-.08.05-.08,0,0-.13-.15.02-.37Z"/>
      <path class="cls-1" d="M14.34,61.35c-.12-.05-1.23-.62-1.23-.62l.74-1.36c.1.06.24.14.38.22.3.16.47.25.38.46-.09.21,0,.24.08.1.08-.13.27-.45.39-.67.12-.22.08-.31,0-.16-.09.15-.26.21-.42.12-.12-.07-.46-.25-.64-.35l.71-1.3s.74.35,1.23.67c-.05.3-.02.57.03.5.05-.07.35-.69.35-.69-.17-.05-2.07-1.07-2.07-1.07-.2-.08.12.3.05.42-.07.12-1.29,2.33-1.47,2.63-.19.3-.19.29-.42.24-.24-.04-.3.03-.18.09.5.25,2.24,1.23,2.29,1.15.05-.08.45-.69.38-.71-.07-.02-.32.4-.56.31Z"/>
      <path class="cls-1" d="M32.29,64.96c-.13.02-1.42.13-1.42.13l-.04-1.5c.11,0,.33,0,.57-.03.34-.03.62-.04.66.18s.13.2.13.04c0-.16-.02-.53-.04-.77-.02-.24-.1-.31-.09-.13,0,.18-.1.32-.29.33-.17,0-.8.05-.94.06l-.04-1.52s1.16-.02,1.68-.05c.12.28.29.49.3.4,0-.09-.09-.76-.09-.76-.17.05-2.64.16-2.64.16-.21.04.27.18.27.33,0,.14.06,2.64.05,2.99-.01.35-.03.41-.25.49-.23.08-.25.18-.11.17.55-.03,2.73-.19,2.73-.19,0,0,.11-.96.04-.94-.07.02-.21.57-.46.61Z"/>
      <path class="cls-1" d="M19.48,59.79c-.12-.05-.77-.3-.91-.36-.14-.06-.11.08,0,.15.11.06.12.15.06.33-.06.18-1.11,2.52-1.11,2.52l-.34-3.53s-.48-.3-.59-.36c-.11-.07-.15.06-.04.15.11.1.1.18.02.36-.08.18-1.38,2.66-1.45,2.78-.07.12-.46-.01-.39.14,0,0,.73.31.92.4.15.02.12-.08-.04-.24-.04-.04-.03-.18.09-.4.11-.2.99-2.01.99-2.01l.33,3.24.63.21s1.27-2.83,1.4-3.09c.13-.27.28-.2.4-.16.13.04.15-.08.02-.13Z"/>
      <path class="cls-1" d="M22.24,61.51c.08-.29.25-.74.25-.74l-2.71-.81-.23.74c.31-.36.8-.29.8-.29,0,0,.18.05.42.12-.15.49-.87,2.77-.96,3.02-.1.28-.37.12-.41.23-.02.05,0,.07.1.09.14.03.63.22.73.25s.11.04.13,0c.06-.15-.23-.15-.14-.44.04-.11.85-2.65.97-3.04.23.07.59.18.73.24.13.06.3.27.31.61Z"/>
      <path class="cls-1" d="M33.46,61.33l.09.77c.14-.45.41-.47.41-.47l.66-.08s.33,2.84.35,3.1c.02.3-.3.26-.29.37,0,.05.02.06.14.04.15-.02.85-.14.95-.16s.12-.01.12-.05c-.02-.16-.38.05-.4-.25,0-.12-.3-3.16-.3-3.16,0,0,.39-.06.7-.08.14-.01.34-.03.48.29-.03-.3-.1-.71-.1-.71l-2.8.39Z"/>
      <path class="cls-1" d="M22.89,64.63s-.11-.11-.07-.29c0,0,.58-2.8.62-3,.04-.2.14-.19.24-.18.1,0,.2-.13-.01-.17-.21-.04-.62-.1-.82-.14-.15-.03-.17.1-.1.13.1.04.25.16.23.3-.02.14-.58,2.7-.63,2.96-.04.19-.13.27-.27.24-.11-.02-.14.1-.06.11l.96.19s.07-.09-.1-.16Z"/>
      <path class="cls-1" d="M28.21,63.1c-.17,0-.3.14-.29.31,0,.17.14.3.31.29.17,0,.3-.14.29-.31,0-.17-.14-.3-.31-.29Z"/>
      <path class="cls-1" d="M37.54,62.32c-.17,0-.3.14-.29.31,0,.17.14.3.31.29.17,0,.3-.14.29-.31,0-.17-.14-.3-.31-.29Z"/>
      <path class="cls-1" d="M40.98,59.54c-.06.03-.65.26-.72.33-.08.07,0,.11.05.08.18-.1.26-.02.26-.02l-.09,3.07s-1.88-2.26-1.93-2.33c-.05-.06-.09-.09.04-.17.2-.11.13-.16.13-.16l-1.14.29c-.06.03-.03.14.13.11s.33-.02.33-.02l2.38,3.06.41-.19s.05-3.72.05-3.78c0-.06.04-.05.15-.14.14-.11.01-.15-.05-.11Z"/>
      <path class="cls-1" d="M43.33,62.16c-.04-.13-1.18-2.69-1.18-2.69-.03-.08.02-.17.13-.26.08-.07.08-.19-.04-.12-.12.07-.86.44-.93.49-.07.04-.04.1.1.06.14-.04.21-.04.23,0,0,0,1.2,2.71,1.24,2.84.03.12.03.24-.1.33-.13.08-.09.16,0,.12.09-.04.75-.31.92-.38.1-.04.06-.14-.09-.09-.15.05-.22-.11-.27-.28Z"/>
      <path class="cls-1" d="M46.48,60.19c-.45-.4-.77-.71-1.02-.6.08-.15.33-.9.08-1.38-.24-.49-.81-.48-1.15-.33-.34.15-1.54.89-1.54.89-.1.16.1.13.38.04l1.46,3.29c-.17.13-.18.26-.18.26l.93-.48s0-.07-.28.02l-.63-1.4c.09-.1.25-.26.45-.43.22-.21.86.42,1.34.79.48.38.56.32.77.16.21-.16.57-.46.34-.31-.24.15-.5-.11-.95-.51ZM45.18,59.6c-.2.2-.54.5-.75.66l-.78-1.73c.2-.08.31-.14.42-.2.37-.19.55-.11.89.02.34.13.49.96.22,1.24Z"/>
      <path class="cls-1" d="M49.12,59.49l-1.75-2.89c.19-.15.3-.22.43-.31.36-.28.65.05.65.05l-.46-.7-2.09,1.56.44.64s-.19-.44.1-.64c.11-.08.22-.11.46-.27l1.79,2.86c-.34.26-.13.27-.13.27l.84-.57s.04-.16-.26,0Z"/>
      <path class="cls-1" d="M53.2,56.07c-.02.15-.37.31-.65.04-.28-.27-1.33-1.64-1.69-2.08-.36-.44-.18-.66-.18-.66l-.8.7s.24-.1.41.11c.17.22,1.46,1.84,1.58,1.97.05.06.09.11.15.17.04,1.16-.85,1.46-1.16,1.24-.33-.24-1.46-1.7-1.7-2.02-.25-.32-.09-.64-.09-.64l-.9.71s.28-.04.53.25c.29.34.61.75,1.47,1.76.22.26.5.71,1.18.39.57-.27.84-1.13.79-1.6.07.05.16.12.28.2.55.35.75-.12.81-.35s0-.33-.01-.18Z"/>
      <path class="cls-1" d="M54.07,53.06c-.74-.13-2.05.37-2.08-.15-.03-.47.91-1.13,1.36-.79l-.15-1.15s-.1.05-.11.18c-.01.12-.04.26-.18.29-.27.07-.89.53-1.08,1.11-.1.29-.1,1.32.58,1.26s1.96-.46,2.31.43c.29.73-.66,1.2-1.14.87-.02,0,.1.77.15,1.01.07-.05.08-.37.18-.45.21-.15.9.06,1.12-1.01.22-1.07-.4-1.51-.95-1.6Z"/>
      <path class="cls-1" d="M31.47,37.81c-.35-.08-.81.46-.81.46v.51s.49-.84.81-.98Z"/>
    </g>
  </g>
  <g>
    <g>
      <path class="cls-1" d="M279.28,40.6c1.26,0,2.24.33,2.92,1s1.03,1.63,1.03,2.9-.34,2.3-1.03,2.99c-.68.69-1.66,1.03-2.92,1.03h-2.5v-7.92h2.5ZM279.32,47.96c1.06,0,1.87-.3,2.43-.9.56-.6.85-1.46.85-2.57s-.28-1.9-.85-2.48c-.56-.58-1.37-.87-2.43-.87h-1.94v6.82h1.94Z"/>
      <path class="cls-1" d="M287.48,48.64c-.55,0-1.04-.12-1.48-.37s-.77-.61-1.01-1.07c-.24-.47-.37-1.03-.37-1.67s.12-1.21.37-1.67c.24-.47.57-.83.99-1.07s.89-.37,1.43-.37,1.01.12,1.39.36.68.57.89,1,.31.92.31,1.48c0,.07,0,.14,0,.21,0,.07-.01.13-.02.19h-4.98v-.54h4.72l-.3.08c0-.69-.19-1.24-.55-1.64-.36-.41-.85-.61-1.47-.61-.43,0-.81.1-1.14.31s-.58.5-.77.89c-.18.39-.28.85-.28,1.4s.09,1,.28,1.39c.19.39.45.69.79.89.34.2.73.31,1.18.31s.86-.1,1.19-.3.59-.48.77-.83l.48.28c-.14.29-.34.53-.58.74-.24.2-.52.36-.83.47-.31.11-.66.17-1.03.17Z"/>
      <path class="cls-1" d="M291.72,51.03v-8.52h.54l.05,1.67-.08-.1c.1-.34.27-.64.49-.9.22-.26.49-.45.81-.59.32-.14.67-.2,1.04-.2.51,0,.97.12,1.38.37s.73.6.97,1.07c.24.46.36,1.02.36,1.68s-.12,1.21-.36,1.67c-.24.47-.57.83-.98,1.07s-.88.37-1.4.37c-.55,0-1.03-.15-1.44-.44-.41-.29-.69-.69-.85-1.18l.07-.11v4.13h-.6ZM294.47,48.11c.68,0,1.22-.23,1.61-.7.4-.46.59-1.1.59-1.9s-.2-1.43-.59-1.9c-.39-.46-.92-.7-1.6-.7-.42,0-.8.11-1.12.32-.32.21-.58.51-.77.9-.19.39-.28.85-.28,1.37s.09.98.28,1.37c.18.39.44.69.76.91s.69.32,1.11.32Z"/>
      <path class="cls-1" d="M302.67,44.57c0-.52-.14-.92-.42-1.21-.28-.29-.68-.43-1.2-.43-.46,0-.85.1-1.18.29-.33.2-.57.52-.73.98l-.49-.31c.18-.47.47-.84.88-1.1.41-.26.92-.39,1.53-.39.44,0,.83.08,1.16.23.33.16.59.39.77.69.18.3.28.68.28,1.14v3c0,.42.19.64.58.64.17,0,.31-.03.43-.08l-.04.48c-.14.07-.31.11-.53.11-.18,0-.36-.04-.52-.11-.16-.07-.29-.19-.39-.36s-.15-.4-.15-.68v-.32h.17c-.07.33-.23.62-.47.85-.24.23-.53.4-.85.5-.32.11-.64.16-.96.16-.38,0-.71-.06-1.01-.18-.3-.12-.53-.29-.7-.52-.17-.23-.25-.51-.25-.85,0-.45.15-.81.45-1.09.3-.28.72-.47,1.27-.57l2.48-.49v.5l-2.18.43c-.47.1-.82.24-1.06.42-.23.18-.35.44-.35.76s.12.59.37.77c.25.19.6.28,1.06.28.23,0,.47-.03.71-.1s.46-.17.67-.31c.2-.14.37-.32.49-.53.12-.21.18-.47.18-.77v-1.84Z"/>
      <path class="cls-1" d="M305.52,48.52v-6h.5l.07,1.26c.15-.42.4-.76.73-1.01s.74-.37,1.21-.37c.16,0,.3.02.43.05.13.03.23.08.31.16l-.13.53c-.09-.06-.18-.1-.29-.13-.1-.03-.26-.05-.47-.05-.3,0-.59.09-.86.28-.27.19-.49.45-.66.78s-.25.71-.25,1.15v3.36h-.6Z"/>
      <path class="cls-1" d="M313.1,42.52v.52h-4.04v-.52h4.04ZM310.86,40.85v6.08c0,.38.09.66.27.86.18.2.44.29.79.29.22,0,.42-.04.59-.11s.33-.19.46-.33l.23.49c-.15.15-.34.27-.58.37-.23.09-.49.14-.78.14-.31,0-.59-.06-.83-.17-.24-.12-.43-.29-.56-.53s-.2-.54-.2-.91v-6l.6-.17Z"/>
      <path class="cls-1" d="M314.39,48.52v-6h.54l.04,1.25c.18-.43.46-.77.86-1.01.4-.24.84-.36,1.33-.36.52,0,.97.12,1.35.37s.64.61.79,1.09c.1-.3.27-.57.5-.79.23-.22.5-.39.82-.51.31-.12.64-.18.97-.18.42,0,.79.08,1.13.25s.61.41.82.74.31.75.31,1.24v3.89h-.6v-3.83c0-.59-.16-1.03-.47-1.33-.32-.29-.73-.44-1.25-.44-.38,0-.72.09-1.04.27-.32.18-.57.43-.76.76-.19.32-.28.7-.28,1.12v3.46h-.6v-3.83c0-.59-.16-1.03-.48-1.33-.32-.29-.74-.44-1.25-.44-.36,0-.7.09-1.02.26s-.58.43-.78.76-.3.72-.3,1.18v3.4h-.6Z"/>
      <path class="cls-1" d="M328.35,48.64c-.55,0-1.04-.12-1.48-.37s-.77-.61-1.01-1.07c-.24-.47-.37-1.03-.37-1.67s.12-1.21.37-1.67c.24-.47.57-.83.99-1.07s.89-.37,1.43-.37,1.01.12,1.39.36.68.57.89,1,.31.92.31,1.48c0,.07,0,.14,0,.21,0,.07-.01.13-.02.19h-4.98v-.54h4.72l-.3.08c0-.69-.19-1.24-.55-1.64-.36-.41-.85-.61-1.47-.61-.43,0-.81.1-1.14.31s-.58.5-.77.89c-.18.39-.28.85-.28,1.4s.09,1,.28,1.39c.19.39.45.69.79.89.34.2.73.31,1.18.31s.86-.1,1.19-.3.59-.48.77-.83l.48.28c-.14.29-.34.53-.58.74-.24.2-.52.36-.83.47-.31.11-.66.17-1.03.17Z"/>
      <path class="cls-1" d="M332.59,48.52v-6h.54l.05,1.5-.1-.08c.11-.33.28-.61.5-.83.22-.23.49-.4.8-.52.31-.12.65-.18,1.01-.18.45,0,.84.08,1.19.25.34.17.61.42.81.74s.29.74.29,1.24v3.89h-.6v-3.7c0-.66-.16-1.14-.49-1.44s-.75-.46-1.27-.46c-.38,0-.73.09-1.05.26-.32.17-.59.42-.79.75s-.31.73-.31,1.2v3.38h-.6Z"/>
      <path class="cls-1" d="M342.85,42.52v.52h-4.04v-.52h4.04ZM340.61,40.85v6.08c0,.38.09.66.27.86.18.2.44.29.79.29.22,0,.42-.04.59-.11s.33-.19.46-.33l.23.49c-.15.15-.34.27-.58.37-.23.09-.49.14-.78.14-.31,0-.59-.06-.83-.17-.24-.12-.43-.29-.56-.53s-.2-.54-.2-.91v-6l.6-.17Z"/>
      <path class="cls-1" d="M350.28,42.4c.56,0,1.05.12,1.48.37s.76.61,1.01,1.07.37,1.03.37,1.67-.12,1.21-.37,1.67-.58.83-1.01,1.07-.92.37-1.48.37-1.05-.12-1.48-.37c-.43-.25-.76-.61-1.01-1.07-.24-.47-.37-1.03-.37-1.67s.12-1.21.37-1.67c.24-.47.58-.83,1.01-1.07.43-.25.92-.37,1.48-.37ZM350.28,42.91c-.46,0-.85.1-1.19.31s-.6.51-.79.89c-.19.39-.28.85-.28,1.4s.09,1,.28,1.39c.19.39.45.69.79.9s.73.31,1.19.31.85-.1,1.19-.31.6-.51.79-.9c.19-.39.28-.86.28-1.39s-.09-1.01-.28-1.4c-.19-.39-.45-.69-.79-.89s-.73-.31-1.19-.31Z"/>
      <path class="cls-1" d="M357.86,42.52v.52h-3.91v-.52h3.91ZM356.94,39.69c.22,0,.41.03.58.08.17.06.3.14.4.24l-.17.48c-.1-.1-.22-.16-.34-.2-.12-.04-.26-.06-.42-.06-.39,0-.7.11-.91.34-.22.22-.32.56-.32,1v6.95h-.6v-7.01c0-.27.04-.52.11-.74s.19-.41.34-.57c.15-.16.34-.28.56-.37.22-.09.48-.13.77-.13Z"/>
      <path class="cls-1" d="M279.46,54.88c.72,0,1.35.12,1.9.37.54.25,1.01.62,1.39,1.1l-.92,1.07c-.33-.42-.69-.72-1.07-.92s-.84-.29-1.35-.29c-.34,0-.61.04-.83.13-.22.09-.38.2-.48.35-.1.14-.15.3-.15.48,0,.22.08.4.25.55.17.15.46.27.86.37l1.48.34c.78.18,1.35.44,1.69.79s.51.8.51,1.35c0,.52-.14.97-.41,1.34-.27.37-.65.66-1.14.85-.49.2-1.05.29-1.68.29-.55,0-1.06-.07-1.52-.2-.46-.13-.87-.31-1.23-.55-.36-.23-.66-.5-.9-.8l.94-1.12c.18.26.41.48.68.68.27.2.58.36.93.47.35.12.71.17,1.1.17.33,0,.61-.04.83-.11.23-.08.4-.18.52-.32.12-.14.17-.31.17-.51s-.07-.39-.21-.53c-.14-.15-.4-.26-.77-.34l-1.61-.36c-.46-.11-.86-.26-1.19-.44s-.58-.41-.76-.7c-.17-.28-.26-.62-.26-1.01,0-.47.13-.9.38-1.27.26-.38.63-.67,1.11-.89.48-.22,1.07-.33,1.75-.33Z"/>
      <path class="cls-1" d="M288.17,56.92v1.22h-4.67v-1.22h4.67ZM286.25,55.08v5.88c0,.29.07.5.22.63s.35.2.61.2c.2,0,.38-.03.53-.09.15-.06.29-.14.41-.25l.26,1.09c-.19.15-.43.27-.72.36s-.59.13-.91.13c-.4,0-.75-.06-1.06-.18-.31-.12-.55-.31-.72-.58-.17-.26-.26-.62-.26-1.06v-5.69l1.64-.46Z"/>
      <path class="cls-1" d="M292.76,59.09c0-.34-.1-.61-.29-.8-.2-.19-.45-.29-.77-.29-.3,0-.56.08-.78.23-.22.15-.39.4-.49.76l-1.4-.43c.14-.53.43-.95.89-1.27.46-.32,1.08-.48,1.85-.48.53,0,.99.08,1.38.25s.7.41.92.74.33.74.33,1.24v2.44c0,.3.14.46.43.46.14,0,.26-.02.38-.06l-.1,1.02c-.21.1-.47.16-.78.16-.28,0-.53-.05-.76-.14-.22-.1-.4-.24-.53-.44-.13-.2-.19-.44-.19-.74v-.05l.29-.05c-.05.3-.18.56-.4.77-.22.21-.48.37-.79.49-.31.11-.63.17-.95.17-.41,0-.76-.06-1.06-.19-.3-.12-.52-.31-.68-.55-.16-.24-.24-.54-.24-.89,0-.45.14-.81.43-1.1s.7-.48,1.24-.58l2.26-.46v1.02s-1.45.29-1.45.29c-.27.06-.48.13-.62.22-.14.09-.21.24-.21.45s.07.35.22.46c.15.1.33.16.53.16.17,0,.33-.02.49-.06.16-.04.3-.1.43-.19s.23-.21.3-.36c.07-.15.11-.34.11-.55v-1.62Z"/>
      <path class="cls-1" d="M300.04,56.92v1.22h-4.67v-1.22h4.67ZM298.12,55.08v5.88c0,.29.07.5.22.63s.35.2.61.2c.2,0,.38-.03.53-.09.15-.06.29-.14.41-.25l.26,1.09c-.19.15-.43.27-.72.36s-.59.13-.91.13c-.4,0-.75-.06-1.06-.18-.31-.12-.55-.31-.72-.58-.17-.26-.26-.62-.26-1.06v-5.69l1.64-.46Z"/>
      <path class="cls-1" d="M301.98,56.05c-.34,0-.6-.07-.77-.22s-.25-.37-.25-.65.08-.52.25-.67c.17-.15.42-.22.77-.22s.6.07.77.22c.17.15.25.37.25.67s-.08.51-.25.65-.42.22-.77.22ZM302.79,56.92v6h-1.64v-6h1.64Z"/>
      <path class="cls-1" d="M306.93,63.04c-.61,0-1.16-.11-1.66-.32s-.91-.52-1.22-.91l.95-.96c.19.29.45.52.77.71.32.18.7.28,1.14.28.31,0,.56-.05.75-.14.19-.09.28-.24.28-.44,0-.13-.04-.24-.13-.33s-.26-.17-.53-.22l-1.06-.22c-.7-.14-1.19-.36-1.48-.65s-.44-.67-.44-1.13c0-.33.1-.64.29-.92.2-.29.49-.52.88-.7.39-.18.88-.27,1.46-.27s1.12.09,1.57.28c.44.19.79.47,1.05.83l-.98.96c-.18-.28-.41-.49-.69-.64-.28-.15-.58-.22-.89-.22-.22,0-.42.02-.58.07s-.28.11-.36.2-.12.19-.12.32.06.24.17.33c.11.09.32.17.61.23l1.22.25c.59.12,1.02.32,1.27.61.26.28.38.63.38,1.03s-.1.73-.31,1.03c-.2.3-.5.54-.9.71-.4.17-.88.26-1.46.26Z"/>
      <path class="cls-1" d="M314.95,56.92v1.22h-4.67v-1.22h4.67ZM313.03,55.08v5.88c0,.29.07.5.22.63s.35.2.61.2c.2,0,.38-.03.53-.09.15-.06.29-.14.41-.25l.26,1.09c-.19.15-.43.27-.72.36s-.59.13-.91.13c-.4,0-.75-.06-1.06-.18-.31-.12-.55-.31-.72-.58-.17-.26-.26-.62-.26-1.06v-5.69l1.64-.46Z"/>
      <path class="cls-1" d="M316.9,56.05c-.34,0-.6-.07-.77-.22s-.25-.37-.25-.65.08-.52.25-.67c.17-.15.42-.22.77-.22s.6.07.77.22c.17.15.25.37.25.67s-.08.51-.25.65-.42.22-.77.22ZM317.71,56.92v6h-1.64v-6h1.64Z"/>
      <path class="cls-1" d="M322.17,56.8c.54,0,.99.08,1.36.23.37.16.67.37.9.64.23.27.39.57.49.89l-1.54.55c-.08-.36-.22-.63-.41-.82-.19-.18-.45-.28-.78-.28-.3,0-.56.07-.78.21-.22.14-.38.35-.49.64s-.17.64-.17,1.06.06.78.17,1.06c.12.28.28.49.5.62.22.14.48.2.77.2.24,0,.44-.04.61-.13s.31-.21.41-.37c.11-.16.18-.35.22-.58l1.49.48c-.09.36-.25.68-.49.95-.24.27-.55.48-.92.64-.38.15-.81.23-1.31.23-.62,0-1.16-.12-1.63-.37s-.84-.6-1.09-1.07c-.26-.46-.38-1.02-.38-1.68s.13-1.22.38-1.68.62-.82,1.08-1.07,1-.37,1.6-.37Z"/>
      <path class="cls-1" d="M328.62,63.04c-.61,0-1.16-.11-1.66-.32s-.91-.52-1.22-.91l.95-.96c.19.29.45.52.77.71.32.18.7.28,1.14.28.31,0,.56-.05.75-.14.19-.09.28-.24.28-.44,0-.13-.04-.24-.13-.33s-.26-.17-.53-.22l-1.06-.22c-.7-.14-1.19-.36-1.48-.65s-.44-.67-.44-1.13c0-.33.1-.64.29-.92.2-.29.49-.52.88-.7.39-.18.88-.27,1.46-.27s1.12.09,1.57.28c.44.19.79.47,1.05.83l-.98.96c-.18-.28-.41-.49-.69-.64-.28-.15-.58-.22-.89-.22-.22,0-.42.02-.58.07s-.28.11-.36.2-.12.19-.12.32.06.24.17.33c.11.09.32.17.61.23l1.22.25c.59.12,1.02.32,1.27.61.26.28.38.63.38,1.03s-.1.73-.31,1.03c-.2.3-.5.54-.9.71-.4.17-.88.26-1.46.26Z"/>
      <path class="cls-1" d="M338.49,63.04c-.54,0-1.02-.09-1.42-.26s-.72-.42-.94-.74c-.22-.32-.33-.71-.33-1.17,0-.23.03-.46.1-.7.06-.23.18-.45.34-.67s.39-.41.67-.58c.28-.18.65-.32,1.09-.42l.42-.17c.33-.19.59-.37.78-.52.19-.16.33-.32.41-.48s.13-.35.13-.56c0-.23-.07-.41-.22-.55-.14-.13-.34-.2-.58-.2-.27,0-.48.08-.62.23-.14.16-.21.35-.21.58,0,.14.02.27.07.4s.13.29.26.47c.13.19.32.43.57.74s.59.7,1.01,1.19c.42.48.77.87,1.05,1.18.28.3.53.53.73.69s.4.26.59.31c.19.05.4.07.63.04l-.19,1.18c-.3,0-.56-.03-.8-.08-.24-.05-.48-.16-.74-.32-.26-.16-.55-.41-.89-.74s-.75-.77-1.24-1.32c-.51-.56-.93-1.03-1.25-1.4-.32-.38-.57-.7-.75-.96s-.3-.5-.37-.72c-.07-.22-.11-.44-.11-.68,0-.32.08-.63.24-.92.16-.3.41-.54.74-.73.34-.19.77-.28,1.3-.28.47,0,.86.08,1.17.24.31.16.54.37.7.64.16.26.23.56.23.89s-.07.63-.2.92c-.14.28-.36.54-.68.78-.32.24-.75.45-1.29.64l-.38.19c-.33.17-.58.33-.77.48-.18.15-.31.31-.38.49-.07.17-.11.37-.11.61s.06.44.19.61c.13.18.3.31.52.41.22.1.46.14.74.14.4,0,.74-.07,1.03-.2s.56-.32.82-.55l.18-.2c.17-.28.3-.6.4-.95.1-.35.14-.76.11-1.21l1.16.05c.02.51-.05,1-.21,1.46s-.39.87-.71,1.22l-.29.28c-.28.38-.65.68-1.1.9-.45.22-.99.34-1.6.34Z"/>
      <path class="cls-1" d="M354.29,62.92h-1.72l-.66-1.93h-3.04l-.66,1.93h-1.69l2.89-7.92h1.98l2.89,7.92ZM349.25,59.76h2.29l-1.15-3.46-1.14,3.46Z"/>
      <path class="cls-1" d="M357.87,56.8c.54,0,.99.08,1.36.23.37.16.67.37.9.64.23.27.39.57.49.89l-1.54.55c-.08-.36-.22-.63-.41-.82-.19-.18-.45-.28-.78-.28-.3,0-.56.07-.78.21-.22.14-.38.35-.49.64s-.17.64-.17,1.06.06.78.17,1.06c.12.28.28.49.5.62.22.14.48.2.77.2.24,0,.44-.04.61-.13s.31-.21.41-.37c.11-.16.18-.35.22-.58l1.49.48c-.09.36-.25.68-.49.95-.24.27-.55.48-.92.64-.38.15-.81.23-1.31.23-.62,0-1.16-.12-1.63-.37s-.84-.6-1.09-1.07c-.26-.46-.38-1.02-.38-1.68s.13-1.22.38-1.68.62-.82,1.08-1.07,1-.37,1.6-.37Z"/>
      <path class="cls-1" d="M365.96,56.92v1.22h-4.67v-1.22h4.67ZM364.04,55.08v5.88c0,.29.07.5.22.63s.35.2.61.2c.2,0,.38-.03.53-.09.15-.06.29-.14.41-.25l.26,1.09c-.19.15-.43.27-.72.36s-.59.13-.91.13c-.4,0-.75-.06-1.06-.18-.31-.12-.55-.31-.72-.58-.17-.26-.26-.62-.26-1.06v-5.69l1.64-.46Z"/>
      <path class="cls-1" d="M369.17,63.04c-.4,0-.76-.07-1.08-.22-.32-.14-.57-.37-.76-.69-.19-.32-.28-.73-.28-1.23v-3.98h1.64v3.59c0,.46.1.79.29.97.19.18.47.27.83.27.17,0,.33-.03.49-.09.16-.06.3-.15.43-.28s.22-.29.29-.5.11-.45.11-.73v-3.23h1.64v6h-1.46l-.06-1.04c-.2.4-.47.69-.82.88s-.77.28-1.25.28Z"/>
      <path class="cls-1" d="M377.91,59.09c0-.34-.1-.61-.29-.8-.2-.19-.45-.29-.77-.29-.3,0-.56.08-.78.23-.22.15-.39.4-.49.76l-1.4-.43c.14-.53.43-.95.89-1.27.46-.32,1.08-.48,1.85-.48.53,0,.99.08,1.38.25s.7.41.92.74.33.74.33,1.24v2.44c0,.3.14.46.43.46.14,0,.26-.02.38-.06l-.1,1.02c-.21.1-.47.16-.78.16-.28,0-.53-.05-.76-.14-.22-.1-.4-.24-.53-.44-.13-.2-.19-.44-.19-.74v-.05l.29-.05c-.05.3-.18.56-.4.77-.22.21-.48.37-.79.49-.31.11-.63.17-.95.17-.41,0-.76-.06-1.06-.19-.3-.12-.52-.31-.68-.55-.16-.24-.24-.54-.24-.89,0-.45.14-.81.43-1.1s.7-.48,1.24-.58l2.26-.46v1.02s-1.45.29-1.45.29c-.27.06-.48.13-.62.22-.14.09-.21.24-.21.45s.07.35.22.46c.15.1.33.16.53.16.17,0,.33-.02.49-.06.16-.04.3-.1.43-.19s.23-.21.3-.36c.07-.15.11-.34.11-.55v-1.62Z"/>
      <path class="cls-1" d="M381.38,62.92v-6h1.43l.11,1.18c.16-.42.39-.74.7-.96.31-.22.69-.34,1.16-.34.14,0,.26.01.37.04s.2.06.28.1l-.19,1.38c-.08-.03-.18-.06-.29-.07-.12-.02-.27-.02-.45-.02-.24,0-.47.06-.7.17-.22.12-.41.29-.55.53-.14.24-.22.53-.22.89v3.11h-1.64Z"/>
      <path class="cls-1" d="M387.27,56.05c-.34,0-.6-.07-.77-.22s-.25-.37-.25-.65.08-.52.25-.67c.17-.15.42-.22.77-.22s.6.07.77.22c.17.15.25.37.25.67s-.08.51-.25.65-.42.22-.77.22ZM388.09,56.92v6h-1.64v-6h1.64Z"/>
      <path class="cls-1" d="M393.25,59.09c0-.34-.1-.61-.29-.8-.2-.19-.45-.29-.77-.29-.3,0-.56.08-.78.23-.22.15-.39.4-.49.76l-1.4-.43c.14-.53.43-.95.89-1.27.46-.32,1.08-.48,1.85-.48.53,0,.99.08,1.38.25s.7.41.92.74.33.74.33,1.24v2.44c0,.3.14.46.43.46.14,0,.26-.02.38-.06l-.1,1.02c-.21.1-.47.16-.78.16-.28,0-.53-.05-.76-.14-.22-.1-.4-.24-.53-.44-.13-.2-.19-.44-.19-.74v-.05l.29-.05c-.05.3-.18.56-.4.77-.22.21-.48.37-.79.49-.31.11-.63.17-.95.17-.41,0-.76-.06-1.06-.19-.3-.12-.52-.31-.68-.55-.16-.24-.24-.54-.24-.89,0-.45.14-.81.43-1.1s.7-.48,1.24-.58l2.26-.46v1.02s-1.45.29-1.45.29c-.27.06-.48.13-.62.22-.14.09-.21.24-.21.45s.07.35.22.46c.15.1.33.16.53.16.17,0,.33-.02.49-.06.16-.04.3-.1.43-.19s.23-.21.3-.36c.07-.15.11-.34.11-.55v-1.62Z"/>
      <path class="cls-1" d="M398.34,54.29v6.78c0,.28.05.48.14.59s.26.17.48.17c.14,0,.25,0,.34-.03.09-.02.2-.05.34-.09l-.14,1.08c-.14.08-.31.14-.51.19s-.41.07-.61.07c-.58,0-1.01-.14-1.28-.43-.27-.28-.4-.74-.4-1.36v-6.96h1.64Z"/>
      <path class="cls-1" d="M407.01,54.88c.72,0,1.35.12,1.9.37.54.25,1.01.62,1.39,1.1l-.92,1.07c-.33-.42-.69-.72-1.07-.92s-.84-.29-1.35-.29c-.34,0-.61.04-.83.13-.22.09-.38.2-.48.35-.1.14-.15.3-.15.48,0,.22.08.4.25.55.17.15.46.27.86.37l1.48.34c.78.18,1.35.44,1.69.79s.51.8.51,1.35c0,.52-.14.97-.41,1.34-.27.37-.65.66-1.14.85-.49.2-1.05.29-1.68.29-.55,0-1.06-.07-1.52-.2-.46-.13-.87-.31-1.23-.55-.36-.23-.66-.5-.9-.8l.94-1.12c.18.26.41.48.68.68.27.2.58.36.93.47.35.12.71.17,1.1.17.33,0,.61-.04.83-.11.23-.08.4-.18.52-.32.12-.14.17-.31.17-.51s-.07-.39-.21-.53c-.14-.15-.4-.26-.77-.34l-1.61-.36c-.46-.11-.86-.26-1.19-.44s-.58-.41-.76-.7c-.17-.28-.26-.62-.26-1.01,0-.47.13-.9.38-1.27.26-.38.63-.67,1.11-.89.48-.22,1.07-.33,1.75-.33Z"/>
      <path class="cls-1" d="M414.41,56.8c.54,0,.99.08,1.36.23.37.16.67.37.9.64.23.27.39.57.49.89l-1.54.55c-.08-.36-.22-.63-.41-.82-.19-.18-.45-.28-.78-.28-.3,0-.56.07-.78.21-.22.14-.38.35-.49.64s-.17.64-.17,1.06.06.78.17,1.06c.12.28.28.49.5.62.22.14.48.2.77.2.24,0,.44-.04.61-.13s.31-.21.41-.37c.11-.16.18-.35.22-.58l1.49.48c-.09.36-.25.68-.49.95-.24.27-.55.48-.92.64-.38.15-.81.23-1.31.23-.62,0-1.16-.12-1.63-.37s-.84-.6-1.09-1.07c-.26-.46-.38-1.02-.38-1.68s.13-1.22.38-1.68.62-.82,1.08-1.07,1-.37,1.6-.37Z"/>
      <path class="cls-1" d="M419.28,56.05c-.34,0-.6-.07-.77-.22s-.25-.37-.25-.65.08-.52.25-.67c.17-.15.42-.22.77-.22s.6.07.77.22c.17.15.25.37.25.67s-.08.51-.25.65-.42.22-.77.22ZM420.09,56.92v6h-1.64v-6h1.64Z"/>
      <path class="cls-1" d="M424.62,63.04c-.63,0-1.18-.12-1.65-.37s-.83-.6-1.09-1.07c-.26-.46-.38-1.02-.38-1.68s.13-1.22.38-1.68.61-.82,1.07-1.07c.46-.25.99-.37,1.58-.37s1.12.12,1.55.37c.42.24.75.58.97,1s.34.9.34,1.43c0,.16,0,.31-.01.46,0,.14-.02.27-.04.38h-4.79v-1.14h4.07l-.79.29c0-.5-.11-.89-.34-1.16-.23-.27-.55-.41-.97-.41-.3,0-.57.07-.79.22-.22.14-.39.36-.5.64-.11.28-.17.64-.17,1.07s.06.77.19,1.05c.12.28.3.48.53.62.23.14.5.2.82.2.35,0,.64-.07.85-.2.22-.14.38-.32.5-.56l1.31.5c-.13.31-.32.58-.58.8-.26.22-.57.39-.92.51-.36.12-.74.17-1.15.17Z"/>
      <path class="cls-1" d="M428.78,62.92v-6h1.48l.1,1.8-.2-.19c.1-.39.25-.72.46-.97.21-.26.46-.45.76-.57s.63-.19.99-.19c.42,0,.79.08,1.11.24s.58.4.77.73c.19.32.28.73.28,1.22v3.94h-1.64v-3.47c0-.51-.1-.87-.3-1.06-.2-.2-.46-.29-.78-.29-.22,0-.44.05-.65.16-.21.11-.38.28-.52.52-.13.24-.2.56-.2.96v3.18h-1.64Z"/>
      <path class="cls-1" d="M438.93,56.8c.54,0,.99.08,1.36.23.37.16.67.37.9.64.23.27.39.57.49.89l-1.54.55c-.08-.36-.22-.63-.41-.82-.19-.18-.45-.28-.78-.28-.3,0-.56.07-.78.21-.22.14-.38.35-.49.64s-.17.64-.17,1.06.06.78.17,1.06c.12.28.28.49.5.62.22.14.48.2.77.2.24,0,.44-.04.61-.13s.31-.21.41-.37c.11-.16.18-.35.22-.58l1.49.48c-.09.36-.25.68-.49.95-.24.27-.55.48-.92.64-.38.15-.81.23-1.31.23-.62,0-1.16-.12-1.63-.37s-.84-.6-1.09-1.07c-.26-.46-.38-1.02-.38-1.68s.13-1.22.38-1.68.62-.82,1.08-1.07,1-.37,1.6-.37Z"/>
      <path class="cls-1" d="M445.76,63.04c-.63,0-1.18-.12-1.65-.37s-.83-.6-1.09-1.07c-.26-.46-.38-1.02-.38-1.68s.13-1.22.38-1.68.61-.82,1.07-1.07c.46-.25.99-.37,1.58-.37s1.12.12,1.55.37c.42.24.75.58.97,1s.34.9.34,1.43c0,.16,0,.31-.01.46,0,.14-.02.27-.04.38h-4.79v-1.14h4.07l-.79.29c0-.5-.11-.89-.34-1.16-.23-.27-.55-.41-.97-.41-.3,0-.57.07-.79.22-.22.14-.39.36-.5.64-.11.28-.17.64-.17,1.07s.06.77.19,1.05c.12.28.3.48.53.62.23.14.5.2.82.2.35,0,.64-.07.85-.2.22-.14.38-.32.5-.56l1.31.5c-.13.31-.32.58-.58.8-.26.22-.57.39-.92.51-.36.12-.74.17-1.15.17Z"/>
    </g>
    <g>
      <path class="cls-1" d="M279.28,4.39c1.26,0,2.24.33,2.92,1s1.03,1.63,1.03,2.9-.34,2.3-1.03,2.99c-.68.69-1.66,1.03-2.92,1.03h-2.5v-7.92h2.5ZM279.32,11.76c1.06,0,1.87-.3,2.43-.9.56-.6.85-1.46.85-2.57s-.28-1.9-.85-2.48c-.56-.58-1.37-.87-2.43-.87h-1.94v6.82h1.94Z"/>
      <path class="cls-1" d="M287.48,12.43c-.55,0-1.04-.12-1.48-.37s-.77-.61-1.01-1.07c-.24-.47-.37-1.03-.37-1.67s.12-1.21.37-1.67c.24-.47.57-.83.99-1.07s.89-.37,1.43-.37,1.01.12,1.39.36.68.57.89,1,.31.92.31,1.48c0,.07,0,.14,0,.21,0,.07-.01.13-.02.19h-4.98v-.54h4.72l-.3.08c0-.69-.19-1.24-.55-1.64-.36-.41-.85-.61-1.47-.61-.43,0-.81.1-1.14.31s-.58.5-.77.89c-.18.39-.28.85-.28,1.4s.09,1,.28,1.39c.19.39.45.69.79.89.34.2.73.31,1.18.31s.86-.1,1.19-.3.59-.48.77-.83l.48.28c-.14.29-.34.53-.58.74-.24.2-.52.36-.83.47-.31.11-.66.17-1.03.17Z"/>
      <path class="cls-1" d="M291.72,14.83V6.31h.54l.05,1.67-.08-.1c.1-.34.27-.64.49-.9.22-.26.49-.45.81-.59.32-.14.67-.2,1.04-.2.51,0,.97.12,1.38.37s.73.6.97,1.07c.24.46.36,1.02.36,1.68s-.12,1.21-.36,1.67c-.24.47-.57.83-.98,1.07s-.88.37-1.4.37c-.55,0-1.03-.15-1.44-.44-.41-.29-.69-.69-.85-1.18l.07-.11v4.13h-.6ZM294.47,11.9c.68,0,1.22-.23,1.61-.7.4-.46.59-1.1.59-1.9s-.2-1.43-.59-1.9c-.39-.46-.92-.7-1.6-.7-.42,0-.8.11-1.12.32-.32.21-.58.51-.77.9-.19.39-.28.85-.28,1.37s.09.98.28,1.37c.18.39.44.69.76.91s.69.32,1.11.32Z"/>
      <path class="cls-1" d="M302.67,8.36c0-.52-.14-.92-.42-1.21-.28-.29-.68-.43-1.2-.43-.46,0-.85.1-1.18.29-.33.2-.57.52-.73.98l-.49-.31c.18-.47.47-.84.88-1.1.41-.26.92-.39,1.53-.39.44,0,.83.08,1.16.23.33.16.59.39.77.69.18.3.28.68.28,1.14v3c0,.42.19.64.58.64.17,0,.31-.03.43-.08l-.04.48c-.14.07-.31.11-.53.11-.18,0-.36-.04-.52-.11-.16-.07-.29-.19-.39-.36s-.15-.4-.15-.68v-.32h.17c-.07.33-.23.62-.47.85-.24.23-.53.4-.85.5-.32.11-.64.16-.96.16-.38,0-.71-.06-1.01-.18-.3-.12-.53-.29-.7-.52-.17-.23-.25-.51-.25-.85,0-.45.15-.81.45-1.09.3-.28.72-.47,1.27-.57l2.48-.49v.5l-2.18.43c-.47.1-.82.24-1.06.42-.23.18-.35.44-.35.76s.12.59.37.77c.25.19.6.28,1.06.28.23,0,.47-.03.71-.1s.46-.17.67-.31c.2-.14.37-.32.49-.53.12-.21.18-.47.18-.77v-1.84Z"/>
      <path class="cls-1" d="M305.52,12.31v-6h.5l.07,1.26c.15-.42.4-.76.73-1.01s.74-.37,1.21-.37c.16,0,.3.02.43.05.13.03.23.08.31.16l-.13.53c-.09-.06-.18-.1-.29-.13-.1-.03-.26-.05-.47-.05-.3,0-.59.09-.86.28-.27.19-.49.45-.66.78s-.25.71-.25,1.15v3.36h-.6Z"/>
      <path class="cls-1" d="M313.1,6.31v.52h-4.04v-.52h4.04ZM310.86,4.64v6.08c0,.38.09.66.27.86.18.2.44.29.79.29.22,0,.42-.04.59-.11s.33-.19.46-.33l.23.49c-.15.15-.34.27-.58.37-.23.09-.49.14-.78.14-.31,0-.59-.06-.83-.17-.24-.12-.43-.29-.56-.53s-.2-.54-.2-.91v-6l.6-.17Z"/>
      <path class="cls-1" d="M314.39,12.31v-6h.54l.04,1.25c.18-.43.46-.77.86-1.01.4-.24.84-.36,1.33-.36.52,0,.97.12,1.35.37s.64.61.79,1.09c.1-.3.27-.57.5-.79.23-.22.5-.39.82-.51.31-.12.64-.18.97-.18.42,0,.79.08,1.13.25s.61.41.82.74.31.75.31,1.24v3.89h-.6v-3.83c0-.59-.16-1.03-.47-1.33-.32-.29-.73-.44-1.25-.44-.38,0-.72.09-1.04.27-.32.18-.57.43-.76.76-.19.32-.28.7-.28,1.12v3.46h-.6v-3.83c0-.59-.16-1.03-.48-1.33-.32-.29-.74-.44-1.25-.44-.36,0-.7.09-1.02.26s-.58.43-.78.76-.3.72-.3,1.18v3.4h-.6Z"/>
      <path class="cls-1" d="M328.35,12.43c-.55,0-1.04-.12-1.48-.37s-.77-.61-1.01-1.07c-.24-.47-.37-1.03-.37-1.67s.12-1.21.37-1.67c.24-.47.57-.83.99-1.07s.89-.37,1.43-.37,1.01.12,1.39.36.68.57.89,1,.31.92.31,1.48c0,.07,0,.14,0,.21,0,.07-.01.13-.02.19h-4.98v-.54h4.72l-.3.08c0-.69-.19-1.24-.55-1.64-.36-.41-.85-.61-1.47-.61-.43,0-.81.1-1.14.31s-.58.5-.77.89c-.18.39-.28.85-.28,1.4s.09,1,.28,1.39c.19.39.45.69.79.89.34.2.73.31,1.18.31s.86-.1,1.19-.3.59-.48.77-.83l.48.28c-.14.29-.34.53-.58.74-.24.2-.52.36-.83.47-.31.11-.66.17-1.03.17Z"/>
      <path class="cls-1" d="M332.59,12.31v-6h.54l.05,1.5-.1-.08c.11-.33.28-.61.5-.83.22-.23.49-.4.8-.52.31-.12.65-.18,1.01-.18.45,0,.84.08,1.19.25.34.17.61.42.81.74s.29.74.29,1.24v3.89h-.6v-3.7c0-.66-.16-1.14-.49-1.44s-.75-.46-1.27-.46c-.38,0-.73.09-1.05.26-.32.17-.59.42-.79.75s-.31.73-.31,1.2v3.38h-.6Z"/>
      <path class="cls-1" d="M342.85,6.31v.52h-4.04v-.52h4.04ZM340.61,4.64v6.08c0,.38.09.66.27.86.18.2.44.29.79.29.22,0,.42-.04.59-.11s.33-.19.46-.33l.23.49c-.15.15-.34.27-.58.37-.23.09-.49.14-.78.14-.31,0-.59-.06-.83-.17-.24-.12-.43-.29-.56-.53s-.2-.54-.2-.91v-6l.6-.17Z"/>
      <path class="cls-1" d="M350.28,6.19c.56,0,1.05.12,1.48.37s.76.61,1.01,1.07.37,1.03.37,1.67-.12,1.21-.37,1.67-.58.83-1.01,1.07-.92.37-1.48.37-1.05-.12-1.48-.37c-.43-.25-.76-.61-1.01-1.07-.24-.47-.37-1.03-.37-1.67s.12-1.21.37-1.67c.24-.47.58-.83,1.01-1.07.43-.25.92-.37,1.48-.37ZM350.28,6.71c-.46,0-.85.1-1.19.31s-.6.51-.79.89c-.19.39-.28.85-.28,1.4s.09,1,.28,1.39c.19.39.45.69.79.9s.73.31,1.19.31.85-.1,1.19-.31.6-.51.79-.9c.19-.39.28-.86.28-1.39s-.09-1.01-.28-1.4c-.19-.39-.45-.69-.79-.89s-.73-.31-1.19-.31Z"/>
      <path class="cls-1" d="M357.86,6.31v.52h-3.91v-.52h3.91ZM356.94,3.49c.22,0,.41.03.58.08.17.06.3.14.4.24l-.17.48c-.1-.1-.22-.16-.34-.2-.12-.04-.26-.06-.42-.06-.39,0-.7.11-.91.34-.22.22-.32.56-.32,1v6.95h-.6v-7.01c0-.27.04-.52.11-.74s.19-.41.34-.57c.15-.16.34-.28.56-.37.22-.09.48-.13.77-.13Z"/>
      <path class="cls-1" d="M283.34,24.53c-.15.51-.39.94-.72,1.28-.33.34-.72.6-1.16.77s-.94.25-1.48.25c-.78,0-1.46-.16-2.03-.49s-1.01-.8-1.32-1.4c-.31-.61-.46-1.34-.46-2.18s.15-1.58.46-2.18c.31-.61.75-1.08,1.32-1.4s1.24-.49,2.01-.49c.54,0,1.04.07,1.48.22.44.15.81.37,1.12.68.31.3.53.69.68,1.15l-1.5.64c-.14-.48-.34-.82-.62-1.03s-.64-.31-1.08-.31-.81.1-1.13.31-.57.51-.75.92c-.18.4-.26.9-.26,1.49s.08,1.08.25,1.49c.16.41.41.72.73.92.32.21.71.31,1.18.31.43,0,.81-.12,1.12-.35.32-.23.54-.58.67-1.06l1.52.46Z"/>
      <path class="cls-1" d="M287.33,20.59c.61,0,1.14.12,1.6.37s.82.6,1.08,1.07c.26.46.39,1.02.39,1.68s-.13,1.21-.39,1.67c-.26.47-.62.83-1.08,1.07s-.99.37-1.6.37-1.13-.12-1.6-.37-.83-.61-1.09-1.07-.39-1.03-.39-1.67.13-1.22.39-1.68.62-.82,1.09-1.07,1-.37,1.6-.37ZM287.33,21.82c-.3,0-.56.07-.77.21-.21.14-.37.35-.49.63s-.17.63-.17,1.06.06.78.17,1.06c.11.28.27.49.49.63.21.14.47.21.77.21s.55-.07.76-.21c.21-.14.37-.35.49-.63.11-.28.17-.63.17-1.06s-.06-.78-.17-1.06c-.11-.28-.27-.49-.49-.63-.21-.14-.47-.21-.76-.21Z"/>
      <path class="cls-1" d="M291.78,26.71v-6h1.48l.06,1.08c.2-.4.47-.7.82-.9.35-.2.73-.3,1.16-.3s.82.1,1.17.3c.35.2.61.5.79.89.13-.26.3-.48.52-.66.22-.18.46-.31.72-.4.26-.09.53-.13.8-.13.39,0,.75.08,1.07.24s.58.4.77.72c.19.32.29.73.29,1.22v3.94h-1.64v-3.61c0-.44-.1-.75-.29-.94-.19-.18-.44-.28-.74-.28-.24,0-.46.06-.67.18-.2.12-.36.3-.48.53-.12.24-.17.53-.17.88v3.23h-1.64v-3.61c0-.44-.1-.75-.29-.94-.2-.18-.45-.28-.75-.28-.21,0-.41.06-.62.17-.2.11-.37.29-.5.53s-.2.56-.2.95v3.18h-1.64Z"/>
      <path class="cls-1" d="M303.12,29.23v-8.52h1.48l.11,1.91-.2-.22c.07-.35.21-.66.4-.94.2-.27.45-.49.75-.64.3-.16.64-.23,1.02-.23.49,0,.92.12,1.31.37.38.25.69.6.91,1.06s.33,1.02.33,1.67-.11,1.22-.34,1.69-.53.83-.92,1.07-.83.37-1.33.37c-.53,0-.97-.15-1.31-.44-.35-.3-.59-.67-.71-1.12l.16-.25v4.21h-1.64ZM306.16,25.57c.44,0,.79-.16,1.04-.47.25-.32.38-.78.38-1.39s-.12-1.07-.37-1.39c-.24-.32-.59-.47-1.03-.47-.28,0-.53.07-.74.22-.21.15-.38.36-.5.64-.12.28-.18.61-.18,1s.06.72.17,1,.27.49.49.64c.21.15.46.22.74.22Z"/>
      <path class="cls-1" d="M312.73,26.83c-.4,0-.76-.07-1.08-.22-.32-.14-.57-.37-.76-.69-.19-.32-.28-.73-.28-1.23v-3.98h1.64v3.59c0,.46.1.79.29.97.19.18.47.27.83.27.17,0,.33-.03.49-.09.16-.06.3-.15.43-.28s.22-.29.29-.5.11-.45.11-.73v-3.23h1.64v6h-1.46l-.06-1.04c-.2.4-.47.69-.82.88s-.77.28-1.25.28Z"/>
      <path class="cls-1" d="M322.1,20.71v1.22h-4.67v-1.22h4.67ZM320.18,18.88v5.88c0,.29.07.5.22.63s.35.2.61.2c.2,0,.38-.03.53-.09.15-.06.29-.14.41-.25l.26,1.09c-.19.15-.43.27-.72.36s-.59.13-.91.13c-.4,0-.75-.06-1.06-.18-.31-.12-.55-.31-.72-.58-.17-.26-.26-.62-.26-1.06v-5.69l1.64-.46Z"/>
      <path class="cls-1" d="M326,26.83c-.63,0-1.18-.12-1.65-.37s-.83-.6-1.09-1.07c-.26-.46-.38-1.02-.38-1.68s.13-1.22.38-1.68.61-.82,1.07-1.07c.46-.25.99-.37,1.58-.37s1.12.12,1.55.37c.42.24.75.58.97,1s.34.9.34,1.43c0,.16,0,.31-.01.46,0,.14-.02.27-.04.38h-4.79v-1.14h4.07l-.79.29c0-.5-.11-.89-.34-1.16-.23-.27-.55-.41-.97-.41-.3,0-.57.07-.79.22-.22.14-.39.36-.5.64-.11.28-.17.64-.17,1.07s.06.77.19,1.05c.12.28.3.48.53.62.23.14.5.2.82.2.35,0,.64-.07.85-.2.22-.14.38-.32.5-.56l1.31.5c-.13.31-.32.58-.58.8-.26.22-.57.39-.92.51-.36.12-.74.17-1.15.17Z"/>
      <path class="cls-1" d="M330.17,26.71v-6h1.43l.11,1.18c.16-.42.39-.74.7-.96.31-.22.69-.34,1.16-.34.14,0,.26.01.37.04s.2.06.28.1l-.19,1.38c-.08-.03-.18-.06-.29-.07-.12-.02-.27-.02-.45-.02-.24,0-.47.06-.7.17-.22.12-.41.29-.55.53-.14.24-.22.53-.22.89v3.11h-1.64Z"/>
      <path class="cls-1" d="M341.75,18.67c.72,0,1.35.12,1.9.37.54.25,1.01.62,1.39,1.1l-.92,1.07c-.33-.42-.69-.72-1.07-.92s-.84-.29-1.35-.29c-.34,0-.61.04-.83.13-.22.09-.38.2-.48.35-.1.14-.15.3-.15.48,0,.22.08.4.25.55.17.15.46.27.86.37l1.48.34c.78.18,1.35.44,1.69.79s.51.8.51,1.35c0,.52-.14.97-.41,1.34-.27.37-.65.66-1.14.85-.49.2-1.05.29-1.68.29-.55,0-1.06-.07-1.52-.2-.46-.13-.87-.31-1.23-.55-.36-.23-.66-.5-.9-.8l.94-1.12c.18.26.41.48.68.68.27.2.58.36.93.47.35.12.71.17,1.1.17.33,0,.61-.04.83-.11.23-.08.4-.18.52-.32.12-.14.17-.31.17-.51s-.07-.39-.21-.53c-.14-.15-.4-.26-.77-.34l-1.61-.36c-.46-.11-.86-.26-1.19-.44s-.58-.41-.76-.7c-.17-.28-.26-.62-.26-1.01,0-.47.13-.9.38-1.27.26-.38.63-.67,1.11-.89.48-.22,1.07-.33,1.75-.33Z"/>
      <path class="cls-1" d="M349.14,20.59c.54,0,.99.08,1.36.23.37.16.67.37.9.64.23.27.39.57.49.89l-1.54.55c-.08-.36-.22-.63-.41-.82-.19-.18-.45-.28-.78-.28-.3,0-.56.07-.78.21-.22.14-.38.35-.49.64s-.17.64-.17,1.06.06.78.17,1.06c.12.28.28.49.5.62.22.14.48.2.77.2.24,0,.44-.04.61-.13s.31-.21.41-.37c.11-.16.18-.35.22-.58l1.49.48c-.09.36-.25.68-.49.95-.24.27-.55.48-.92.64-.38.15-.81.23-1.31.23-.62,0-1.16-.12-1.63-.37s-.84-.6-1.09-1.07c-.26-.46-.38-1.02-.38-1.68s.13-1.22.38-1.68.62-.82,1.08-1.07,1-.37,1.6-.37Z"/>
      <path class="cls-1" d="M354.01,19.85c-.34,0-.6-.07-.77-.22s-.25-.37-.25-.65.08-.52.25-.67c.17-.15.42-.22.77-.22s.6.07.77.22c.17.15.25.37.25.67s-.08.51-.25.65-.42.22-.77.22ZM354.83,20.71v6h-1.64v-6h1.64Z"/>
      <path class="cls-1" d="M359.35,26.83c-.63,0-1.18-.12-1.65-.37s-.83-.6-1.09-1.07c-.26-.46-.38-1.02-.38-1.68s.13-1.22.38-1.68.61-.82,1.07-1.07c.46-.25.99-.37,1.58-.37s1.12.12,1.55.37c.42.24.75.58.97,1s.34.9.34,1.43c0,.16,0,.31-.01.46,0,.14-.02.27-.04.38h-4.79v-1.14h4.07l-.79.29c0-.5-.11-.89-.34-1.16-.23-.27-.55-.41-.97-.41-.3,0-.57.07-.79.22-.22.14-.39.36-.5.64-.11.28-.17.64-.17,1.07s.06.77.19,1.05c.12.28.3.48.53.62.23.14.5.2.82.2.35,0,.64-.07.85-.2.22-.14.38-.32.5-.56l1.31.5c-.13.31-.32.58-.58.8-.26.22-.57.39-.92.51-.36.12-.74.17-1.15.17Z"/>
      <path class="cls-1" d="M363.51,26.71v-6h1.48l.1,1.8-.2-.19c.1-.39.25-.72.46-.97.21-.26.46-.45.76-.57s.63-.19.99-.19c.42,0,.79.08,1.11.24s.58.4.77.73c.19.32.28.73.28,1.22v3.94h-1.64v-3.47c0-.51-.1-.87-.3-1.06-.2-.2-.46-.29-.78-.29-.22,0-.44.05-.65.16-.21.11-.38.28-.52.52-.13.24-.2.56-.2.96v3.18h-1.64Z"/>
      <path class="cls-1" d="M373.67,20.59c.54,0,.99.08,1.36.23.37.16.67.37.9.64.23.27.39.57.49.89l-1.54.55c-.08-.36-.22-.63-.41-.82-.19-.18-.45-.28-.78-.28-.3,0-.56.07-.78.21-.22.14-.38.35-.49.64s-.17.64-.17,1.06.06.78.17,1.06c.12.28.28.49.5.62.22.14.48.2.77.2.24,0,.44-.04.61-.13s.31-.21.41-.37c.11-.16.18-.35.22-.58l1.49.48c-.09.36-.25.68-.49.95-.24.27-.55.48-.92.64-.38.15-.81.23-1.31.23-.62,0-1.16-.12-1.63-.37s-.84-.6-1.09-1.07c-.26-.46-.38-1.02-.38-1.68s.13-1.22.38-1.68.62-.82,1.08-1.07,1-.37,1.6-.37Z"/>
      <path class="cls-1" d="M380.5,26.83c-.63,0-1.18-.12-1.65-.37s-.83-.6-1.09-1.07c-.26-.46-.38-1.02-.38-1.68s.13-1.22.38-1.68.61-.82,1.07-1.07c.46-.25.99-.37,1.58-.37s1.12.12,1.55.37c.42.24.75.58.97,1s.34.9.34,1.43c0,.16,0,.31-.01.46,0,.14-.02.27-.04.38h-4.79v-1.14h4.07l-.79.29c0-.5-.11-.89-.34-1.16-.23-.27-.55-.41-.97-.41-.3,0-.57.07-.79.22-.22.14-.39.36-.5.64-.11.28-.17.64-.17,1.07s.06.77.19,1.05c.12.28.3.48.53.62.23.14.5.2.82.2.35,0,.64-.07.85-.2.22-.14.38-.32.5-.56l1.31.5c-.13.31-.32.58-.58.8-.26.22-.57.39-.92.51-.36.12-.74.17-1.15.17Z"/>
    </g>
    <rect class="cls-1" x="267.35" y="1" width=".5" height="66"/>
    <rect class="cls-1" x="325.73" y="-23" width=".5" height="116" transform="translate(360.98 -290.98) rotate(90)"/>
  </g>
</svg>