<?xml version="1.0" encoding="UTF-8"?>
<svg id="Layer_1" xmlns="http://www.w3.org/2000/svg" viewBox="0 0 980 260">
  <defs>
    <style>
      .cls-1 {
        fill: #fff;
      }
    </style>
  </defs>
  <g>
    <g>
      <path class="cls-1" d="M528.34,26.64l-3.04,2.47c-2.4-6.71-6.85-9.54-14.49-9.54-8.41,0-13.36,4.24-13.36,9.68,0,5.16,3.46,7.77,14.77,9.68,12.3,2.12,16.75,5.8,16.75,12.72,0,7.56-7.07,12.72-17.53,12.72-9.83,0-16.82-4.1-19.3-11.17l3.11-2.4c1.91,6.72,7.92,10.32,16.26,10.32s13.78-3.32,13.78-9.26c0-4.88-3.53-7.63-14.06-9.47-13.08-2.19-17.53-5.8-17.53-12.79s6.43-13.29,17.03-13.29c8.69,0,14.63,3.39,17.6,10.32Z"/>
      <path class="cls-1" d="M556.9,64.38c-12.87,0-21.21-9.26-21.21-24.03s8.41-24.03,21.13-24.03c9.4,0,15.41,3.96,18.1,11.52l-3.46,1.63c-2.19-6.57-6.79-9.9-14.42-9.9-10.53,0-17.6,7.92-17.6,20.78s6.86,20.78,17.46,20.78c7.49,0,13-3.75,15.13-10.6l3.53,1.34c-2.69,7.92-9.54,12.51-18.66,12.51Z"/>
      <path class="cls-1" d="M620.44,17.03v46.65h-3.53v-22.05h-28.84v22.05h-3.53V17.03h3.53v21.28h28.84v-21.28h3.53Z"/>
      <path class="cls-1" d="M673.73,40.35c0,14.77-8.27,24.03-21.49,24.03s-21.49-9.26-21.49-24.03,8.27-24.03,21.49-24.03,21.49,9.26,21.49,24.03ZM634.5,40.35c0,12.86,6.79,20.78,17.74,20.78s17.81-7.92,17.81-20.78-6.86-20.78-17.81-20.78-17.74,7.92-17.74,20.78Z"/>
      <path class="cls-1" d="M724.06,40.35c0,14.77-8.27,24.03-21.49,24.03s-21.49-9.26-21.49-24.03,8.27-24.03,21.49-24.03,21.49,9.26,21.49,24.03ZM684.83,40.35c0,12.86,6.79,20.78,17.74,20.78s17.81-7.92,17.81-20.78-6.86-20.78-17.81-20.78-17.74,7.92-17.74,20.78Z"/>
      <path class="cls-1" d="M765.9,60.43v3.25h-31.53V17.03h3.53v43.4h27.99Z"/>
      <path class="cls-1" d="M832.2,40.35c0,14.77-8.27,24.03-21.49,24.03s-21.49-9.26-21.49-24.03,8.27-24.03,21.49-24.03,21.49,9.26,21.49,24.03ZM792.97,40.35c0,12.86,6.79,20.78,17.74,20.78s17.81-7.92,17.81-20.78-6.86-20.78-17.81-20.78-17.74,7.92-17.74,20.78Z"/>
      <path class="cls-1" d="M846.05,20.28v18.02h22.41v3.32h-22.41v22.05h-3.53V17.03h31.81v3.25h-28.27Z"/>
      <path class="cls-1" d="M515.26,131.53c-13.5,0-21.98-9.19-21.98-24.03s8.55-24.03,21.91-24.03c9.26,0,15.83,3.89,18.66,11.45l-7.14,3.18c-1.84-5.51-5.3-8.06-11.1-8.06-8.69,0-14.42,6.36-14.42,17.46s5.3,17.46,14.14,17.46c5.94,0,10.25-2.97,12.01-8.91l7.21,2.4c-2.9,8.55-10.18,13.08-19.3,13.08Z"/>
      <path class="cls-1" d="M584.25,107.5c0,14.84-8.48,24.03-22.05,24.03s-21.98-9.19-21.98-24.03,8.48-24.03,21.98-24.03,22.05,9.19,22.05,24.03ZM548.13,107.5c0,11.1,5.3,17.46,14.06,17.46s14.14-6.36,14.14-17.46-5.3-17.46-14.14-17.46-14.06,6.36-14.06,17.46Z"/>
      <path class="cls-1" d="M641.78,130.83h-6.93v-27l.5-12.86h-.07l-14.21,39.87h-6.29l-14.21-39.87h-.07l.56,12.86v27h-7v-46.65h11.24l9.4,27,3.25,11.1h.14l3.32-11.1,9.33-27h11.03v46.65Z"/>
      <path class="cls-1" d="M688.58,98.74c0,9.05-6.36,14.49-16.4,14.49h-10.39v17.6h-7.57v-46.65h17.95c10.04,0,16.4,5.44,16.4,14.56ZM680.73,98.74c0-5.3-3.04-8.13-9.75-8.13h-9.19v16.19h9.19c6.71,0,9.75-2.76,9.75-8.06Z"/>
      <path class="cls-1" d="M734.66,112.94c0,12.37-6.72,18.59-19.08,18.59s-19.09-6.22-19.09-18.59v-28.77h7.63v27.85c0,8.84,3.61,12.93,11.45,12.93s11.45-4.1,11.45-12.93v-27.85h7.63v28.77Z"/>
      <path class="cls-1" d="M781.17,90.68h-15.98v40.15h-7.56v-40.15h-15.97v-6.5h39.51v6.5Z"/>
      <path class="cls-1" d="M796.36,130.83h-7.57v-46.65h7.57v46.65Z"/>
      <path class="cls-1" d="M847.04,130.83h-8.98l-18.02-29.4-4.52-8.62h-.07l.28,7.92v30.11h-6.93v-46.65h8.91l17.95,29.33,4.59,8.69h.07l-.28-7.92v-30.11h7v46.65Z"/>
      <path class="cls-1" d="M898.5,106.72v24.1h-5.58l-.28-5.94c-2.62,4.17-7.35,6.64-14.21,6.64-13.08,0-21.63-9.05-21.63-24.03s8.76-24.03,22.19-24.03c9.68,0,15.62,3.46,19.23,11.03l-6.93,3.32c-1.84-5.16-6.29-7.77-12.16-7.77-8.76,0-14.42,6.36-14.42,17.46s5.02,17.53,14.56,17.53c7.07,0,12.51-3.53,12.51-10.74v-1.34h-14.28v-6.22h20.99Z"/>
      <path class="cls-1" d="M965.72,128.85l-.85,2.69c-3.39,0-5.94-1.2-10.39-6.01-3.32,3.68-7.99,6.01-14.07,6.01-8.2,0-14.14-4.59-14.14-11.38,0-6.43,3.89-10.46,11.8-14.77-4.31-5.66-5.79-8.27-5.79-11.88,0-5.37,3.82-9.9,10.46-9.9,5.58,0,10.18,2.9,10.18,8.98,0,5.02-1.84,8.77-10.25,13.57,1.34,1.77,2.9,3.82,4.81,6.22,2.76,3.53,5.02,6.36,6.85,8.55,2.62-4.03,3.89-9.47,3.68-15.55l2.9.28c.21,6.15-1.27,12.58-4.59,17.53,4.17,4.6,6.29,5.65,9.4,5.65ZM952.5,123.33c-1.98-2.33-4.38-5.23-7.35-8.98-2.05-2.54-3.75-4.74-5.23-6.64-7.28,4.17-10.32,7.21-10.32,12.23,0,5.3,4.8,8.69,10.6,8.69,5.16,0,9.33-1.91,12.3-5.3ZM935.6,93.44c0,2.9.78,4.52,5.23,10.39,7.56-4.1,8.91-7.35,8.91-11.17s-2.69-6.01-7.07-6.01-7.07,2.9-7.07,6.79Z"/>
      <path class="cls-1" d="M535.55,174.65c0,14.98-8.55,23.33-23.18,23.33h-16.47v-46.65h16.47c14.63,0,23.18,8.34,23.18,23.33ZM527.63,174.65c0-10.74-5.44-16.89-15.27-16.89h-8.9v33.79h8.9c9.82,0,15.27-6.15,15.27-16.89Z"/>
      <path class="cls-1" d="M570.11,185.75h-19.65l-4.45,12.23h-7.77l17.6-46.65h9.05l17.6,46.65h-7.99l-4.38-12.23ZM567.85,179.6l-5.37-14.98-2.12-6.72h-.21l-1.98,6.57-5.51,15.13h15.2Z"/>
      <path class="cls-1" d="M617.68,157.83h-15.98v40.15h-7.56v-40.15h-15.97v-6.5h39.51v6.5Z"/>
      <path class="cls-1" d="M645.32,185.75h-19.65l-4.45,12.23h-7.77l17.6-46.65h9.05l17.6,46.65h-7.99l-4.38-12.23ZM643.06,179.6l-5.37-14.98-2.12-6.72h-.21l-1.98,6.57-5.51,15.13h15.2Z"/>
      <path class="cls-1" d="M718.19,160.09l-5.72,5.16c-2.61-5.58-6.22-8.06-12.86-8.06s-10.25,2.97-10.25,6.93c0,3.75,2.9,5.73,11.95,7.35,12.51,2.19,17.11,6.08,17.11,13.57,0,8.34-7.56,13.64-18.59,13.64-10.18,0-16.47-3.68-20.08-9.47l5.3-5.3c3.04,5.65,7.71,8.2,14.7,8.2s10.74-2.33,10.74-6.64c0-3.32-2.83-5.23-11.59-6.86-12.79-2.4-17.53-6.29-17.53-13.71,0-7.92,6.79-14.28,18.17-14.28,8.62,0,14.56,3.11,18.66,9.47Z"/>
      <path class="cls-1" d="M746.96,198.68c-13.5,0-21.98-9.19-21.98-24.03s8.55-24.03,21.91-24.03c9.26,0,15.83,3.89,18.66,11.45l-7.14,3.18c-1.84-5.51-5.3-8.06-11.1-8.06-8.69,0-14.42,6.36-14.42,17.46s5.3,17.46,14.14,17.46c5.94,0,10.25-2.97,12.01-8.91l7.21,2.4c-2.9,8.55-10.18,13.08-19.3,13.08Z"/>
      <path class="cls-1" d="M782.09,197.97h-7.57v-46.65h7.57v46.65Z"/>
      <path class="cls-1" d="M829.3,191.47v6.5h-34.78v-46.65h33.79v6.5h-26.22v13.43h20.5v6.36h-20.5v13.85h27.21Z"/>
      <path class="cls-1" d="M876.3,197.97h-8.98l-18.02-29.4-4.52-8.62h-.07l.28,7.92v30.11h-6.93v-46.65h8.91l17.95,29.33,4.59,8.69h.07l-.28-7.92v-30.11h7v46.65Z"/>
      <path class="cls-1" d="M908.04,198.68c-13.5,0-21.98-9.19-21.98-24.03s8.55-24.03,21.91-24.03c9.26,0,15.83,3.89,18.66,11.45l-7.14,3.18c-1.84-5.51-5.3-8.06-11.1-8.06-8.69,0-14.42,6.36-14.42,17.46s5.3,17.46,14.14,17.46c5.94,0,10.25-2.97,12.01-8.91l7.21,2.4c-2.9,8.55-10.18,13.08-19.3,13.08Z"/>
      <path class="cls-1" d="M970.38,191.47v6.5h-34.78v-46.65h33.79v6.5h-26.22v13.43h20.5v6.36h-20.5v13.85h27.21Z"/>
    </g>
    <g>
      <path class="cls-1" d="M514.37,223.64h-7.47v18.77h-3.53v-18.77h-7.47v-3.04h18.47v3.04Z"/>
      <path class="cls-1" d="M532.03,231.7v10.71h-3.53v-9.58c0-3.27-1.52-4.36-3.53-4.36-2.18,0-4.49,1.42-4.49,5.22v8.72h-3.53v-23.95h3.53v10.08c1.09-2.05,3.04-2.97,5.35-2.97,3.5,0,6.21,2.02,6.21,6.14Z"/>
      <path class="cls-1" d="M551.37,235.47h-12.09c.4,2.91,2.11,4.46,4.79,4.46,2.18,0,3.64-.79,4.16-2.25l2.94,1.22c-1.19,2.44-3.47,3.83-7.1,3.83-5.22,0-8.29-3.2-8.29-8.59s2.91-8.59,8.06-8.59,7.66,3.3,7.66,8.1c0,.63-.06,1.39-.13,1.82ZM539.31,232.76h8.89c-.33-2.78-1.88-4.39-4.36-4.39-2.61,0-4.16,1.55-4.53,4.39Z"/>
      <path class="cls-1" d="M583.42,234.05c0,5.78-3.14,8.69-8.92,8.69s-8.92-2.91-8.92-8.69v-13.45h3.57v13.02c0,4.13,1.69,6.05,5.35,6.05s5.35-1.92,5.35-6.05v-13.02h3.57v13.45Z"/>
      <path class="cls-1" d="M603.43,231.7v10.71h-3.53v-9.58c0-3.27-1.52-4.36-3.53-4.36-2.18,0-4.49,1.39-4.49,5.19v8.75h-3.53v-16.52h3.14l.17,2.78c1.12-2.18,3.2-3.11,5.58-3.11,3.5,0,6.21,2.02,6.21,6.14Z"/>
      <path class="cls-1" d="M607.54,220.9c0-1.39.86-2.18,2.38-2.18s2.35.79,2.35,2.18-.82,2.21-2.35,2.21-2.38-.83-2.38-2.21ZM611.67,242.41h-3.53v-16.52h3.53v16.52Z"/>
      <path class="cls-1" d="M631.11,225.89l-6.58,16.52h-3.87l-6.61-16.52h3.9l4.66,13.65,4.79-13.65h3.7Z"/>
      <path class="cls-1" d="M648.01,235.47h-12.09c.4,2.91,2.11,4.46,4.79,4.46,2.18,0,3.64-.79,4.16-2.25l2.94,1.22c-1.19,2.44-3.47,3.83-7.1,3.83-5.22,0-8.29-3.2-8.29-8.59s2.91-8.59,8.06-8.59,7.66,3.3,7.66,8.1c0,.63-.07,1.39-.13,1.82ZM635.95,232.76h8.89c-.33-2.78-1.88-4.39-4.36-4.39-2.61,0-4.16,1.55-4.53,4.39Z"/>
      <path class="cls-1" d="M662.26,225.89l-.56,3.24c-.46-.26-1.19-.43-2.08-.43-1.98,0-4.16,1.59-4.16,4.96v8.75h-3.53v-16.52h3.01l.33,2.94c.89-2.15,2.64-3.27,5.19-3.27.66,0,1.35.1,1.82.33Z"/>
      <path class="cls-1" d="M663,239.27l2.38-2.05c.86,1.98,2.81,2.74,5.12,2.74s3.53-.86,3.53-1.98c0-1.02-.96-1.62-3.83-2.18-4.92-.93-6.64-2.35-6.64-5.12s2.51-5.12,6.94-5.12c3.67,0,5.75,1.19,6.94,3.73l-2.51,1.85c-.82-1.98-2.24-2.81-4.39-2.81s-3.44.99-3.44,2.02c0,1.19.96,1.82,4.06,2.38,4.72.86,6.41,2.28,6.41,5.02,0,2.91-2.64,4.99-7.2,4.99-3.21,0-5.98-1.06-7.37-3.47Z"/>
      <path class="cls-1" d="M680.63,220.9c0-1.39.86-2.18,2.38-2.18s2.35.79,2.35,2.18-.82,2.21-2.35,2.21-2.38-.83-2.38-2.21ZM684.76,242.41h-3.53v-16.52h3.53v16.52Z"/>
      <path class="cls-1" d="M700.33,241.31c-1.06.89-2.61,1.42-4.4,1.42-2.84,0-5.02-1.29-5.05-4.69v-9.38h-3.14v-2.78h3.14v-3.86l3.53-.99v4.86h5.78v2.78h-5.78v8.79c0,1.62.96,2.35,2.41,2.35,1.12,0,1.95-.4,2.68-1.06l.83,2.58Z"/>
      <path class="cls-1" d="M710.62,244.35c-1.45,3.83-3.14,5.16-6.11,5.16-1.72,0-2.91-.4-3.9-1.32l1.03-2.71c.76.92,1.69,1.19,2.71,1.19,1.22,0,2.15-.46,2.87-2.38l.73-1.78-1.72-4.1-5.15-12.52h3.96l3.64,10.38.96,3.11,1.12-3.4,3.44-10.08h3.67l-7.24,18.47Z"/>
      <path class="cls-1" d="M745.17,234.15c0,5.38-3.07,8.59-8.23,8.59s-8.23-3.2-8.23-8.59,3.07-8.59,8.23-8.59,8.23,3.2,8.23,8.59ZM732.28,234.15c0,3.73,1.69,5.81,4.66,5.81s4.69-2.08,4.69-5.81-1.72-5.81-4.69-5.81-4.66,2.08-4.66,5.81Z"/>
      <path class="cls-1" d="M753.51,225.89h5.35v2.78h-5.25v13.74h-3.53v-13.74h-3.11v-2.78h3.11v-2.38c0-3.34,2.11-5.29,5.78-5.29,1.32,0,2.48.3,3.11.79l-.66,2.58c-.5-.33-1.09-.5-1.88-.5-1.85,0-2.91.79-2.91,2.68v2.11Z"/>
      <path class="cls-1" d="M788.75,220.6v21.81h-3.57v-9.52h-10.77v9.52h-3.53v-21.81h3.53v9.25h10.77v-9.25h3.57Z"/>
      <path class="cls-1" d="M809.33,234.15c0,5.38-3.07,8.59-8.23,8.59s-8.23-3.2-8.23-8.59,3.07-8.59,8.23-8.59,8.23,3.2,8.23,8.59ZM796.44,234.15c0,3.73,1.69,5.81,4.66,5.81s4.69-2.08,4.69-5.81-1.72-5.81-4.69-5.81-4.66,2.08-4.66,5.81Z"/>
      <path class="cls-1" d="M828.31,231.7v10.71h-3.53v-9.58c0-3.27-1.52-4.36-3.53-4.36-2.18,0-4.49,1.39-4.49,5.19v8.75h-3.53v-16.52h3.14l.17,2.78c1.12-2.18,3.2-3.11,5.58-3.11,3.5,0,6.21,2.02,6.21,6.14Z"/>
      <path class="cls-1" d="M847.92,244.06c0,3.44-3.7,5.45-8.49,5.45-5.45,0-7.86-1.78-7.86-4.23,0-1.49,1.06-2.68,2.94-3.17-1.29-.59-2.31-1.62-2.31-3.14,0-1.72,1.03-2.78,2.58-3.3-1.65-.96-2.54-2.54-2.54-4.53,0-3.37,2.87-5.58,7.17-5.58,1.26,0,2.38.2,3.34.53.59-2.35,2.15-3.73,4.86-3.67l.59,2.74c-2.15-.07-3.4.56-3.9,1.68,1.45.99,2.28,2.48,2.28,4.3,0,3.37-2.84,5.58-7.17,5.58-1.02,0-1.92-.1-2.74-.3-1.12.26-1.58.86-1.58,1.82,0,1.02.79,1.59,2.05,1.59h5.52c3.34,0,5.29,1.59,5.29,4.23ZM844.88,244.45c0-1.06-.69-1.69-2.87-1.69h-4.46c-2.01,0-2.97.66-2.97,1.75,0,1.45,1.69,2.35,5.19,2.35s5.12-1.12,5.12-2.41ZM835.86,231.14c0,1.88,1.52,3.14,3.53,3.14s3.57-1.25,3.57-3.14-1.52-3.11-3.57-3.11-3.53,1.26-3.53,3.11Z"/>
      <path class="cls-1" d="M868.33,231.9l-3.53,3.8v6.71h-3.53v-21.81h3.53v10.87l10.01-10.87h4.33l-8.26,8.92,8.46,12.89h-4.16l-6.84-10.51Z"/>
      <path class="cls-1" d="M896.27,234.15c0,5.38-3.07,8.59-8.23,8.59s-8.23-3.2-8.23-8.59,3.07-8.59,8.23-8.59,8.23,3.2,8.23,8.59ZM883.38,234.15c0,3.73,1.69,5.81,4.66,5.81s4.69-2.08,4.69-5.81-1.72-5.81-4.69-5.81-4.66,2.08-4.66,5.81Z"/>
      <path class="cls-1" d="M915.25,231.7v10.71h-3.53v-9.58c0-3.27-1.52-4.36-3.53-4.36-2.18,0-4.49,1.39-4.49,5.19v8.75h-3.53v-16.52h3.14l.17,2.78c1.12-2.18,3.2-3.11,5.58-3.11,3.5,0,6.21,2.02,6.21,6.14Z"/>
      <path class="cls-1" d="M934.86,244.06c0,3.44-3.7,5.45-8.49,5.45-5.45,0-7.86-1.78-7.86-4.23,0-1.49,1.06-2.68,2.94-3.17-1.29-.59-2.31-1.62-2.31-3.14,0-1.72,1.03-2.78,2.58-3.3-1.65-.96-2.54-2.54-2.54-4.53,0-3.37,2.87-5.58,7.17-5.58,1.26,0,2.38.2,3.34.53.59-2.35,2.15-3.73,4.86-3.67l.59,2.74c-2.15-.07-3.4.56-3.9,1.68,1.45.99,2.28,2.48,2.28,4.3,0,3.37-2.84,5.58-7.17,5.58-1.02,0-1.92-.1-2.74-.3-1.12.26-1.58.86-1.58,1.82,0,1.02.79,1.59,2.05,1.59h5.52c3.34,0,5.29,1.59,5.29,4.23ZM931.82,244.45c0-1.06-.69-1.69-2.87-1.69h-4.46c-2.01,0-2.97.66-2.97,1.75,0,1.45,1.69,2.35,5.19,2.35s5.12-1.12,5.12-2.41ZM922.8,231.14c0,1.88,1.52,3.14,3.53,3.14s3.57-1.25,3.57-3.14-1.52-3.11-3.57-3.11-3.53,1.26-3.53,3.11Z"/>
    </g>
  </g>
  <g>
    <path class="cls-1" d="M401.38,13.45c-37.57-15.17-88.71-10.76-113.53,24.29-.46.04-.92.05-1.38.1-41.33,4.32-53.43,43.83-34.27,77.32,11.38,19.89,31.02,37.22,62.87,53.64,0,0-54.29-54.54-32.58-115.46l-2.1-.79c-13.53,32.06-5.39,66.74,11.48,95.75-23.38-14.45-44.03-37.04-44.35-65.37-.1-22.62,17.47-38.44,39.47-39.55,32.19-1.6,61.91,16.53,86.36,35.89l2.74,2.24,63.09-41.75c-10.56-11.43-23.41-20.7-37.79-26.32ZM351.22,53.26c-18.34-9.18-38.55-16.38-59.33-15.75,32.53-39.93,101.9-33.86,136.58.97l-51.63,29.7c-8.28-5.38-16.76-10.49-25.62-14.91Z"/>
    <path class="cls-1" d="M296.85,245.98c37.57,15.17,88.71,10.76,113.53-24.29.46-.04.92-.05,1.38-.1,41.33-4.32,53.43-43.83,34.27-77.32-11.38-19.89-31.02-37.22-62.87-53.64,0,0,54.29,54.54,32.58,115.46l2.1.79c13.53-32.06,5.39-66.74-11.48-95.75,23.38,14.45,44.03,37.04,44.35,65.37.1,22.62-17.47,38.44-39.47,39.55-32.19,1.6-61.91-16.53-86.36-35.89l-2.74-2.24-63.09,41.75c10.56,11.43,23.41,20.7,37.79,26.32ZM347.01,206.17c18.34,9.18,38.55,16.38,59.33,15.75-32.53,39.93-101.9,33.86-136.58-.97l51.63-29.7c8.28,5.38,16.76,10.49,25.62,14.91Z"/>
  </g>
  <g>
    <path class="cls-1" d="M118.84,143.06l-.05,1.43s1.83-2.51,3.13-3.5c-1.4.24-3.08,2.08-3.08,2.08Z"/>
    <path class="cls-1" d="M118.84,139.34v1.51s1.24-2.16,3.18-3.07c-1.13-.14-3.18,1.56-3.18,1.56Z"/>
    <path class="cls-1" d="M118.87,135.89l-.03,1.19s1.94-2.08,3.1-2.99c-1.43.14-3.07,1.81-3.07,1.81Z"/>
    <path class="cls-1" d="M118.97,132.27l-.03,1.41s1.08-2.13,3.24-2.99c-1.54-.22-3.21,1.59-3.21,1.59Z"/>
    <path class="cls-1" d="M119,128.66c0,.89-.03,1.1-.03,1.1,0,0,1.75-1.81,3.34-2.83-.22-.16-2.88.67-3.32,1.73Z"/>
    <path class="cls-1" d="M119.05,126.42s1.48-1.99,2.94-2.72c-1.02-.22-2.91,1.24-2.91,1.24l-.03,1.48Z"/>
    <path class="cls-1" d="M119.19,121.76l-.03,1.18s1.89-2.16,2.89-2.69c-1.89.51-2.86,1.51-2.86,1.51Z"/>
    <path class="cls-1" d="M119.03,118.9v1.29s1.27-2.35,3.29-3.29c-1.89.35-3.29,1.99-3.29,1.99Z"/>
    <path class="cls-1" d="M118.95,115.64l.03,1.27s1.32-2.05,3.26-3.26c-1.78.13-3.29,1.99-3.29,1.99Z"/>
    <path class="cls-1" d="M118.87,113.5s1.59-2.37,3.32-3.32c-1.21-.05-3.32,2.11-3.32,2.11v1.21Z"/>
    <path class="cls-1" d="M118.95,108.84l-.05,1.32s1.37-2,3.34-2.99c-1.92.08-3.29,1.67-3.29,1.67Z"/>
    <path class="cls-1" d="M118.87,105.63l.03,1.48s1.27-2.24,3.5-3.32c-2.02.46-3.53,1.84-3.53,1.84Z"/>
    <path class="cls-1" d="M122.37,100.32c-2.24.46-3.51,2-3.51,2l.05,1.29s1.05-1.51,3.45-3.29Z"/>
    <path class="cls-1" d="M122.4,97.3c-1.86.35-3.61,1.89-3.61,1.89l.08,1.19s2.4-2.4,3.53-3.07Z"/>
    <path class="cls-1" d="M111.62,162.73c.85.79,2.51,2.39,2.51,2.39v-1.33s-.69-.97-2.51-1.05Z"/>
    <path class="cls-1" d="M114.16,160.85v-1.54s-1.26-1.05-2.62-1.05c1.18,1.05,2.62,2.59,2.62,2.59Z"/>
    <path class="cls-1" d="M111.7,155.05c1.21,1.08,2.46,2.39,2.46,2.39v-1.28s-.72-.92-2.46-1.1Z"/>
    <path class="cls-1" d="M114.24,154.23v-1.18s-1.13-.98-2.77-1c1.36,1.05,2.77,2.18,2.77,2.18Z"/>
    <path class="cls-1" d="M114.22,149.4s-.99-1.27-2.94-1.09c1.67,1.13,2.94,2.26,2.94,2.26v-1.18Z"/>
    <path class="cls-1" d="M111.1,144.88c1.67.77,2.67,1.63,3.12,2.4,0,0,.04-1.09-.05-1.36-.09-.27-1.4-1.49-3.07-1.04Z"/>
    <path class="cls-1" d="M114.13,144.11v-1.09s-1.4-1.58-3.03-1.36c1.49.95,3.03,2.44,3.03,2.44Z"/>
    <path class="cls-1" d="M111.1,137.69c2.22,1.49,2.98,2.71,2.98,2.71v-1.4s-.86-1.4-2.98-1.31Z"/>
    <path class="cls-1" d="M113.95,134.89s-.95-1.04-2.62-.99c1.49.91,2.62,2.08,2.62,2.08v-1.09Z"/>
    <path class="cls-1" d="M113.95,132.63v-1.04s-.54-1.04-2.76-1.18c1.4.95,2.76,2.22,2.76,2.22Z"/>
    <path class="cls-1" d="M111.33,126.97c1.63,1.09,2.53,2.22,2.53,2.22v-1.09s-.63-.81-2.53-1.13Z"/>
    <path class="cls-1" d="M113.81,125.84v-.9s-1.22-1.13-2.62-1.13c1.4.95,2.62,2.03,2.62,2.03Z"/>
    <path class="cls-1" d="M113.95,123.22v-1.4s-1.58-.95-2.89-1.09c2.12,1.4,2.89,2.49,2.89,2.49Z"/>
    <path class="cls-1" d="M113.68,118.38s-.95-1.04-3.03-.9c1.94.86,3.03,1.85,3.03,1.85v-.95Z"/>
    <path class="cls-1" d="M113.72,116.08v-1.22s-.72-.81-3.03-.77c1.13.54,2.67,1.31,3.03,1.99Z"/>
    <path class="cls-1" d="M113.81,112.73v-1.36s-.95-.9-2.98-.82c1.9,1.31,2.98,2.17,2.98,2.17Z"/>
    <path class="cls-1" d="M113.63,109.29v-1.26s-1.67-.77-2.94-.73c1.67,1.09,2.94,1.99,2.94,1.99Z"/>
    <path class="cls-1" d="M113.63,104.46s-1.45-1.36-2.89-.81c1.54.68,2.89,1.76,2.89,1.76v-.95Z"/>
    <path class="cls-1" d="M113.68,101.92v-1.27s-1.67-.86-2.89-.68c1.54.54,2.89,1.94,2.89,1.94Z"/>
    <path class="cls-1" d="M113.45,98.71v-1.22s-.68-1.04-2.8-.99c1.63.95,2.8,2.22,2.8,2.22Z"/>
    <path class="cls-1" d="M84.68,122.23c.6-.79.75-.44.75.4s.25,5.67-.2,6.71c-.45,1.04.3,1.44.89.35.6-1.09.94-3.33.94-8.45,0-.55,1.14.79,2.54,1.34,1.39.55,1.89.25.7-.59-1.19-.84-2.34-1.89-2.98-2.54v-2.24s1.94,0,2.93-.25c.99-.25,1.64-1.04.35-1.04s-3.23-.05-3.23-.05v-3.84c0-1.23-.5-1.48-.94-1.48s-1.09.25-1.09,1.84v3.48h-4.82s-1.49,2.68-1.74,3.13c-.25.45.94-.3,1.79-.65.85-.35,4.13-.94,4.77-.94,0,0,.27,2.32-1.49,3.78-1.74,1.44-2.88,2.93-8,4.18-.5.12.3,1.19,2.04,1.44,1.74.25,3.94-.75,6.81-4.58Z"/>
    <path class="cls-1" d="M102.98,111.81h-3.93c.13-.61-.87-1.74-1.18-1.74s-.17.13-.74,1.79c-.57,1.66-3.14,3.75-3.14,3.75,0,0-.22.34.35.35,2.01.05,4.01-2.62,4.01-2.62h4.15c.52,0,.74.18.52.7-.22.52-2.37,4.24-2.37,4.24-1.11.04-4.5.02-5.62-.05-1.05-.07-1.31-.44-1.61.26-.3.7-.57,1.66-.57,1.66.39.61,1.75-.39,2.31-.39l3.61.03c.79,0,.87.05.87.05-.73,1.21-3.82,5.44-7.86,7.37-1.92.92-4.25-.72-4.25-.28-.14,1.15,1.44,2.16,3.62,2.52,1.88.31,4.57-2.35,5.62-3.43,1.05-1.09,1.34-.55,1.48-.05,1.09,3.84,1.44,4.63,2.14,4.63h4.67c.61,0,.92-.61,1.48-3.36.57-2.75.96-3.97.26-4.32-.7-.35-6.02-.19-6.02-.19-.7,0-.91-.15-.62-.47,1.06-1.28,1.78-2.53,1.78-2.53,0,0,6.11.04,6.64-.18.44-.39,1.07-2.08.85-2.3-.22-.22-1.18.98-1.75.98h-4.89s2.45-4.69,2.8-5.3c.44-.13.7-.39.65-.83-.04-.44-1.57-1.27-1.88-1.05-.31.22-1.4.78-1.4.78ZM100.45,124.38c.27-.3,3.14-.13,3.58-.09.44.04,1,.39.78,1.53-.22,1.13-.52,2.53-.87,2.7-.35.18-2.36.22-2.62.09-.26-.13-1.83-3.14-.87-4.23Z"/>
    <path class="cls-1" d="M89.35,147.06c-.32-.27-1.81,1.28-1.81,1.28,0,0,.16-2.13.16-2.61.91-.16,3.32-.48,3.35-1.07.05-.96-3.51-.64-3.51-.64,0,0,.16-2.39.11-3.51-.03-.56-1.06-1.04-1.38-1.01,0,0-.96.16-.96.96v3.62h-2.98s.16-.58.11-1.12c-.05-.53-.91-1.28-1.28-.69,0,0-.53,1.54-.85,2.71-.32,1.17-1.44,2.82-1.91,3.56-.48.75-.05,1.6,1.01.96,1.06-.64,2.55-2.5,2.55-3.25.8,0,3.51-.21,3.51-.21l-.11,3.56s-2.98,2.66-6.6,3.51c-.93.22-1.65,1.01-.27,1.86.64.27,2.71.1,5.16-1.92,0,0,1.17-.9,1.38-.9s.05,3.14.05,4.04.96.69,1.28-.75c.32-1.44.8-4.95.8-4.95,0,0,2.92-2.56,2.18-3.46Z"/>
    <path class="cls-1" d="M106.79,142.71c-1.44.42-5.69,1.12-11.12,1.01-.54-.01-.16-.96,0-1.81.16-.85.21-2.56-.91-2.56s-.75.96-.75.96c0,0,.21,3.94-3.35,7.24-.32.29-.41,1.21,1.06.42,1.63-.87,2.56-2.45,2.56-2.45h2.29c.27,0-1.84,7.9-7.61,9.05,0,0-.75.32.27.75,1.01.42,4.13-.62,5.78-2.64,1.65-2.02,3.16-5.4,3.69-7.21,1.44-.1,3.01-.1,3.01-.1,0,0-2.42,7.98-7.74,11.6-.34.23.42.48,2.13-.1,1.7-.59,4.79-3.46,7.61-11.71,0,0,2.77-.48,3.09-.32.32.16.05.85-.32,1.97-.37,1.12-2.66,6.65-4.1,7.66-.62.44-2.61-.64-2.61-.37s1.44,2.08,2.45,2.08,2.29-.96,3.57-3.62c1.28-2.66,3.14-6.86,3.35-8.2.21-1.33-.91-2.08-2.34-1.65Z"/>
    <path class="cls-1" d="M124.27,114.32s1.1,3.07.04,12.48c-.07.64-.18,1.38.35,1.36.92-.05,1.53-1.36,2.63-1.4,1.09-.05,6.65-.48,7.31-.48s.53.22.61-2.5c.09-2.71-.04-8.98.31-10.73.35-1.75.31-1.97-.39-2.06-.7-.09-6.56.81-8.49.98s-3.81-.55-4.12.46c-.31,1.01.79,1.75,1.75,1.88ZM126.54,118.08s3.81-.83,6.74-.79c.26,0,.39.52.35,1.58-.04,1.05.13,1.44-.7,1.53-.83.09-5.56.61-6.09.7-.52.09-.44-.48-.39-1.53.04-1.05-.04-1.18.09-1.49ZM133.63,122.77c-.04.7.13,1.84-.48,1.84s-5.43.26-6.3.53c-.88.26-.04-.31-.17-2.5,0,0,2.58-.52,5.08-.61,2.5-.09,1.93.04,1.88.74ZM127.2,113.44c.7-.09,4.38-.57,5.6-.57s.88.48.88,1.84c0,.66-.04.92-.61.92s-5.08.52-5.47.66c-.39.13-1.14.26-1.14-.31s-.31-1.88-.31-1.88c.35-.13.35-.57,1.05-.66Z"/>
    <path class="cls-1" d="M130.51,129.18c-.57-.07-1.31-.12-.69.94.63,1.06,2.94,2.25,6.26.81,3.32-1.44,6.26-6.94,6.38-8.01.87,0,6.38-.06,6.38-.06,0,0-.38,5.94,2,7.94.55.46,1.31.37,1.06-.63-.25-1-1.25-5.75-1.25-7.88s.38-10.13.94-11.57c.56-1.44.63-1.81-1.06-1.81s-10.45,1.25-11.39,1.25-1.24,1.14-.59,1.54c0,0-.07.61.46.77.38.37,3.75,7.88-.69,13.26-.49.59-3.32,4-7.82,3.44ZM148.78,120.98c-1.06.06-5.94.06-5.94.06,0,0,.12-2.75.06-3.94,0,0,5.5-.38,5.94-.69.44-.31-.06,3.63-.06,4.57ZM147.03,111.35c2-.12,2.69-.56,2.5.69-.19,1.25,0,2.38-.63,2.56-.62.19-5.44.81-6.51.81-.16-.84-.43-1.72-.74-2.38-.4-.85-.79-1.37-.51-1.37,0,0,3.88-.19,5.88-.31Z"/>
    <path class="cls-1" d="M129.02,140.04c-2.08.67-3.63.21-3.63.21-1.1,0-.58,1.68,2.57,1.68,1,0,3.26-.53,3.36-1.26.11-.73-.05-1.37-2.31-.63Z"/>
    <path class="cls-1" d="M128.08,145.45c-2.16.42-4.52.37-4.52.37,0,0-1.84-.05-1.47,1.31,1.1,2.1,2.47.16,4.94-.26,3.22-.55,3.31-.42,3.26-.05-.37,1.57-1.37,2.84-3.31,4.99-1.94,2.15-4.2,1.78-5.09,1.42-.89-.37-1.57-1.14-1.42-.31.63,3.41,4.21,2.82,4.83,2.68,4.57-1,6.93-9.04,7.15-10.24.21-1.21-2.21-.31-4.36.1Z"/>
    <path class="cls-1" d="M150.82,142.87c-.05-.58-1.84-1.1-6.2-1.16-.31,0-.63,0-.94.01,0-.11.06-.94.15-1.81,3.01-.09,6.15-.2,6.52-.25.68-.1,2-1.26.95-1.26-.51,0-3.91.06-7.27.12.02-.12.05-.24.08-.33.26-.9.84-1.78.21-2.05-.63-.26-1.31.27-1.31.27-.34.13-.58,1.06-.72,2.15-2.87.05-5.32.1-5.32.1-.26.11-1.52,1.52-.89,2,.63.47.89-.53,2.21-.58.46-.02,2.02-.06,3.87-.12-.04.64-.05,1.25-.04,1.69,0,.07.05.11.07.18-3.73.38-7.42,1.5-7.42,1.5-.58.68.1,1.99.47,3.26.3,1.02.96,2.29,1.52,2.37,1.39.18,6.3-.21,9.04-.42,2.73-.21,3.41-.37,3.99-1.05.58-.68,1.1-4.05,1.05-4.62ZM140.21,147.18c-.21.68-1.89.47-2.68.37-.33-.05-1.37-3.05-.84-3.26,0,0,2.89-.89,3.15-.37.26.52.58,2.57.37,3.26ZM144.46,147.18c-.37.21-2.05.32-2.52.32s-.47-.16-.47-.9-.26-3.05.42-3.26c0,0,2.42-.21,2.68-.16.26.05.1,1.21.1,2.21s.16,1.58-.21,1.78ZM148.09,146.7c-.53.16-2.23.43-2.23.22s.13-3.67.13-3.67c0,0,1.29-.03,1.98-.03s.8-.03.8.44-.14,2.87-.67,3.03Z"/>
    <path class="cls-1" d="M148.83,154.85c-3.47.21-10.35-3.36-10.87-3.57-.52-.21-1.37-.89-1.94-.42-.58.47-4.68,3.58-4.68,3.58-.37.28-.25.63.22.94.47.32.63.47,1.21,0,.58-.47,2.99-2.57,3.41-2.94.42-.37.65-.36,1.05-.16,1.58.79,7.93,4.37,10.22,4.71,3.27.49,5.33-1.82,5.81-2.61.47-.79.16-1.47.16-1.47.01-.02-2.22,1.8-4.57,1.94Z"/>
    <path class="cls-1" d="M142.26,150.9c-.43.55.38,1.04.78.79,0,0,.66-.29,1.34-.23.69.07,1.05.43,1.47-.06.43-.49.07-.98-.79-1.25-.85-.26-2.09-.16-2.81.75Z"/>
    <path class="cls-1" d="M151.3,151.55c.65.03.95-.23.39-1.01-.56-.79-1.47-1.31-2.62-1.28-.73.02-.62.93-.39,1.08,0,0,1.96,1.18,2.62,1.21Z"/>
    <path class="cls-1" d="M218.4,193.63c-1.35-1.6-3.2-3.8-5.88-7.59-1.99-2.82-3.15-5.31-4.18-7.5-1.86-3.99-3.21-6.87-7.94-7.68-5.17-.88-9.61.8-13.47,3.48,9.16-15.63,15.41-35.19,15.41-59.27V17.03H29.31v98.04c0,24.68,6.56,44.23,15.36,59.36,0-.01-.02-.03-.02-.04-2.99-1.71-6.52-2.57-11.01-1.81-4.75.81-6.13,3.74-8.05,7.79-1.04,2.19-2.21,4.67-4.19,7.48-3.1,4.39-5.55,6.71-7.34,8.4-1.67,1.58-2.88,2.72-3.42,4.5-1.2,3.89,2.08,7.17,8.61,13.7l.35.35c6.91,6.92,27.94,27.98,67.79,37.06,9.86,2.25,27.66,2.99,28.41,3.02.83-.03,18.63-.77,28.48-3.02,27.02-6.15,50.62-19.18,70.16-38.72,6.4-6.39,8.41-10.45,7.18-14.45-.61-1.97-1.53-3.07-3.21-5.06ZM200.47,115.07c0,42.76-20.43,71.22-41.34,88.43-17.23,14.19-35.38,20.3-41.48,21.33l-.22-30.27c5.42-.78,9.69-4.88,10.19-9.91h47.23v-86.7h-9.67l-4.39-4.11-.51.4s-3.44,2.69-6.51,2.69c-2.62,0-5.69-1.24-8.95-2.56-4.31-1.74-9.2-3.72-14.59-3.57-5.68.15-10.58,3.08-12.95,4.77v-8.43h83.18v27.93ZM42.73,186.81c1.21,2.08,3.72,6.55,4.94,10.1,1.42,4.11,4.16,5.17,6.07,4.83,2.18-.39,3.67-2.47,3.62-5.07-.04-1.91-.58-4.22-1.74-6.66.85,1.01,1.7,1.99,2.55,2.94,0,0,0,0-.01-.01,1.2,3.26,1.04,6.13-.66,7.96-1.77,1.91-5.67,5.46-6.92,6.58-5.88-4.14-10.77-8.49-14.17-12.64.69-.88,5.07-6.44,6.31-8.03ZM35.24,193.29c-2.59-3.52-4.08-6.85-4.08-9.73,0-.14,0-.28,0-.42.12-2.47.92-4.04,2.44-4.79,3.42-1.69,9.72,1.22,11.02,2.12,7.87,5.41,10.77,11.94,10.86,16.23.04,1.94-1.01,2.99-2.08,3.18-1.18.21-2.93-.6-3.97-3.6-1.71-4.96-5.64-11.36-5.81-11.63l-.7-1.14s-6.49,8.25-7.69,9.78ZM58.88,202.16c1.53-1.65,2.12-3.91,1.85-6.47,0,0,0,0,0,0,2.09,2.18,4.17,4.2,6.21,6.03,19.9,17.94,41.91,25.5,49.14,25.5,4.16,0,24.83-7.79,37.85-17.11,5.95-4.26,12-9.38,17.72-15.44-.15,2.48.59,4.73,2.29,6.56,1.78,1.93,5.65,5.01,7.15,6.19-7.19,5.04-15.74,9.83-24.98,13.73-8.74,3.7-25.39,7.45-40.28,7.45-13.96,0-27.1-2.51-40.15-7.68-8.59-3.4-16.66-7.72-23.51-12.35,1.52-1.38,5-4.56,6.71-6.41ZM105.14,81.55c-2.44-.23-2.48-2.66-.99-3.65,1.49-.99,4.06-1.26,5-2.34,0,0-4.37.63-6,1.85-.52.39-2.71-.5-2.21-2.52.5-2.03.68-2.16.95-2.39.27-.22,2.12-.63,6.22.36,4.1.99,12.26-.18,16.59-1.4,3.52-.99,4.69-1.26,4.69-1.26,0,0-5.05-2.48-5.73-6.09-.68-3.61-.36-5.64-.36-5.64,0,0,5.1-3.07,12.85-1.35,1.22.48,1.62.81,1.62.81,0,0-.59,3.92.09,5.32.68,1.4,3.47,3.92,5.41,5.59,1.82,1.57,2.52,3.11-.05,5.73,0,0-.68,2.71-2.66,4.19-.21-3.2-2.39-2.3-4.1-4.6,0,0,1.17,3.43-2.52,6.45-.5-3.88-2.61-2.89-3.43-6.13,0,0-.13,3.79-.68,4.37-.54.59-2.08,1.94-3.11,2.39-1.67-3.02-2.57-3.02-3.52-5.05,0,2.84-.59,4.33-3.7,5.55-.91-3.09-1.92-1.76-2.34-4.96,0,0-.86,1.76-.32,3.65.22.78-.63,1.92-1.31,1.94,0,0-1.26-2.97-3.38-.5-.77.14-1.13-2.57.54-4.96-1.44,1.35-5.14,4.87-7.57,4.64ZM103.38,81.82c-1.16,1.27-1.23,1.46-1.22,1.48-.02-.03-.84-1.85.05-2.92,0,0,.72,1.26,1.17,1.44ZM104.65,70.64c-.77-1.44-2.62-1.62-2.62-1.62,1.76-1.35,4.28-.23,4.28-.23,0,0-.68.36-1.67,1.85ZM108.21,69.56c1.8,0,3.79,2.57,3.79,2.57,0,0-1.67-.05-2.98-.23-1.31-.18-3.29-.54-3.29-.54-.36-.59.68-1.8,2.48-1.8ZM88.34,71.6c.69,2.52-1.18,4.05-2.81,4.24.1,2.66-1.87,3.16-1.87,3.16,0,0-.1-2.42-.99-2.86.79,3.31-2.71,5.48-4.29,5.82.59-4.88-1.38-5.28-1.38-5.28,0,0,.69,1.43.15,2.71-.89,2.09-4.49,3.6-4.49,3.6,0,0-.79.25-.15-1.09.64-1.33-.05-3.26-1.18-3.85.49,3.21-2.51,4.29-3.26,4.39-.74.1-1.68.44-1.68.44,0,0-.1-.39.3-.99.39-.59.54-2.76-.1-3.95-.25,2.96-1.97,4.05-3.06,4.64-1.09.59-2.66.54-2.66.54,0,0,.44-.94.99-2.17.54-1.23-.49-2.81-.94-3.6-.54,4.19-5.47,4.74-5.47,4.74,0,0,.44-.84.49-1.58.11-1.63.99-2.91.99-2.91,0,0-1.09-.15-1.97-.59.69,1.33-.2,3.26-1.13,3.65-.64-1.43-2.76-1.48-3.55-1.04-.99-1.58.64-3.3,1.78-3.95-1.53-.34-2.57.74-3.5,1.88-.94,1.13-4.19,2.07-5.13,1.88-.94-.2-1.53-1.28-1.92-2.57-.39-1.28-.49-1.53,1.38-2.27,1.88-.74,5.67-1.24,5.67-1.24-2.33-.69-6.2.22-7.05.36-.85.14-1.13-.33-2.16-1.5-1.03-1.17-.24-2.3,1.17-3.52,2.44,1.73,8.45,2.96,8.96,3.09,12.62,3.29,19.99-1.55,21.07-2.58.61.37,2.16,3.33,1.41,5.91,1.83-2.07,4.13-4.36,3.99-9.01,1.92,2.3.1,6.2.47,5.91,6.15-4.97,4.22-10.13,4.41-10.13,2.39,1.13,1.31,3.85,1.31,3.85,0,0,1.92-1.45,2.3-3.43,2.25-1.69,2.3-3.28,2.35-5.26,1.22-1.26,1.13-2.2.75-4.64,1.74-1.92,1.12-4.54,1.5-4.46,15.01,3.1,22.99,1.13,23.83.94,15.91-3.57,24.35-3.99,29.32-3.89.85.01,6.97,1.04,12.95,1.88,4.88.68,9.85,1.25,10.23,1.27,7.41.42,13.61-1.64,11.92-6.29-.52-1.43-1.88-2.42-3.19-3.14-3.49-1.92-8.49-1.77-10.23-1.78-6.43-.05-15.56,2.39-19.03,2.41,1.27-.66,3.31-2.22,3.31-2.22,0,0-1.55.24-1.97.24s-.94-.38-2.16-1.22c-1.22-.84-3.66-3.38-3.66-3.38,0,0,2.02.42,3.43.42.94.33,3.05,1.88,4.5,2.44-.75-.94-1.45-3-1.45-3,0,0,.94-.33,2.16-.99,1.03-.05,4.6,2.25,6.19,3.43-.66-1.45-1.08-4.93.24-6.66.8,1.41,2.67,2.72,4.74,3.61,2.06.89,2.39,2.06,2.3,1.36-.09-.7-.47-3.56.84-4.22.75,2.63,3.47,4.27,5.07,4.92-.61-4.69,1.97-6.05,1.97-6.05,0,0-.41,1.37-.33,2.11.38,3.43,2.44,4.98,5.02,5.96-.61-2.11.48-5.43,1.74-6.24,2.67-1.74,3.66-1.22,3.66-1.22-.08.1-2.22,2.07-2.72,4.74-.28,1.5.14,3.24,1.92,6.19-.24-3.43,2.06-4.74,3.14-5.49,1.08-.75,6.38-1.69,7.32-2.25-.33,1.5-1.03,1.46-3.05,2.63-2.02,1.17-3.75,1.55-3.99,5.39-.27,4.38.85,3.41-2.86,7.51,4.88-4.98,9.26-4,9.99-3.71,4.5,1.83,5.4,1.27,6.66.94-1.92,3.71-3.43,2.81-6.99,2.58-3.57-.23-4.22.47-9.34,3.57-5.11,3.1-12.39,2.53-16.66,2.25s-8.27-1.43-8.01-1.11c4.45,5.38,12.63,6.49,14.08,6.51,3.66.03,10.79-2.66,11.32-2.88,4.63-1.91,6.38-.53,7.45,1.09,2.6-1.47,5.35,2.25,5.35,2.25,0,0-.6.09-1.13.34-.53.25-.28.75-2.28.88,3.72,1.22,4.41,4.82,5.16,5.76.75.94.66.88-.28.91-.94.03-3.38-2.07-3.38-2.07,0,0,2.66,3.13,3.38,3.66.72.53.25,1.81,0,3-1.88-2.16-3.29-1.75-3.29-1.75,3.5,2.54,2.13,4.85,2.13,4.85-1.56.22-2.38,1.88-2.38,1.88,0,0-.31.12-1.34-.66s-.78-2.56-.78-2.56c-.44.69-.48,1.53-.53,3.25-.03,1.03-.06,4.41-2.57,4.19-2.5-.22-2.09-2.25-2.09-2.25.03-.88,1.03-3.57.81-3.35-.33.33-2.17,1.99-1.81,5.01-.59.84-1.7,1.25-1.7,1.25-2.24.31-2.75-1.41-3.24-2.69-.49-1.28-1.23-.79-1.43-1.28-.2-.49,1.39-1.14,1.97-1.43,3.95-1.97,5.13-4.24,5.28-5.13.15-.89.54-3.35-2.91-5.47-3.45-2.12-8.85-1.3-13.61-.7-7.13.91-11.05,1.24-16.48.75-5.42-.49-8.29-2.47-10.26-4.19-1.97-1.73-2.32-6.07-2.76-6.76-.74-.79-4.74-.69-4.74-.69,0,0,1.58.44,2.57.89.99.44,1.18.05,1.23,1.09.05,1.04-.49.64-1.28.35-3.18-1.19-7.15-1.23-12.28.32-3.11.93-12.58,5.68-18.9,8.74-6.25,3.03-7.4,3.95-13.41,4.11-3.6.1-4.68-2.17-5.72-4.29-.15,2.56,1.68,4.29,2.37,6.81ZM50.65,80.23c1.92-.19,2.15,1,2.15,1,0,0-.65,1.42-2.57,1.77.54-.65.42-2.76.42-2.76ZM42.42,65.59c-.64-.25-2.17-.34-2.17-.34,1.58-1.38,3.55-.79,3.55-.79,0,0-.84.49-1.38,1.13ZM44.44,65.24c1.28-.64,1.97.79,2.91,2.27.94,1.48,2.27,3.21,1.48,2.96-.79-.25-5.28-1.53-5.28-1.53-1.13-1.97-.39-3.06.89-3.7ZM59.15,66.8c-2.31,2.2-5.55,1.37-5.55,1.37,0,0,.38-.33.88-2.03.49-1.71,1.76-2.64,1.76-2.64-1.82.44-1.76,1.48-2.86,1.48-2.24,0-3.19-.99-3.19-.99l.93-1.54c.93-1.54,1.76-1.81,1.76-1.81-.96-.38-2.06.54-3.41.71-2.58.33-3.74-1.26-3.74-1.26,0,0,.99-.71,1.65-1.76.66-1.05,2.09-1.05,2.09-1.05,0,0-.66-.22-2.8-.22s-3.08-.82-3.9-2.14c.61-.88,3.8-.77,3.47-.93-.33-.17-5.39-2.09-5.94-3.52,2.26-1.16,5.06-.61,5.06-.61-.55-.82-1.81-1.15-1.32-2.64,1.76-1.54,1.27-2.75,1.27-2.75,0,0-.71,1.37-1.92,1.81-1.21.44-2.31-.31-1.92-.66,1.54-1.43.05-3.19-.11-3.41-.16-.22-1.43-.39-.33-1.1,1.1-.71,3.74.88,3.74.88,0,0-.93-1.26-2.53-1.87-1.59-.61-2.36-3.19-2.47-4.13-.11-.93,1.82-2.26,2.8-2.09,1.26.22,1.21,1.66,2.03,3.19.64,1.2,1.54,2.42,1.54,2.42.55.71,1.05.44,0-1.37-2.24-3.9-1.48-8.19-.22-9.07,1.96-1.36,3.81.43,3.52,3.35-.38,3.9,1,9.44,1.27,10.28,3.57,11.16,9.95,13.53,12.59,14.51,0,.71.55,1.81.55,1.81.33.55-1.43-.71-2.2-.55.93,1.16,1.04,2.48.49,3.13-.55.66-2.14,1.27-3.19.72-1.04-.55-1.91-.58-1.48-.28,6.27,4.45,11,4.84,11.55,4.95.55.11.99,1.21.99,1.21,0,0-.44.66-2.25,1.6-4.12-2.59-7.92-.5-9.13,0-.11-.61.66-1.65.82-2.26.17-.61.39-1.54.39-1.54l-.66.77ZM40.78,44.58c-.7,1.15-3.44-1.49-3.24-2.29,0,0,1.64.7,2.24.45.6-.25,1.69.7,1,1.84ZM39.38,33.92s-1.39-1.14-2.49-1.69c0,0,2.24-.7,3.64.8-.55.5-1.15.9-1.15.9ZM43.89,24.31c3.8.77,3.92,3.62,3.92,3.62-.71-.2-1.79.04-1.79.04,0,0-.9-2.57-2.12-3.67ZM52.19,30.04c2.04,1.03,1.24,3.51.15,5.57-1.09,2.06-1.11,3.44-1.11,3.44-.9-.26-.88-7.73-.88-7.73-.03-.61,1.27-1.58,1.84-1.28ZM50.94,26.29c2.06,1.22,2.41,3.56,2.08,3.3-.32-.25-1.35-.52-1.35-.52.07-.84-.49-2.14-.73-2.78ZM62.3,50.74c-.77-4.28,2.43-6.74,3.42-7.73-1.63.18-3.32,1.57-3.32,1.57,0,0-.12-3.23,2.55-4.09.43,1.35,1.91,2.99,3.66,3.23-.4.89-1.17,3.05-1.23,4.37-.31,6.77,5.33,6.77,5.33,6.77,0,0,.83.89.22,4.43,2.77-.83,3.91-3.88,3.91-3.88,8.01-.86,6.59-8.84,6.59-8.84,0,0,1.35.4,3.08-.68,2.49,2.22.37,6.09.37,6.09,0,0-.43-.92-2.65-.89,4.34,1.51,2.28,5.39,2.28,5.39,0,0-.37-1.32-2.74-2.19,2.68,2.07,2.25,5.11.95,6.28-.09-.74-.86-3.2-3.54-3.51,3.14,1.51,2.89,5.14,1.85,5.91-.06-.99-1.85-2.31-3.05-2.8-1.2-.49-2.28-2.12-2.28-2.12,0,0-.03,1.29,1.69,2.83,1.17,2.09.67,6.3-1.21,7.86.16-1.56-.94-3.98-3.51-6.25-2.58-2.27-3.59-4.53-3.59-4.53,0,0,.5,1.98.94,2.58,4.69,6.4,2.34,10.07,1.02,11.17-.16-2.11-2.73-5.31-6.09-8.51-3.36-3.2-.78-7.73-.78-7.73,0,0-.96.33-1.67,2.86-.59-.8-.34-2.71-.09-3.76.95-1.39,1.88-3.39,1.85-4.31-.62,1.29-1.94,2.92-2.43,3.2-.09-.25-.18-.89.06-2.22.25-1.32,2.46-3.42,1.91-5.17-.15,2.09-1.63,2.89-3.48,4.65ZM66.03,29.43c.84-.07,2.52.39,3.93,1.29-.52-.9.06-3.03,1.03-4.32,1.1,1.29,1.16,2.19,2,3.09-.32-2.9,1.1-3.93,2.13-5.93,0,.52.9,2.39,1.61,4.96,0-2,1.29-3.16,2.26-4.7,0,1.1.9,2.06,1.29,5.48.32-1.8,1.16-1.67,2.06-3.54,1.61,1.61,1.03,3.67,1.22,5.54.58-1.35,2.39-2.26,2.39-2.26,0,0-.19,1.55.26,3.48,2.71-2.13,4.51-.64,4.51-.64,0,0-.06.97-.77,4.19-.71,3.22-1.03,3.03-2.84,3.74,1.61.97.77,4.32-.51,5.35-1.29,1.03-3.55.32-4.45-.07,2.77,9.22-5.16,9.54-5.16,9.54l.19-1.03c7.28-1.67,3.55-9.02,3.55-9.02.86,2.18.41,4.01-1.84,4.25s-2.53-1.45-2.72-2.3c-.19-.84,3.61-2.01,3.61-2.01l-.05-4.18s1.36.7,2.81.56c1.45-.14,3.75-2.21,3.75-3.75.56,0,1.45-1.08,1.92-2.35.47-1.27,1.27-1.64,1.27-1.64,0,0-.56-.19-1.36.28-.8.47-1.31,2.91-2.11,2.82-1.74-.42-4.08-.19-4.74.24-.66.42-1.13.28-1.74-.14-.61-.42-1.12-3.71-1.12-3.71,0,0-.24,1.83.09,4.55.33,2.72.38,5.77.38,5.77,0,0-1.92-1.08-3.14-.33.98.05,2.67.52,2.81,1.27-.52.24-2.44,1.31-2.44,1.31,0-.7-1.97-2.44-1.97-2.44,1.6-7.22,2.18-8.64,2.09-10.5-.19.96-1.31,2.74-1.31,2.74,0,0-.27.04-1.06.02-.71-.73-2.99-1.42-4.03-1.42-.65,0-1.22.19-1.29-.97-.07-1.16-.39-1.42-1.03-2.19-.07.45.64.84.45,1.42-.26,1.35-.06,1.94,1.1,2.52-.32,4.9,5.03,5.03,5.03,5.03,0,0-.39.77-1.03,3.55,1.42.9,2.58,2.96,2.58,2.96,0,0-1.1,1.93-2.58,1.61-4.06-.84-2.58-3.81-1.68-5.16-6.32,1.93-6.32-4.51-4.25-6.13-2.9-.71-.65-4.51-1.1-6.83ZM76.3,52.91c.14,1.74-.98,4.32-2.35,5.3-.09-2.58-1.12-6.47-.89-8.17.17-1.2.19-1.42.19-1.45l1.31-.89s-.14,1.74-.14,3.14.33,1.97.24,2.96c.33-1.17.29-3.64.47-4.79.09-.61.24-1.31.24-1.31l.94,1.08s-.14,2.39,0,4.13ZM81.88,39.16c2.11.19,1.97-2.35,1.97-2.35,0,0,1.13-.14,1.88.28-.19,1.41-1.97,2.39-3.33,2.77-1.36.38-2.91-.61-2.91-.61l-.28-1.97,1.12.14c.09.56.56,1.65,1.55,1.74ZM81.27,37.68c0-.25.2-.44.45-.44s.44.2.44.44-.2.44-.44.44-.45-.2-.45-.44ZM71.63,36.85c1.56.82,2.18-1.03,2.18-1.03l1.31-.08-.9,3c-4.93-.53-4.36-4.4-4.36-4.4l.86.16s-.66,1.52.91,2.34ZM71.09,35.55c0-.21.17-.38.38-.38s.38.17.38.38-.17.37-.38.37-.38-.17-.38-.37ZM71.96,52.51s0,.19.39,1.48c-6.77-1.48-3.03-9.8-3.03-9.8.45-.65.19,1.16.58,2.58-1.1,4.71,2.06,5.74,2.06,5.74ZM125.44,35.88c-.88-.63-3.44-.25-8.38.44,2.25.69,3.5,2.44,3.5,2.44-11.38,2.5-18.08,2.07-18.83-1.44-.75-3.5,4.57-4.9,5.57-5.13,13.26-3,20.46,1.56,20.46,1.56-1.69.12-2.88-.63-2.88-.63,0,0-.38.81.56,2.75ZM127.74,32.33c-4.18-2.39-9.43-2.74-12.67-2.58-3.24.16-6.01.7-8.49,1.29-5.3,1.27-6.37,4.52-6.1,6.29.68,4.43,8.24,4.32,10.04,4.15,6.97-.66,11.89-1.83,12.64-2.16-.73-.49-3.07-2.25-3.07-2.25,0,0,2.77-.38,4.65-.26,1.88.12,3.19,1.45,3.19,1.45.09-1.12-1.71-2.37-1.71-3.4,4.74.21,5.51,1.5,8.99,3.42,3.47,1.92,8.35,1.39,8.35,1.39-2.09.61-23.62,4.52-28,5.21-4.38.69-10.95.94-16.08-2.56-5.13-3.5-2.11-8.99-1.75-9.51,4.5-6.57,14.64-6.38,16.77-6.51,11.32-.69,11.75-3.52,13.02-4.9,1.48,2.25-2.44,6.1-2.44,6.1,5.54-4.15,14.17-1.62,14.52-1.57,6.5.94,10.74-.86,11.73-1.22,4.03-1.48,7.06-1.1,7.39-.12-1.74.24-3.38,1.64-4.9,2.79-1.52,1.15-4.74,3.66-8.61,4.3-3.87.63-4.76.28-9.41-.68,2.56,1.1,6.54,5.14,8.96,7.22-2.53.92-6.08.37-8.23-.52-2.16-.89-4.6-2.98-8.77-5.37ZM153.59,32.79l-2.69-1.5,3.25-2.19-.31,1.13-.25.88-.12.88.12.81ZM146.06,33.11v.25l-.16.12-.25-.09-.09-.25.16-.12.22-.03.13.13ZM194.69,75.86c.06,1.2-.75,3.15-.94,2.64-.29-.82-1.2-1.7-1.2-1.7-.24-.34.26-.52.7-1,.73-.79,1.41-.58,1.44.06ZM186.48,82.25c-.25.48-.35,2.34-.35,2.34-1.2-.41-1.88-2.4-1.96-3.19-.09-.79.47-.38,1-.2,1.1.37,1.73.26,1.32,1.05ZM178.14,80.34c-1.32.56-2.52,1.88-2.52,1.88-.35-1.14.06-2.58.99-3.9.94-1.32,1.91,1.84,1.52,2.02ZM176.73,72.75c.7-.41,3.22,1.38,2.99,1.49-1.14.38-3.08,1.9-3.08,1.9-1.7-1.02-.61-2.99.09-3.4ZM114.61,82.41c-.05.95-.9,2.12-.9,2.12,0,0-1.35-1.17-1.08-2.16.27-.99,2.03-.9,1.98.05ZM115.49,83.3c3.32-1.5,1.44-4.07,1.75-3.75,2.38,2.19.56,4.32.56,4.32.75,0,1.22-.69,2-1,1.88-.75,2.94-2.13,4.38-3.69,1.44.88,1.31,4.19,1.31,4.19,0,0,.44-.75,1.63-1.19,3.44-1.69,4-2.88,4.07-4.82,1.25,1.19,2.19,2.69,1.25,5.13,4.69-1.81,5.32-5.82,5.32-5.82.92-.13,1.97.93,1.44,4.06,4-2.31,4.35-5.16,4.88-5.63,3.82-3.38,1.31-6.38-1.63-8.45-2.94-2.07-4.94-5.19-3.5-7.51,2,4.75,8.32,6.51,8.32,6.51,7.57,3.32,21.59-.7,29.03-.31,10.89.56,6.57,7.82,4.88,7.82s-2.5-1.88-4.63-1.19c-4.19-.12-6.07,2.88-6.63,5.19,3.82-2.5,7.13-.88,5.94.19-2.06,3.38-1.13,5.32,0,6.69-.19-1.19,1.56-2.44,3.19-2.75,2.06,1.63,3,.81,4.19.19.39,1.86,1.53,3.07,2.45,3.77h-71.56c.18-.37.67-1.32,1.36-1.96ZM175.35,73.13c-.53.62-.15,1.85-.67,1.73-.53-.12-3.05.41-3.05.41,1.05-2.14,4.25-2.75,3.72-2.14ZM162.99,97.96c2.28,2.13,5.4,5.06,5.69,5.33,0,.58.31,61.43.37,73.84-2.45-3.19-7.08-9.22-7.35-9.57v-70.81c.37.34.82.76,1.3,1.21h0,0ZM168.35,179.3h-44.15s-.02-.08-.03-.12h-.09c-.17-.67-.44-1.8-1.24-3.06-1.1-1.72-3.28-3.94-4.29-4.41,2.52-1.92,7.4-5.01,12.71-5.01,4.21,0,8.41,1.6,12.11,3.01,3.16,1.21,5.89,2.25,8.28,2.25,4.02,0,7.43-1.85,8.9-2.79l7.8,10.15ZM159.81,167.38c-1.07.71-4.37,2.68-8.17,2.68-2.05,0-4.75-1.03-7.62-2.12-3.85-1.47-8.22-3.13-12.78-3.13-6.01,0-11.31,3.42-13.97,5.48v-72.85c1.66-1.28,6.96-4.97,12.99-5.13,5.08-.13,9.82,1.78,13.99,3.47,3.39,1.37,6.6,2.67,9.51,2.67,2.3,0,4.62-1.17,6.04-2.05v71ZM121.88,179.13c-.04.07-.05.11-.08.16h-1.52l.8,1.51c.28.5.66,1.17.66,1.83,0,2.69-1.5,4.52-4.57,4.52s-5.36-1.84-5.36-4.53c0-.97.47-3.04,1.08-3.33,0,0-.75-4.17,4.13-4.8,2.87-.37,5.45,3.53,4.86,4.64ZM115.4,170.7c-2.39-1.88-7.62-5.52-12.3-5.52-3.22,0-7.69,1.34-12.02,2.64-3.81,1.14-7.75,2.32-10.56,2.49-4.61.28-7.1-1.27-7.89-1.87v-72.05c1.83.99,5.51,2.73,9.16,2.92,2.45.12,5.94-1.22,10-2.78,4.23-1.63,9.03-3.48,12.69-3.48,5.76,0,9.85,3.47,10.92,4.49v73.16ZM80.64,172.19c3.03-.18,7.08-1.4,10.99-2.57,4.2-1.26,8.54-2.56,11.48-2.56,4.03,0,8.82,3.32,11.08,5.07-.38.19-.75.42-1.07.74-1.59,1.52-3.75,5.88-4.02,6.42h-44.69s.08-.08.12-.12h-.24c1.88-1.85,5.63-5.49,7.7-8.9,1.35.88,4.17,2.19,8.66,1.92ZM70.76,168.63c-1.86,3.42-5.9,7.58-7.8,9.45-.05-9.55-.37-71.46-.37-72.01.3-.32,5.68-6.1,8.18-8.77v71.33ZM61.08,105.48l.39,75.31h48.03c-.25.52-.89,1.45-.89,2.16,0,3.52,3.66,6.06,7.56,6.06s7.07-2.86,7.07-6.38c0-.69-.23-1.31-.48-1.84h47.79l-.39-78.17-3.39-3.17h6.28v83.1h-47.22s.35.9.38,1.33c-.18,5.35-4.91,9-10.67,9s-10.55-3.86-10.67-9l-.02-1.33h-45.46v-83.1h7.29l-5.62,6.03ZM175.31,199.96c-1.92-2.07-2.29-4.88-1.19-8.01.47-.53.94-1.05,1.4-1.6-.54,1.56-.75,3.09-.57,4.56.35,3.01,1.92,4.94,4.29,5.3,3.11.48,6.77-1.88,8.34-5.36,1.87-4.17,4.72-7.05,6.01-8.21.88,1.04,3.8,4.5,4.43,5.25-3.46,4.65-8.77,9.62-15.33,14.4-.88-.68-5.48-4.28-7.37-6.32ZM193.83,184.02l-.71.54c-.19.14-4.59,3.58-7.26,9.52-1.2,2.67-4.1,4.63-6.34,4.28-1.92-.29-2.53-2.16-2.71-3.67-.53-4.51,3.44-10.14,10.61-15.08,1.61-1.11,9.21-4.8,12.89-2.98,1.37.68,2.09,2.07,2.19,4.27,0,.14.01.28.01.42,0,2.68-1.21,5.74-3.37,8.99-1.09-1.29-5.31-6.29-5.31-6.29ZM31.19,18.9h169.28v66.35h-13.58c-.03-.91.01-2.36.55-3.02,2.75-2.31,2.13-4.01,2.81-5.88,1.44,1.19,2,1.31,3.57,3.75,1.56-2.19,1.63-4,1.56-4.57-.06-.56.13-.63.13-1.56s-.13-1.69.94-1.19c-.31-1.12.75-3.25,0-4.75-.28-.56.31-.56,1.56-1.06-1.62-.94-2.63-4.13-3.06-5.13-.44-1-1.63-1.56-1.63-1.56,0,0,.25-.56,2.44-.94-1.25-1.44-2.88-4.26-6.76-4.32-1.69-4.94-13.26,2-18.89,1.94-5.63-.06-11.03-3.46-10.32-3.38,11.82,1.38,18.45.19,21.71-2.06,6.66-4.61,8.15-2.68,11.39-2.88,5-.31,5.5-6.26,5.5-6.26,0,0-.31.44-2.19,1.31-1.88.87-4.82-1.56-8.57-1.38-1.81.09-3.5,1.44-3.38.69.56-4-1.19-5.32,3.57-7.82,4.75-2.5,3.75-6.69,3.75-6.69,0,0-.75,2.94-5.63,3.57-4.88.62-6.76,4.13-6.76,4.13-1.31-5,1.88-6.51,3.57-8.26-5.32-.62-8.13,1.38-9.07,6.19-3.44-2.12-2.81-5.19-1.5-7.63-4.19.69-5.26,5.88-5.26,5.88-3.25-2.07-2.94-5.63-2.94-5.63-.56.56-1.96,1.9-2.75,4.57-2.38-.88-4.44-2.31-5.19-3.88.69-1.38,3.63-3.19,5.82-1.07-4.63-6.88-11.26-2.5-14.95-1.69-3.69.81-7.57-.19-10.63-.56-3.07-.37-5.44-.37-7.82.63.06-.56,1.44-2.19-1.06-5.45-1.6,3.65-4.39,4.79-10.07,5.5-2.32.29-4.7.24-8.32.69-12.51,1.56-14.02,9.2-13.89,10.57.63,6.57,4.5,8.88,11.26,10.2,6.75,1.31,16.45-1.5,23.08-2.75,6.63-1.25,23.9-4.53,28.84-5.07,11.01-1.19,17.52.94,17.77,4.75.25,3.82-5.44,3.75-10.95,3.56-5.5-.19-23.15-3.5-28.46-3.25-5.32.25-22.15,4.32-29.65,4.82-7.51.5-17.46-1.67-18.56-1.83-.27-.23-.6-.76-.74-.99,1.94-2.39,1.28-3.84,1.05-5.2,2.56-1.49,2.29-4.29,2.42-5.62.14-1.34,1.26-2.56,1.26-2.56,0,0-.29-.52-1.59-1.41-1.3-.89-3.98.11-3.98.11,0,0-.19-2.01-.15-3.2-.35.29-1.59.91-2.27,1.22,0-1.07-.93-2.43-1.44-3.16-.5-.74-.1-1.38-.43-1.07-.33.31-1.32,1.49-1.82,2.21-.1-.44-.68-2.13-.97-2.91-.29-.77-.41-2.37-.41-2.37,0,0,.08.58-.7,1.63-.78,1.05-1.96,2.02-1.96,2.02-.5-.46-.74-1.96-.76-2.77-1.94.89-3.18,2.7-3.67,4.6-.93-.64-1.38-2.17-1.38-2.17,0,0-.31.54-.5,1.05-.29.77-1.22.87-1.34,3.01-.66-.5-2-.76-2.58-.66s-2.76.91-1.88,1.47c.87.56.7.8.33,2.66-.37,1.86-.31,3.18.6,4.52-.29.52-.5,1.11-.76,2.6-2.37.97-3.06,3.59-3.3,5.18-.23,1.59.87.99.46,1.82-.41.84-.81,4.85.12,6.3-.15-.41.58-1.28,1.03-1.67-.04.72-.23,1.94-.17,3.01.06,1.07,1.1-.24.84.38-.25.63-.25,1.44-.25,1.44-7.57-3.19-10.39-9.7-11.07-11.38-.69-1.69-1.69-4.07.19-7.45,1.88-3.38,2.38-5.13,1.69-6.88-1.19-5.44-5.19-5.63-5.19-5.63,0,0,.88,1.25,1.31,2.5.44,1.25.13,1.88-.38,2.31,0-.31-.37-1.44-1.06-1.5-1.63-5-5.44-4.82-7.32-4.25,1.63,1.25,2.25,1.75,3.38,4.57-1.94,1.75-1.69,4.69-1.69,4.69,0,0-.38,0-1.81-.38-2.69-2.63-5.44-1.25-7.32-.25,2.5.19,2.94,1.25,4.5,2.19-.81,3.75,1.69,5.5,1.69,5.5,0,0-.81.5-1.13,1.38-.88.19-1.63.37-3.44-1.13.38,3.5,2,4.32,3.94,5.5,1.69,2.07,2.81,1.63,2.81,1.63,0,0,0,.12-.12.63-.94.38-3.38,1.88-5.26,2.31,2.38.81,3.81,2.44,5.13,3.19-.36,0-2.31.34-2.48.37.05,0,.25.09,1.05.94,2,2.63,3.25,3.25,4.82,3.44-.19,1.12-1.13,1.38-1.62,2.19.44.69,3.19,1.88,5.38,2.13.06,1-1.19,1.69-1.19,1.69,0,0,.25.06.81.19,2.13,1.75,4,1.44,4,1.44,0,0-.12,1.81-.94,2.69,2,1.38,5.57.56,5.57.56,0,0-.06.19-.44,1.63,1.75-.31,6.5-2.25,9.13-.37-2.06,1-4.82,1.31-9.51,1.31s-6.57-1.25-6.57-1.25c-1.31-1.25-3-6.26-5.32-6.32-3.88-2.07-6.07.75-6.63,2.56,1.12-1.63,3.57-.44,3.57-.44l.12,2.07c-5-1.19-7.76,1.44-8.07,5,1.38-1.38,2.5-1.88,3.88-1.75.75,2.94,2.88,3.19,2.81,3.5-3.75,2.56-3.13,5.07-2.38,7.38.44-2.13,2.19-2.82,3.13-3.44,2.69,2.88,6.51.31,7.19-.44-.13.63.69,1.31.69,1.31.19.69.69,1.81-.25,4,2.81-.31,5.76-3,5.76-3,0,0-.13.56-1,2.07,3.94.56,6.82-2.44,6.82-2.44,0,0,0,1.25-1.44,2.75,3.88,1.56,6.57-1.38,6.57-1.38,0,0,0,.31-.69,1.63,3.69.81,6.51-2.06,6.51-2.06,0,0-.5,1.19-1.06,2.56,4.69,0,6.76-2.94,6.76-2.94,0,0,.56.69-.63,2.44,2.81-.56,5.13-2.63,5.57-2.94.44-.31.31.82.31.82,2.26-2.26,3.54-2.33,4-4.5,3.88-1.75,3-4.82,1.94-6.94.31.06,5,.26,6.01.25,2.58-.03,8.26-2.71,13.95-5.44,5.61-2.69,11.24-5.41,11.95-5.75,1.44-.69,2.25-1,1.88-.44-.56,2.31.19,6.75,1.38,8.57,1.19,1.82,2.75,2.5,2.25,2.63-2.56,1-8.57,2.06-11.76,2.31-1.07-.44-4.94-4.01-6.88-3.63-3.75-2.25-7.44.63-7.94,1.63,2.82-.75,4.63.25,4.88,1.06-1.57-.31-3.44.69-3.44.69-3.31.5-4.44,3.75-4.76,5.94.94-1.75,2.19-1.63,3.94-1.56.94,2.31,2.44,2.13,2.44,2.13,0,0,.31.19-.19.62-1.63,1.56-1.69,4.26.06,6.01-.25-.75,1.25-2.25,1.81-2.69,2.88,1.31,6.63-2.5,6.63-2.5,0,0,0,1.25.44,2.12.86,1.72,2.19,2.93,2.67,3.34H31.19V18.9ZM37.98,70.62c.1.54-.35-.35-2.42.35,0,0,1.08-2.12,2.86-1.82.2.35-.54.94-.44,1.48ZM41.24,78.26s-2.07,1.28-2.76,1.58c.15-1.78,1.78-3.5,1.78-3.5.3-.1.99,1.92.99,1.92ZM100.05,75.24s-.81-.27-2.57.23c0,0,.81-2.21,2.84-2.71-.36,1.49-.27,2.48-.27,2.48ZM31.19,115.07v-27.93h84.22v8.42c-1.91-1.54-5.73-4-10.92-4-3.93,0-8.87,1.9-13.23,3.58-3.73,1.44-7.26,2.79-9.38,2.68-4.62-.24-9.6-3.36-9.65-3.39l-.52-.33-.9.97h-.04v.04l-2.66,2.86h-10.72v86.7h46.1c.56,5.6,5.78,10.05,12.07,10.05l.05,30.59c-16.22-1.19-84.41-31.67-84.41-110.22ZM213.11,211.81c-19.29,19.29-42.59,32.15-69.25,38.22-9.69,2.2-27.88,2.96-28.07,2.97-.11,0-18.3-.76-27.99-2.97-39.32-8.96-60.06-29.73-66.88-36.55l-.35-.36c-6.41-6.41-8.98-9.12-8.15-11.82.4-1.31,1.35-2.2,2.92-3.69,1.85-1.75,4.37-4.14,7.58-8.69,2.07-2.94,3.34-5.61,4.35-7.76,1.8-3.81,2.89-6.1,6.67-6.75,5.86-.99,9.8.98,13.29,4.18.72,1.12,1.45,2.22,2.2,3.28-1.11-1.01-2.35-2.01-3.74-2.97-1.13-.78-8.34-4.51-12.92-2.25-2.15,1.06-3.32,3.21-3.48,6.37-.59,11.64,19.91,29.41,45.69,39.62,13.28,5.26,26.64,7.81,40.84,7.81,15.14,0,32.09-3.82,41.01-7.6,23.87-10.1,48.17-28.6,47.53-42.07-.14-2.9-1.23-4.86-3.23-5.86-4.86-2.41-13.42,2.17-14.79,3.12-1.25.86-2.4,1.75-3.46,2.64.31-.45.61-.9.91-1.36,4.47-4.32,9.76-7.74,16.28-6.63,3.76.64,4.75,2.76,6.56,6.62,1,2.15,2.25,4.82,4.34,7.79,2.73,3.86,4.61,6.09,5.98,7.72,1.62,1.92,2.36,2.8,2.85,4.4.72,2.33.4,5.47-6.71,12.57Z"/>
    <path class="cls-1" d="M84.34,70.22s1.42.29,1.58,1.04c.16.75.41,1.47-1.94,2.8,0,0,1.74.23,2.26-.73.52-.95.59-1.9-.05-2.62-.63-.73-1.85-.5-1.85-.5Z"/>
    <path class="cls-1" d="M185.51,58.08c.86.31,1.28,1.71,1.1,2.06,0,0,.93-1.09.29-1.98-.63-.88-1.1-1.6-3.2-1.18-1.14.59-1.6,2.15-1.6,2.15,0,0,1.56-1.73,3.41-1.05Z"/>
    <path class="cls-1" d="M139.43,72.64c2.06.75,3.61-1.32,2.92-2.69-.69-1.37-2.58-1.95-2.58-1.95,0,0,4.07,2.35-.34,4.64Z"/>
    <path class="cls-1" d="M119.07,164.2v1.46c.34-.61,2.48-2.65,3.28-3.17-1.8-.22-3.28,1.71-3.28,1.71Z"/>
    <path class="cls-1" d="M122.26,158.57c-1.8-.22-3.28,1.71-3.28,1.71v1.46c.34-.61,2.48-2.65,3.28-3.16Z"/>
    <path class="cls-1" d="M121.71,156.15c-1.8-.22-2.8,1.19-2.8,1.19v1.46c.34-.61,2.01-2.13,2.8-2.65Z"/>
    <polygon class="cls-1" points="119.05 154.99 119.96 153.88 119.36 153.25 119.05 153.45 119.05 154.99"/>
    <path class="cls-1" d="M121.22,152.24l.73-.8s-.8.15-1.46.82l.73-.02Z"/>
    <path class="cls-1" d="M121.87,148.45c-1.33-.31-3.06,1.76-3.06,1.76l-.03,1.94s1.89-3.19,3.09-3.69Z"/>
    <path class="cls-1" d="M27.83,199.71c-.06-1.13.66-3.05,2.53-2.07,1.88.99,2.05,3.87,2.05,3.87h2.76s.27-.57-1.11-.54c-.18-1.36-1.16-3.14-4.08-4.22-.56-.2-3.68-.69-4.08,1.96-.07.46-.07,6.06-.31,7.65-.13.89-.74,3.19-1.94,3.26-1.21.07-2.79-1.03-2.92-5.51l-3.59.24s.17.44,1.45.47c0,0-.05,3.99,3.52,5.35.57.22,3.28.47,4.41-.8,1.12-1.27,1.64-3.71,1.31-9.66Z"/>
    <path class="cls-1" d="M40,205.79l-1.58-1.26s-10.89,6.99-12.01,7.71c-.26.17-.98.11-1.5-.07-.39-.14-.39.07-.23.22.2.18,2.32,2.25,2.56,2.45.23.19.35-.02.23-.19-.13-.17-.7-.8-.13-1.22.24-.18,1.93-1.28,3.99-2.64l3.14,2.85-1.83,4.62c-.18.37-1.27-.12-1.26-.11,0,0-.4,0-.12.27.83.8,2.8,2.42,2.97,2.58.23.2.45-.06.22-.26-.28-.25-.44-.72.41-2.7.9-2.08,5.14-12.23,5.14-12.23ZM32.15,210.23c2.62-1.73,5.3-3.5,5.3-3.5l-2.55,5.88-2.76-2.38Z"/>
    <path class="cls-1" d="M103.71,246.54c-.86-2.72-3.34-13.15-3.34-13.15l-1.53-.14s-5.84,11.33-6.46,12.51c-.14.27-.8.58-1.34.67-.4.07-.3.25-.09.3.26.06,3.36.46,3.66.51.3.05.3-.19.11-.27-.19-.08-.95-.69-.67-1.33.12-.27,1.12-1.99,1.73-2.99l4.68.17,1.37,4.73c.09.4-1.06.69-1.06.69,0,0-.31.25.07.28,1.15.12,3.79.27,4.02.29.31.01.32-.33,0-.35-.38-.02-.51.12-1.15-1.94ZM96.25,241.49c1.17-2.43,2.51-4.85,2.51-4.85l1.34,5.11-3.85-.26Z"/>
    <path class="cls-1" d="M49.89,217.91c1.7-2.89-.42-5.72-3.36-7.3-2.94-1.58-3.2-1.88-3.2-1.88,0,0-.36.08.03.44.39.35.55.77.21,1.26-.34.49-6.64,9.77-7.09,10.35-.45.58-1.24.08-1.22.52,0,0,2.54,1.74,2.74,1.88.2.14.4.02.22-.24s-.84-.77.46-2.47c.33-.44.93-1.27,1.64-2.28.56.42,1.69,1.21,2.72,1.54,1.43.45,5.15,1.08,6.85-1.81ZM40.73,217.6c2-2.87,4.57-6.64,4.57-6.64,0,0,4.81,2.7,2.66,6.47-1.88,3.3-5.93,1.26-7.23.17Z"/>
    <path class="cls-1" d="M47.55,227.87c.57-.82,6.25-9.45,6.87-10.17.62-.73,1.02-.52,1.39-.33.37.18.44-.07.18-.24-.25-.17-3.11-1.94-3.32-2.06-.21-.12-.13.19-.13.19l.09.14s.81.76-.05,2.03c-.86,1.27-6.58,9.58-6.58,9.58,0,0-.54.67-1.57.31-.15-.05-.43.08-.08.3.8.49,2.32,1.53,2.94,1.95.45.31.18-.29.18-.29,0,0-.49-.58.08-1.4Z"/>
    <path class="cls-1" d="M57.06,233.51c-.46-.18-4.66-2.34-4.66-2.34l2.81-5.13c.38.23.89.53,1.45.82,1.13.59,1.79.95,1.43,1.73-.36.78,0,.9.31.39.31-.5,1.03-1.71,1.46-2.53.44-.82.32-1.17-.04-.59-.36.58-.98.81-1.6.46-.44-.25-1.73-.95-2.44-1.32l2.7-4.92s2.8,1.31,4.67,2.53c-.2,1.13-.09,2.15.1,1.88.2-.27,1.31-2.61,1.31-2.61-.66-.2-7.82-4.04-7.82-4.04-.74-.31.46,1.14.18,1.6-.28.47-4.86,8.83-5.57,9.96-.71,1.13-.71,1.09-1.61.93-.9-.16-1.13.11-.67.35,1.91.95,8.48,4.66,8.68,4.35.2-.31,1.7-2.6,1.42-2.68-.27-.08-1.23,1.52-2.12,1.16Z"/>
    <path class="cls-1" d="M124.96,247.17c-.49.07-5.37.49-5.37.49l-.15-5.69c.42,0,1.25-.03,2.14-.1,1.27-.11,2.36-.17,2.49.68.12.85.48.76.47.16,0-.59-.07-1.99-.14-2.92-.08-.92-.36-1.16-.35-.47.02.68-.38,1.22-1.1,1.25-.63.03-3.01.2-3.54.24l-.15-5.75s4.39-.07,6.37-.18c.45,1.05,1.11,1.84,1.12,1.5.01-.33-.35-2.89-.35-2.89-.66.2-10,.62-10,.62-.79.14,1.01.69,1.04,1.24.03.54.23,9.97.18,11.3-.05,1.33-.1,1.56-.96,1.87-.86.31-.93.66-.41.63,2.07-.12,10.33-.72,10.33-.72,0,0,.41-3.62.13-3.56-.28.07-.79,2.16-1.75,2.3Z"/>
    <path class="cls-1" d="M76.51,227.59c-.47-.21-2.93-1.12-3.44-1.35-.51-.23-.4.31.03.55.43.24.47.58.23,1.27-.24.68-4.2,9.53-4.2,9.53l-1.3-13.36s-1.82-1.12-2.24-1.37c-.42-.25-.55.21-.15.57.4.36.38.7.08,1.38-.29.67-5.21,10.07-5.49,10.52-.27.44-1.74-.05-1.47.54,0,0,2.75,1.16,3.49,1.5.57.08.45-.29-.15-.89-.15-.15-.11-.7.36-1.52.43-.76,3.74-7.6,3.74-7.6l1.25,12.27,2.39.78s4.81-10.69,5.28-11.69c.47-1.01,1.05-.75,1.53-.61.48.14.55-.3.08-.5Z"/>
    <path class="cls-1" d="M86.94,234.13c.3-1.1.94-2.79.94-2.79l-10.26-3.08-.86,2.79c1.18-1.36,3.02-1.11,3.02-1.11,0,0,.69.2,1.6.46-.59,1.86-3.31,10.48-3.64,11.44-.37,1.07-1.4.47-1.55.86-.07.18-.02.25.4.36.52.12,2.38.83,2.77.94s.43.16.48.03c.21-.56-.88-.58-.52-1.65.14-.42,3.22-10.03,3.68-11.48.86.27,2.25.69,2.77.91.51.21,1.12,1.02,1.17,2.33Z"/>
    <path class="cls-1" d="M129.39,233.44l.34,2.9c.53-1.72,1.56-1.78,1.56-1.78l2.5-.3s1.26,10.73,1.33,11.74c.08,1.12-1.12.99-1.09,1.4.02.2.08.21.51.14.57-.09,3.2-.52,3.59-.59.39-.07.46-.05.44-.19-.06-.59-1.44.18-1.53-.94-.04-.44-1.13-11.95-1.13-11.95,0,0,1.48-.21,2.64-.3.55-.05,1.3-.12,1.82,1.08-.11-1.14-.39-2.69-.39-2.69l-10.61,1.48Z"/>
    <path class="cls-1" d="M89.42,245.93c-.1-.04-.4-.42-.25-1.1,0,0,2.19-10.58,2.34-11.34.14-.76.51-.71.91-.68.4.03.76-.5-.04-.64-.8-.14-2.33-.37-3.09-.52-.55-.1-.64.38-.36.49.37.15.95.6.87,1.12-.09.54-2.19,10.2-2.4,11.21-.15.71-.49,1.01-1.04.89-.4-.09-.53.36-.21.43l3.65.73s.28-.34-.38-.59Z"/>
    <path class="cls-1" d="M109.53,240.12c-.63.02-1.13.55-1.11,1.18.02.63.55,1.13,1.18,1.11.63-.02,1.13-.55,1.11-1.18-.02-.63-.55-1.12-1.18-1.11Z"/>
    <path class="cls-1" d="M144.85,237.18c-.63.02-1.13.54-1.11,1.18.02.63.55,1.13,1.18,1.11.63-.02,1.13-.55,1.11-1.18-.02-.63-.55-1.13-1.18-1.11Z"/>
    <path class="cls-1" d="M157.84,226.68c-.24.13-2.45.99-2.74,1.24-.28.25.01.41.2.3.68-.36,1-.08,1-.08l-.34,11.61s-7.1-8.56-7.32-8.82c-.2-.24-.36-.35.14-.64.76-.43.48-.61.48-.61l-4.3,1.11c-.21.1-.11.55.49.4.6-.15,1.24-.09,1.24-.09l9.02,11.57,1.56-.72s.17-14.08.19-14.32c.02-.24.14-.18.57-.52.54-.42.04-.55-.2-.42Z"/>
    <path class="cls-1" d="M166.73,236.57c-.16-.5-4.46-10.17-4.46-10.17-.12-.3.07-.65.51-1,.32-.25.3-.7-.14-.46-.44.25-3.27,1.68-3.54,1.84-.27.17-.15.39.37.24.52-.16.8-.13.89-.02,0,0,4.55,10.27,4.68,10.73.13.46.11.93-.38,1.24-.49.31-.33.61,0,.47.34-.14,2.83-1.17,3.47-1.45.39-.17.22-.53-.36-.34-.58.19-.83-.42-1.04-1.07Z"/>
    <path class="cls-1" d="M178.68,229.12c-1.71-1.52-2.91-2.67-3.84-2.28.3-.56,1.24-3.39.32-5.24-.92-1.84-3.06-1.82-4.35-1.25-1.29.58-5.84,3.38-5.84,3.38-.36.6.39.5,1.44.15l5.53,12.44c-.64.5-.69.97-.69.97l3.51-1.82s-.01-.28-1.06.06l-2.4-5.28c.35-.39.94-1,1.69-1.62.84-.79,3.26,1.57,5.07,2.99,1.82,1.42,2.1,1.2,2.91.6.81-.6,2.15-1.73,1.28-1.18-.91.58-1.87-.41-3.59-1.92ZM173.74,226.89c-.76.77-2.03,1.89-2.83,2.51l-2.96-6.55c.74-.32,1.18-.53,1.6-.74,1.39-.7,2.08-.42,3.37.09,1.29.51,1.86,3.63.82,4.69Z"/>
    <path class="cls-1" d="M188.65,226.47l-6.64-10.92c.71-.57,1.14-.82,1.61-1.18,1.37-1.04,2.46.2,2.46.2l-1.76-2.65-7.92,5.91,1.65,2.4s-.7-1.68.38-2.42c.42-.29.84-.42,1.75-1.04l6.78,10.81c-1.28.97-.48,1.03-.48,1.03l3.16-2.14s.16-.61-1,0Z"/>
    <path class="cls-1" d="M204.09,213.53c-.09.58-1.39,1.17-2.46.17-1.07-1.01-5.03-6.19-6.4-7.87-1.37-1.68-.7-2.51-.7-2.51l-3.02,2.63s.92-.39,1.55.42c.63.82,5.52,6.96,5.96,7.44.2.22.35.41.58.63.15,4.37-3.2,5.54-4.4,4.67-1.26-.91-5.52-6.43-6.45-7.63-.93-1.2-.36-2.41-.36-2.41l-3.41,2.69s1.06-.15,1.99.95c1.08,1.29,2.3,2.83,5.57,6.67.84.99,1.9,2.7,4.46,1.46,2.14-1.04,3.19-4.29,2.99-6.06.26.2.59.44,1.07.75,2.06,1.33,2.85-.46,3.08-1.33s.04-1.26-.05-.68Z"/>
    <path class="cls-1" d="M207.39,202.15c-2.79-.5-7.75,1.41-7.88-.56-.11-1.77,3.45-4.27,5.14-3.01l-.57-4.34s-.38.19-.43.66c-.06.47-.14.98-.66,1.11-1.04.25-3.35,2.01-4.1,4.19-.38,1.11-.39,4.99,2.19,4.76,2.58-.24,7.42-1.73,8.76,1.62,1.1,2.78-2.48,4.54-4.31,3.31-.06,0,.37,2.92.56,3.83.26-.21.29-1.41.68-1.7.78-.56,3.39.24,4.22-3.81.82-4.06-1.5-5.7-3.59-6.07Z"/>
    <path class="cls-1" d="M121.87,144.45c-1.33-.31-3.06,1.76-3.06,1.76l-.03,1.94s1.89-3.19,3.09-3.69Z"/>
  </g>
</svg>