<svg xmlns="http://www.w3.org/2000/svg" viewBox="50 50 200 200"><defs><style>.cls-1{fill:none;}.cls-2{fill:#fff;}.cls-3{fill:#172d72;}.cls-4{fill:#00aeef;}.cls-5{fill:#3d3fea;}</style></defs><g id="图层_2" data-name="图层 2"><g id="Layer_1" data-name="Layer 1"><rect class="cls-1" x="26.35" y="31.45" width="233.6" height="233.6"/><rect class="cls-2" width="286.3" height="286.3" rx="29.82"/><rect class="cls-1" x="47.72" y="47.72" width="190.87" height="190.87"/><path class="cls-3" d="M162.23,92.21,78.34,68.62a9.09,9.09,0,0,0-7.93,1.46,8.82,8.82,0,0,0-3.61,7.13V229.65a8.83,8.83,0,0,0,3.45,7,9.09,9.09,0,0,0,5.59,1.93,9.52,9.52,0,0,0,2.12-.25l83.89-19.71h0a8.94,8.94,0,0,0,7-8.69V100.8A9,9,0,0,0,162.23,92.21Z"/><path class="cls-4" d="M219.38,86.79a9,9,0,0,0-6.56-8.56L106,48.07a9.1,9.1,0,0,0-8,1.45,8.81,8.81,0,0,0-3.6,7.13V172.33a8.83,8.83,0,0,0,3.45,7,9.08,9.08,0,0,0,5.59,1.92,9.26,9.26,0,0,0,2.14-.25l106.89-25.37a8.93,8.93,0,0,0,6.94-8.7Z"/><path class="cls-5" d="M162.23,92.21l-67.74-19v99.17a8.83,8.83,0,0,0,3.45,7,9.08,9.08,0,0,0,5.59,1.92,9.26,9.26,0,0,0,2.14-.25l63.14-15V100.8A9,9,0,0,0,162.23,92.21Z"/><rect class="cls-2" width="286.3" height="286.3" rx="29.82"/><rect class="cls-1" x="50.12" y="50.12" width="186.06" height="186.06"/><path class="cls-3" d="M161.75,93.49,80,70.5a8.84,8.84,0,0,0-7.74,1.42,8.59,8.59,0,0,0-3.51,7V227.48a8.61,8.61,0,0,0,3.35,6.83,8.87,8.87,0,0,0,5.46,1.87,9.05,9.05,0,0,0,2.06-.24l81.78-19.21h0a8.7,8.7,0,0,0,6.78-8.47V101.87A8.77,8.77,0,0,0,161.75,93.49Z"/><path class="cls-4" d="M217.46,88.21a8.77,8.77,0,0,0-6.4-8.35L107,50.46a8.85,8.85,0,0,0-7.74,1.42,8.6,8.6,0,0,0-3.52,6.95V171.59a8.61,8.61,0,0,0,3.37,6.84,8.83,8.83,0,0,0,5.44,1.87,9.24,9.24,0,0,0,2.09-.24l104.2-24.73a8.72,8.72,0,0,0,6.77-8.48Z"/><path class="cls-5" d="M161.75,93.49l-66-18.57v96.67a8.61,8.61,0,0,0,3.37,6.84,8.83,8.83,0,0,0,5.44,1.87,9.24,9.24,0,0,0,2.09-.24l61.55-14.61V101.87A8.77,8.77,0,0,0,161.75,93.49Z"/></g></g></svg>